<svg xmlns="http://www.w3.org/2000/svg" width="109" height="40" fill="none"><path fill="#C8C8C8" d="M108.111 4.873a.499.499 0 1 1-.222.975l.222-.975Zm-44.069 8.414-.407-.29.407.29Zm20.084 23.781-.303-.397.303.397ZM0 10.117l1.4-5.601 4.151 4.013L0 10.117ZM1.108 8.26a.5.5 0 0 1 .604.797l-.604-.797Zm4.076-1.142a.5.5 0 0 1-.401-.916l.4.916Zm3.483-2.35a.5.5 0 0 1 .3.954l-.3-.954Zm4.214-.12a.5.5 0 0 1-.233-.972l.233.973Zm3.798-1.825a.5.5 0 1 1 .184.984l-.184-.984Zm4.201.319a.5.5 0 0 1-.144-.99l.144.99Zm3.933-1.516a.5.5 0 0 1 .112.994l-.112-.994Zm4.176.591a.5.5 0 0 1-.085-.996l.085.996ZM33.01.918a.5.5 0 1 1 .062.998L33.01.918Zm4.13.787a.5.5 0 0 1-.042-.999l.041 1ZM41.211.572a.5.5 0 1 1 .024 1l-.024-1Zm4.098.936a.5.5 0 1 1-.007-1l.007 1Zm4.136-.984a.5.5 0 0 1-.023 1l.023-1Zm4.025 1.191a.5.5 0 1 1 .072-.997l-.072.997Zm4.151-.589a.5.5 0 0 1-.128.992l.128-.992Zm3.856 1.635a.5.5 0 0 1 .192-.982l-.192.982Zm4.215-.045a.5.5 0 1 1-.263.965l.263-.965Zm3.574 2.187a.5.5 0 0 1 .345-.939l-.345.939Zm4.152.672a.5.5 0 1 1-.436.9l.436-.9Zm3.07 2.848a.5.5 0 1 1 .537-.845l-.536.845Zm3.881 1.593a.5.5 0 0 1-.642.767l.642-.767Zm2.227 3.555a.5.5 0 0 1 .75-.661l-.75.661Zm3.235 2.68a.5.5 0 0 1-.85.526l.85-.525Zm.92 4.093a.5.5 0 0 1 .935-.357l-.934.357Zm2.023 3.672a.5.5 0 1 1-.988.158l.988-.158Zm-.812 4.107a.5.5 0 1 1 .998.075l-.998-.075Zm.126 4.19a.5.5 0 0 1-.939-.345l.94.345Zm-2.87 3.027a.5.5 0 1 1 .762.648l-.762-.648Zm-2.709 3.263a.5.5 0 0 1-.406-.914l.406.914Zm-4.325-.103a.5.5 0 1 1 .01 1l-.01-1Zm-4.315.36a.5.5 0 0 1 .285-.959l-.285.959Zm-3.485-2.593a.5.5 0 0 1-.499.866l.5-.866Zm-4.005-1.682a.5.5 0 0 1 .67-.743l-.67.743Zm-2.07-3.817a.5.5 0 1 1-.817.577l.817-.577Zm-2.87-3.259a.5.5 0 1 1 .935-.353l-.936.353Zm.055-4.332a.5.5 0 1 1-.998.068l.998-.068Zm-.623-4.288a.5.5 0 0 1 .972.235l-.972-.235Zm2.473-3.563a.5.5 0 0 1-.875-.484l.875.484Zm1.549-3.897a.5.5 0 0 1 .742.67l-.742-.67Zm3.573-1.855a.5.5 0 1 1-.585-.81l.585.81Zm2.842-2.85a.5.5 0 0 1 .438.9l-.438-.9Zm3.994-.54a.5.5 0 0 1-.315-.948l.315.949Zm3.506-1.99a.5.5 0 0 1 .214.978l-.214-.977Zm4.02.315a.5.5 0 0 1-.132-.991l.131.99Zm3.79-1.373a.5.5 0 0 1 .064.998l-.064-.998Zm3.94.867a.5.5 0 1 1-.005-1l.005 1Zm3.926-.918a.5.5 0 1 1-.046.999l.046-1Zm3.83 1.27a.5.5 0 1 1 .093-.995l-.094.996Zm3.995-.537a.5.5 0 1 1-.14.99l.14-.99Zm3.689 1.631a.5.5 0 0 1 .192-.981l-.192.981ZM4.783 6.202a38.48 38.48 0 0 1 3.884-1.434l.3.954c-1.465.46-2.72.93-3.783 1.396l-.401-.916Zm7.865-2.526a81.596 81.596 0 0 1 4.031-.853l.184.984c-1.433.267-2.759.55-3.982.842l-.233-.973Zm8.088-1.524c1.289-.188 2.647-.364 4.077-.526l.112.994c-1.42.16-2.767.335-4.045.522l-.144-.99Zm8.168-.931c1.315-.113 2.683-.214 4.105-.303l.062.998c-1.414.088-2.775.19-4.082.301l-.085-.996Zm8.193-.515c1.328-.055 2.7-.1 4.115-.134l.024 1c-1.41.033-2.775.078-4.098.133l-.041-.999Zm8.206-.198c.68-.005 1.368-.007 2.065-.007v1c-.695 0-1.38.002-2.058.007l-.007-1Zm2.065-.007c.703 0 1.396.008 2.078.023l-.023 1a89.83 89.83 0 0 0-2.055-.023v-1Zm6.175.217c1.407.102 2.767.239 4.079.408l-.128.992a72.055 72.055 0 0 0-4.023-.403l.072-.997Zm8.127 1.061c1.402.273 2.742.587 4.023.937l-.263.965a54.72 54.72 0 0 0-3.952-.92l.192-.982Zm7.942 2.185a41.723 41.723 0 0 1 3.807 1.611l-.436.9a40.717 40.717 0 0 0-3.716-1.572l.345-.939Zm7.414 3.614a31.383 31.383 0 0 1 3.344 2.438l-.642.767a30.376 30.376 0 0 0-3.238-2.36l.536-.845Zm6.32 5.332a24.58 24.58 0 0 1 2.486 3.342l-.85.525a23.596 23.596 0 0 0-2.385-3.206l.75-.661Zm4.34 7.077a20.198 20.198 0 0 1 1.089 4.029l-.988.158a19.196 19.196 0 0 0-1.034-3.83l.934-.357Zm1.275 8.211a15.259 15.259 0 0 1-.872 4.114l-.939-.344a14.26 14.26 0 0 0 .813-3.845l.998.075Zm-2.98 7.79c-.469.55-.987 1.046-1.551 1.477l-.607-.794a9.045 9.045 0 0 0 1.396-1.331l.762.648Zm-1.551 1.477a9.525 9.525 0 0 1-1.92 1.138l-.406-.914a8.524 8.524 0 0 0 1.719-1.018l.607.794ZM78.195 39.5c-1.422.014-2.883-.212-4.325-.64l.285-.959c1.358.404 2.72.612 4.03.6l.01 1Zm-8.309-2.367a20.556 20.556 0 0 1-3.506-2.548l.67-.743a19.56 19.56 0 0 0 3.335 2.425l-.499.866Zm-6.392-5.788a17.196 17.196 0 0 1-2.055-3.836l.936-.353a16.197 16.197 0 0 0 1.935 3.612l-.817.577Zm-2.997-8.1a14.316 14.316 0 0 1 .375-4.356l.972.235a13.314 13.314 0 0 0-.35 4.053l-.997.068Zm1.973-8.403c.341-.616.728-1.23 1.165-1.844l.815.58a18.436 18.436 0 0 0-1.105 1.748l-.875-.484Zm1.165-1.844c.39-.55.811-1.073 1.259-1.569l.742.67c-.422.468-.818.96-1.186 1.478l-.815-.58Zm4.247-4.234a23.268 23.268 0 0 1 3.427-2.04l.438.9a22.268 22.268 0 0 0-3.28 1.95l-.585-.81Zm7.106-3.528a37.888 37.888 0 0 1 3.82-1.041l.215.977c-1.276.28-2.52.615-3.72 1.013l-.315-.95Zm7.709-1.718a57.552 57.552 0 0 1 3.922-.382l.064.998a56.55 56.55 0 0 0-3.855.375l-.131-.991Zm7.856-.515a76.614 76.614 0 0 1 3.932.082l-.046.999a75.619 75.619 0 0 0-3.88-.08l-.005-1Zm7.855.357a83.91 83.91 0 0 1 3.902.458l-.14.99a82.923 82.923 0 0 0-3.856-.452l.094-.996Zm7.783 1.108c.676.131 1.317.267 1.92.405l-.222.975a60.592 60.592 0 0 0-1.89-.399l.192-.981Z"/></svg>