<svg width="18" height="18" viewBox="0 0 18 18" fill="none" xmlns="http://www.w3.org/2000/svg">
<path d="M7.17746 14.1161C7.03496 14.1161 6.89246 14.0636 6.77996 13.9511L2.22746 9.39856C2.00996 9.18106 2.00996 8.82106 2.22746 8.60357L6.77996 4.05106C6.99746 3.83356 7.35746 3.83356 7.57496 4.05106C7.79246 4.26856 7.79246 4.62856 7.57496 4.84606L3.41996 9.00106L7.57496 13.1561C7.79246 13.3736 7.79246 13.7336 7.57496 13.9511C7.46996 14.0636 7.31996 14.1161 7.17746 14.1161Z" fill="white"/>
<path d="M15.375 9.56348L2.7525 9.56348C2.445 9.56348 2.19 9.30848 2.19 9.00098C2.19 8.69348 2.445 8.43848 2.7525 8.43848L15.375 8.43848C15.6825 8.43848 15.9375 8.69348 15.9375 9.00098C15.9375 9.30848 15.6825 9.56348 15.375 9.56348Z" fill="white"/>
</svg>
