<svg width="22" height="22" viewBox="0 0 22 22" fill="none" xmlns="http://www.w3.org/2000/svg">
<path d="M5.56376 20.1618C3.50946 20.1618 1.7712 18.4236 1.7712 16.3693V10.9614C1.72731 8.39789 2.67545 5.98365 4.44882 4.17516C6.22219 2.37545 8.60132 1.37463 11.1648 1.37463C16.3971 1.37463 20.6462 5.63248 20.6462 10.856V16.2639C20.6462 18.3534 18.9431 20.0565 16.8536 20.0565C14.7993 20.0565 13.0611 18.3182 13.0611 16.2639V13.797C13.0611 12.5241 14.0619 11.5232 15.3349 11.5232C16.6078 11.5232 17.6086 12.5241 17.6086 13.797V16.4571C17.6086 16.817 17.3102 17.1155 16.9502 17.1155C16.5903 17.1155 16.2918 16.817 16.2918 16.4571V13.797C16.2918 13.2 15.8089 12.8401 15.3349 12.8401C14.7379 12.8401 14.3779 13.3229 14.3779 13.797V16.2639C14.3779 17.6071 15.5104 18.7396 16.8536 18.7396C18.1968 18.7396 19.3293 17.6071 19.3293 16.2639V10.856C19.3293 6.35237 15.6685 2.69149 11.1648 2.69149C8.96126 2.69149 6.91574 3.54306 5.38818 5.09696C3.86062 6.65085 3.04417 8.73149 3.08806 10.9438V16.3693C3.08806 17.7125 4.22056 18.845 5.56376 18.845C6.90696 18.845 8.03946 17.7125 8.03946 16.3693V13.9024C8.03946 13.3054 7.55661 12.9454 7.08254 12.9454C6.48556 12.9454 6.12562 13.4283 6.12562 13.9024V16.4659C6.12562 16.8258 5.82713 17.1243 5.46719 17.1243C5.10725 17.1243 4.80876 16.8258 4.80876 16.4659V13.9024C4.80876 12.6294 5.80958 11.6286 7.08254 11.6286C8.35551 11.6286 9.35632 12.6294 9.35632 13.9024V16.3693C9.35632 18.4236 7.61806 20.1618 5.56376 20.1618Z" fill="#3F4ACF"/>
</svg>
