<svg width="203" height="381" viewBox="0 0 203 381" fill="none" xmlns="http://www.w3.org/2000/svg">
<path d="M187.551 85.2517L191.333 88.9764L194.911 85.3436L198.701 89.0762L195.123 92.709L198.905 96.4337L195.32 100.074L191.538 96.3494L187.96 99.9822L184.17 96.2497L187.748 92.6169L183.966 88.8922L187.551 85.2517ZM191.341 88.9843L187.763 92.6171L191.545 96.3418L195.123 92.709L191.341 88.9843Z" fill="#464646" fill-opacity="0.06"/>
<path d="M40.4472 143.488L44.2293 147.213L47.807 143.58L51.605 147.321L48.0274 150.953L51.8096 154.678L48.2244 158.319L44.4422 154.594L40.8646 158.227L37.0745 154.494L40.6521 150.861L36.8699 147.137L40.4551 143.496L40.4472 143.488ZM44.2297 147.228L40.6521 150.861L44.4343 154.586L48.0119 150.953L44.2297 147.228Z" fill="#464646" fill-opacity="0.06"/>
<path d="M49.7987 278.833L53.5809 282.558L57.1585 278.925L60.9486 282.658L57.371 286.291L61.1611 290.023L57.576 293.664L53.7938 289.939L50.2162 293.572L46.426 289.839L50.0037 286.206L46.2215 282.482L49.8067 278.841L49.7987 278.833ZM53.5813 282.574L50.0037 286.206L53.7858 289.931L57.3635 286.298L53.5813 282.574Z" fill="#464646" fill-opacity="0.06"/>
<path d="M64.7617 38.2874L69.6179 40.4309L67.559 45.0955L62.7028 42.9519L64.7617 38.2874Z" fill="#464646" fill-opacity="0.06"/>
<path d="M6.74233 0.000699814L59.354 23.223L57.2951 27.8875L4.68346 4.66522L6.74233 0.000699814Z" fill="#464646" fill-opacity="0.06"/>
<path d="M144.987 352.969L197.598 376.192L195.539 380.856L142.928 357.634L144.987 352.969Z" fill="#464646" fill-opacity="0.06"/>
<path d="M91.8445 287.211L96.7622 289.382L94.6774 294.105L89.7597 291.934L91.8445 287.211Z" fill="#464646" fill-opacity="0.06"/>
<path d="M144.686 134.944L149.604 137.114L147.519 141.838L142.601 139.667L144.686 134.944Z" fill="#464646" fill-opacity="0.06"/>
</svg>
