<svg width="13" height="13" viewBox="0 0 13 13" fill="none" xmlns="http://www.w3.org/2000/svg">
<path d="M7.81627 10.1951C7.71336 10.1951 7.61044 10.1572 7.52919 10.076C7.37211 9.9189 7.37211 9.6589 7.52919 9.50181L10.53 6.50098L7.52919 3.50015C7.37211 3.34306 7.37211 3.08306 7.52919 2.92598C7.68627 2.7689 7.94627 2.7689 8.10336 2.92598L11.3913 6.2139C11.5484 6.37098 11.5484 6.63098 11.3913 6.78806L8.10336 10.076C8.02211 10.1572 7.91919 10.1951 7.81627 10.1951Z" fill="#3F4ACF"/>
<path d="M11.0121 6.90723H1.89581C1.67373 6.90723 1.48956 6.72306 1.48956 6.50098C1.48956 6.27889 1.67373 6.09473 1.89581 6.09473H11.0121C11.2341 6.09473 11.4183 6.27889 11.4183 6.50098C11.4183 6.72306 11.2341 6.90723 11.0121 6.90723Z" fill="#3F4ACF"/>
</svg>
