<svg width="16" height="29" viewBox="0 0 16 29" fill="none" xmlns="http://www.w3.org/2000/svg">
<path d="M2.71999 18.4676C2.84665 18.4676 2.97332 18.5143 3.07332 18.6143L7.41999 22.961C7.73999 23.281 8.25999 23.281 8.57999 22.961L12.9267 18.6143C13.12 18.421 13.44 18.421 13.6333 18.6143C13.8267 18.8076 13.8267 19.1276 13.6333 19.321L9.28665 23.6676C8.57999 24.3743 7.42665 24.3743 6.71332 23.6676L2.36665 19.321C2.17332 19.1276 2.17332 18.8076 2.36665 18.6143C2.46665 18.521 2.59332 18.4676 2.71999 18.4676Z" fill="#464646"/>
<g opacity="0.6">
<path d="M2.71999 12.4676C2.84665 12.4676 2.97332 12.5143 3.07332 12.6143L7.41999 16.961C7.73999 17.281 8.25999 17.281 8.57999 16.961L12.9267 12.6143C13.12 12.421 13.44 12.421 13.6333 12.6143C13.8267 12.8076 13.8267 13.1276 13.6333 13.321L9.28665 17.6676C8.57999 18.3743 7.42665 18.3743 6.71332 17.6676L2.36665 13.321C2.17332 13.1276 2.17332 12.8076 2.36665 12.6143C2.46665 12.521 2.59332 12.4676 2.71999 12.4676Z" fill="#464646"/>
</g>
<g opacity="0.2">
<path d="M2.71999 5.46763C2.84665 5.46763 2.97332 5.5143 3.07332 5.6143L7.41999 9.96097C7.73999 10.281 8.25999 10.281 8.57999 9.96097L12.9267 5.6143C13.12 5.42097 13.44 5.42097 13.6333 5.6143C13.8267 5.80763 13.8267 6.12763 13.6333 6.32096L9.28665 10.6676C8.57999 11.3743 7.42665 11.3743 6.71332 10.6676L2.36665 6.32097C2.17332 6.12763 2.17332 5.80763 2.36665 5.6143C2.46665 5.52097 2.59332 5.46763 2.71999 5.46763Z" fill="#464646"/>
</g>
</svg>
