<svg width="20" height="20" viewBox="0 0 20 20" fill="none" xmlns="http://www.w3.org/2000/svg">
<path d="M7.97501 15.6844C7.81668 15.6844 7.65835 15.6261 7.53335 15.5011L2.47501 10.4427C2.23335 10.2011 2.23335 9.80107 2.47501 9.55941L7.53335 4.50107C7.77501 4.25941 8.17501 4.25941 8.41668 4.50107C8.65835 4.74274 8.65835 5.14274 8.41668 5.38441L3.80001 10.0011L8.41668 14.6177C8.65835 14.8594 8.65835 15.2594 8.41668 15.5011C8.30001 15.6261 8.13335 15.6844 7.97501 15.6844Z" fill="#5A5A5A"/>
<path d="M17.0833 10.626H3.05832C2.71665 10.626 2.43332 10.3426 2.43332 10.001C2.43332 9.65931 2.71665 9.37598 3.05832 9.37598H17.0833C17.425 9.37598 17.7083 9.65931 17.7083 10.001C17.7083 10.3426 17.425 10.626 17.0833 10.626Z" fill="#5A5A5A"/>
</svg>
