<svg xmlns="http://www.w3.org/2000/svg" width="14" height="14" fill="none"><path fill="#fff" d="M9.333 13.27H4.667c-2.695 0-3.197-1.253-3.325-2.473L.904 6.125C.84 5.513.822 4.608 1.43 3.932c.525-.584 1.394-.864 2.654-.864h5.834c1.265 0 2.135.286 2.654.864.607.676.589 1.58.525 2.199l-.438 4.66c-.128 1.226-.63 2.48-3.325 2.48Zm-5.25-9.332c-.986 0-1.662.192-2.006.577-.286.315-.38.8-.304 1.523l.438 4.672c.099.922.35 1.686 2.456 1.686h4.666c2.1 0 2.357-.764 2.456-1.692l.438-4.66c.075-.73-.018-1.214-.304-1.529-.344-.385-1.02-.577-2.006-.577H4.083Z"/><path fill="#fff" d="M9.333 3.938a.44.44 0 0 1-.437-.438v-.467c0-1.038 0-1.429-1.43-1.429h-.933c-1.429 0-1.429.391-1.429 1.43V3.5a.44.44 0 0 1-.437.438.44.44 0 0 1-.438-.438v-.467c0-1.026 0-2.304 2.304-2.304h.934C9.77.73 9.77 2.007 9.77 3.033V3.5a.44.44 0 0 1-.438.438ZM7 9.77c-1.604 0-1.604-.99-1.604-1.586v-.6c0-.823.198-1.021 1.02-1.021h1.167c.823 0 1.021.198 1.021 1.02v.584c0 .606 0 1.604-1.604 1.604Zm-.73-2.332v.746c0 .601 0 .712.73.712s.73-.094.73-.718v-.741H6.27Z"/><path fill="#fff" d="M8.167 8.616a.44.44 0 0 1-.052-.875 9.202 9.202 0 0 0 4.258-1.68.44.44 0 0 1 .513.712 10.13 10.13 0 0 1-4.667 1.843h-.052ZM5.833 8.622h-.052a10.005 10.005 0 0 1-4.504-1.686.44.44 0 0 1-.116-.607.44.44 0 0 1 .606-.116 9.19 9.19 0 0 0 4.107 1.54c.24.029.414.245.385.484a.421.421 0 0 1-.426.385Z"/></svg>