<svg xmlns="http://www.w3.org/2000/svg" width="13" height="14" fill="none"><path fill="#fff" d="M4.257 3.662a.391.391 0 0 1-.389-.389V1.72c0-.213.176-.389.389-.389.212 0 .388.176.388.389v1.553a.391.391 0 0 1-.388.389ZM8.4 3.662a.391.391 0 0 1-.388-.389V1.72c0-.213.176-.389.388-.389.212 0 .388.176.388.389v1.553a.391.391 0 0 1-.388.389ZM4.516 8.194a.516.516 0 0 1-.197-.042.535.535 0 0 1-.171-.108.535.535 0 0 1-.15-.368c0-.067.015-.135.041-.197a.598.598 0 0 1 .109-.17.535.535 0 0 1 .735 0 .545.545 0 0 1 .14.47.33.33 0 0 1-.03.094.393.393 0 0 1-.048.093c-.015.026-.041.052-.062.078a.545.545 0 0 1-.367.15ZM6.328 8.194a.516.516 0 0 1-.197-.042.535.535 0 0 1-.17-.108.535.535 0 0 1-.15-.368c0-.068.015-.135.04-.197a.598.598 0 0 1 .11-.17.535.535 0 0 1 .17-.11.52.52 0 0 1 .565.11.545.545 0 0 1 .14.47.33.33 0 0 1-.031.094.392.392 0 0 1-.047.093c-.015.026-.041.052-.062.078a.545.545 0 0 1-.368.15ZM8.141 8.194a.516.516 0 0 1-.197-.042.535.535 0 0 1-.17-.108l-.063-.078a.393.393 0 0 1-.046-.093.33.33 0 0 1-.032-.094.545.545 0 0 1 .14-.471.535.535 0 0 1 .171-.109.517.517 0 0 1 .565.11.545.545 0 0 1 .14.47.33.33 0 0 1-.031.094.392.392 0 0 1-.047.093c-.016.026-.042.052-.062.078a.545.545 0 0 1-.368.15ZM4.516 10.007a.516.516 0 0 1-.197-.042.598.598 0 0 1-.171-.109.545.545 0 0 1-.15-.367c0-.068.015-.135.041-.197a.483.483 0 0 1 .109-.171.542.542 0 0 1 .735 0c.094.098.15.233.15.368 0 .134-.056.269-.15.367a.545.545 0 0 1-.367.15ZM6.328 10.007a.545.545 0 0 1-.367-.15.545.545 0 0 1-.15-.368c0-.068.015-.135.04-.197a.483.483 0 0 1 .11-.171.542.542 0 0 1 .735 0 .483.483 0 0 1 .109.17c.026.063.041.13.041.198 0 .134-.057.269-.15.367a.545.545 0 0 1-.368.15ZM8.141 10.007a.545.545 0 0 1-.368-.15.484.484 0 0 1-.108-.172.516.516 0 0 1-.042-.196c0-.068.016-.135.042-.197a.483.483 0 0 1 .108-.171.517.517 0 0 1 .565-.109c.03.01.062.026.093.047.026.015.052.041.078.062.093.098.15.233.15.368 0 .134-.057.269-.15.367a.545.545 0 0 1-.368.15ZM10.73 5.78H1.927a.391.391 0 0 1-.388-.388c0-.212.176-.388.388-.388h8.805c.212 0 .388.176.388.388a.391.391 0 0 1-.388.389Z"/><path fill="#fff" d="M8.4 12.466H4.257c-1.89 0-2.978-1.087-2.978-2.978V5.086c0-1.89 1.087-2.978 2.978-2.978H8.4c1.89 0 2.978 1.088 2.978 2.978v4.402c0 1.89-1.088 2.979-2.978 2.979ZM4.257 2.886c-1.482 0-2.202.72-2.202 2.201v4.402c0 1.482.72 2.202 2.202 2.202H8.4c1.481 0 2.201-.72 2.201-2.202V5.086c0-1.481-.72-2.201-2.201-2.201H4.257Z"/></svg>