<svg xmlns="http://www.w3.org/2000/svg" width="10" height="10" fill="none"><g clip-path="url(#a)"><path fill="#525252" fill-rule="evenodd" d="M4.018.837a.355.355 0 0 1 .395.317.358.358 0 0 1-.315.395 2.88 2.88 0 0 0-2.552 2.558.357.357 0 1 1-.71-.08A3.59 3.59 0 0 1 4.018.837Zm-.026 1.45a.36.36 0 0 1 .136.704c-.58.114-1.029.563-1.143 1.146a.358.358 0 1 1-.7-.137c.169-.87.839-1.543 1.707-1.713Zm-.659 4c-.188-.108-.4-.23-.668-.173-.243.05-1.07.723-1.297.955-.149.153-.231.31-.244.467-.022.618.817 1.323.97 1.41.202.147.438.22.703.22.271 0 .574-.076.903-.23 1.788-.746 4.519-3.423 5.24-5.197.3-.66.302-1.205.006-1.614-.119-.192-.793-.995-1.397-.97-.16.015-.316.097-.47.247-.231.227-.886 1.057-.937 1.3-.056.27.067.486.176.675.024.04.055.09.09.142.13.2.303.467.242.638-.44 1.08-1.457 2.024-2.539 2.467-.167.06-.434-.114-.634-.245-.052-.034-.1-.066-.14-.089l-.004-.002Z" clip-rule="evenodd"/></g><defs><clipPath id="a"><path fill="#fff" d="M10 0H0v10h10z"/></clipPath></defs></svg>