<svg xmlns="http://www.w3.org/2000/svg" width="19" height="18" fill="none"><path fill="#fff" d="M5.787 17.063c.848 0 1.74-.203 2.663-.593.9-.383 1.808-.907 2.693-1.545a23.41 23.41 0 0 0 2.527-2.152 22.407 22.407 0 0 0 2.152-2.52c.646-.9 1.163-1.8 1.53-2.67.39-.93.585-1.83.585-2.678a4.52 4.52 0 0 0-.307-1.658 4.006 4.006 0 0 0-1.005-1.454c-.578-.57-1.238-.855-1.943-.855-.292 0-.592.067-.847.187-.293.135-.54.337-.72.607l-1.74 2.453a2.905 2.905 0 0 0-.36.638c-.098.224-.15.45-.15.667 0 .285.082.563.24.825a3 3 0 0 0 .502.637l.51.533c-.007.022-.015.037-.022.052-.09.158-.27.428-.615.833-.367.42-.713.803-1.058 1.155-.442.435-.81.78-1.155 1.065-.427.36-.704.54-.87.623l.015.037-.547-.54a2.801 2.801 0 0 0-.675-.518c-.413-.255-.938-.3-1.463-.082a3.415 3.415 0 0 0-.63.353l-2.49 1.77c-.277.187-.48.427-.6.712a2.17 2.17 0 0 0-.165.81c0 .36.083.72.24 1.057.158.338.353.63.6.9.428.473.893.81 1.433 1.028.518.21 1.08.323 1.672.323Zm8.895-15c.413 0 .795.18 1.163.54.345.322.585.674.735 1.057.158.39.233.803.233 1.245 0 .697-.165 1.455-.495 2.235a12.52 12.52 0 0 1-1.41 2.445 20.75 20.75 0 0 1-2.033 2.385c-.75.742-1.56 1.432-2.393 2.04a12.186 12.186 0 0 1-2.467 1.418c-1.283.547-2.483.674-3.473.262a2.769 2.769 0 0 1-1.027-.742 2.432 2.432 0 0 1-.42-.63 1.329 1.329 0 0 1-.135-.578c0-.12.022-.24.083-.375a.568.568 0 0 1 .21-.225l2.49-1.77c.15-.105.284-.18.412-.232.165-.068.232-.136.487.022.15.075.285.188.435.338l.57.562c.293.285.743.352 1.088.225l.203-.09c.307-.165.667-.42 1.064-.758.36-.307.75-.667 1.223-1.132.367-.375.735-.772 1.117-1.215.353-.412.608-.765.765-1.057l.09-.225a1.4 1.4 0 0 0 .06-.375c0-.27-.097-.51-.284-.698l-.563-.585a2.172 2.172 0 0 1-.338-.42.481.481 0 0 1-.082-.255c0-.06.022-.15.06-.24.052-.12.135-.255.24-.397l1.74-2.46a.691.691 0 0 1 .277-.233.94.94 0 0 1 .375-.083Zm-6.27 9.194.12.51-.202-.524c.037-.008.068 0 .082.014ZM5 7.313a.567.567 0 0 0 .563-.563c0-.27.27-.832.72-1.313.442-.472.93-.75 1.342-.75a.567.567 0 0 0 .563-.562.567.567 0 0 0-.563-.563c-.728 0-1.492.39-2.16 1.103-.622.667-1.027 1.485-1.027 2.085 0 .308.255.563.562.563ZM2.375 7.313a.567.567 0 0 0 .563-.563 4.69 4.69 0 0 1 4.687-4.688.567.567 0 0 0 .563-.562.567.567 0 0 0-.563-.563A5.822 5.822 0 0 0 1.812 6.75c0 .308.255.563.563.563Z"/></svg>