<svg width="47" height="47" viewBox="0 0 47 47" fill="none" xmlns="http://www.w3.org/2000/svg">
<path d="M34.1107 44.5565C31.9018 44.5565 29.5757 44.0287 27.1714 43.0123C24.8258 42.0154 22.4605 40.6471 20.154 38.9855C17.867 37.3045 15.6581 35.428 13.5666 33.3755C11.4946 31.284 9.61803 29.0751 7.95652 26.8076C6.27546 24.462 4.92671 22.1163 3.9689 19.8488C2.95244 17.425 2.44421 15.0793 2.44421 12.8705C2.44421 11.3458 2.71787 9.89932 3.24565 8.55057C3.79297 7.16271 4.67259 5.8726 5.86497 4.75841C7.37011 3.27282 9.09026 2.53003 10.9277 2.53003C11.69 2.53003 12.4719 2.70595 13.1365 3.01871C13.8989 3.37056 14.5439 3.89833 15.0131 4.60203L19.548 10.994C19.9585 11.5608 20.2713 12.1082 20.4863 12.6555C20.7404 13.2419 20.8772 13.8283 20.8772 14.3952C20.8772 15.138 20.6622 15.8612 20.2517 16.5454C19.9585 17.0731 19.5089 17.64 18.942 18.2069L17.6128 19.5947C17.6324 19.6534 17.6519 19.6925 17.6715 19.7316C17.906 20.1421 18.3752 20.8458 19.2743 21.9013C20.2322 22.9959 21.1313 23.9929 22.0305 24.9116C23.1838 26.0453 24.1416 26.9445 25.0408 27.6873C26.155 28.6255 26.8782 29.0947 27.3082 29.3097L27.2692 29.4074L28.6961 28C29.3021 27.3941 29.8885 26.9445 30.4553 26.6513C31.5304 25.9867 32.8987 25.8694 34.267 26.4363C34.7753 26.6513 35.3226 26.9445 35.909 27.355L42.3987 31.9681C43.1219 32.4568 43.6497 33.0823 43.9625 33.8251C44.2557 34.5679 44.3925 35.252 44.3925 35.9362C44.3925 36.8745 44.1775 37.8127 43.767 38.6923C43.3565 39.572 42.8483 40.3343 42.2032 41.038C41.089 42.2695 39.8771 43.1491 38.4697 43.716C37.1209 44.2633 35.6549 44.5565 34.1107 44.5565ZM10.9277 5.46211C9.8526 5.46211 8.85569 5.93124 7.89788 6.86951C6.99871 7.71004 6.3732 8.62876 5.98226 9.62566C5.57176 10.6421 5.37629 11.7172 5.37629 12.8705C5.37629 14.6884 5.80633 16.6627 6.66641 18.6956C7.54603 20.7676 8.7775 22.9178 10.3413 25.0679C11.9051 27.2181 13.6839 29.3097 15.6386 31.284C17.5933 33.2191 19.7044 35.0175 21.8741 36.6008C23.9852 38.145 26.155 39.396 28.3052 40.2952C31.6477 41.7222 34.7753 42.0545 37.3555 40.9794C38.3524 40.5689 39.232 39.9434 40.0335 39.0442C40.4831 38.5555 40.8349 38.0277 41.1281 37.4022C41.3627 36.9135 41.48 36.4053 41.48 35.8971C41.48 35.5843 41.4213 35.2716 41.2649 34.9197C41.2063 34.8025 41.089 34.5874 40.7176 34.3333L34.228 29.7202C33.837 29.4465 33.4852 29.251 33.1529 29.1142C32.7228 28.9383 32.5469 28.7624 31.8823 29.1729C31.4913 29.3683 31.1395 29.6615 30.7486 30.0525L29.263 31.5185C28.5006 32.2613 27.3278 32.4372 26.4286 32.1049L25.9008 31.8704C25.0994 31.4403 24.1611 30.7757 23.1251 29.8961C22.1869 29.0947 21.1704 28.1564 19.939 26.9445C18.9811 25.9671 18.0233 24.9311 17.0264 23.7778C16.1077 22.7027 15.4431 21.784 15.0326 21.0217L14.798 20.4353C14.6808 19.9857 14.6417 19.7316 14.6417 19.4579C14.6417 18.7542 14.8958 18.1287 15.3845 17.64L16.8505 16.1153C17.2414 15.7244 17.5346 15.353 17.7301 15.0207C17.8865 14.7666 17.9451 14.5516 17.9451 14.3561C17.9451 14.1997 17.8865 13.9651 17.7888 13.7306C17.6519 13.4178 17.4369 13.066 17.1633 12.6946L12.6283 6.28309C12.4328 6.00943 12.1983 5.81396 11.9051 5.67713C11.5923 5.5403 11.26 5.46211 10.9277 5.46211ZM27.2692 29.427L26.9564 30.7562L27.4842 29.3879C27.3864 29.3683 27.3082 29.3879 27.2692 29.427Z" fill="white" fill-opacity="0.61"/>
<path d="M36.1629 19.1449C35.3615 19.1449 34.6969 18.4803 34.6969 17.6789C34.6969 16.9752 33.9932 15.5092 32.8203 14.2581C31.6671 13.0267 30.3965 12.3034 29.3214 12.3034C28.52 12.3034 27.8553 11.6388 27.8553 10.8374C27.8553 10.0359 28.52 9.37134 29.3214 9.37134C31.2175 9.37134 33.2113 10.3878 34.951 12.2448C36.5734 13.9845 37.6289 16.1151 37.6289 17.6789C37.6289 18.4803 36.9643 19.1449 36.1629 19.1449Z" fill="white"/>
<path d="M43.0044 19.1451C42.203 19.1451 41.5384 18.4805 41.5384 17.6791C41.5384 10.9353 36.0652 5.46211 29.3214 5.46211C28.52 5.46211 27.8553 4.7975 27.8553 3.99607C27.8553 3.19463 28.52 2.53003 29.3214 2.53003C37.668 2.53003 44.4705 9.33245 44.4705 17.6791C44.4705 18.4805 43.8059 19.1451 43.0044 19.1451Z" fill="white"/>
</svg>
