<svg width="16" height="16" viewBox="0 0 16 16" fill="none" xmlns="http://www.w3.org/2000/svg">
<g clip-path="url(#clip0_1170_4878)">
<path d="M15.9995 4.6665V11.333C15.9965 13.909 13.9085 15.997 11.3325 15.999H4.6655C2.09 15.9955 0.003 13.9085 0 11.333V4.666C0.003 2.0905 2.09 0.0035 4.665 0H11.332C13.9085 0.0025 15.996 2.09 15.999 4.666V4.6665H15.9995ZM7.3325 14.667H8.6665V11.9995C8.667 11.632 8.965 11.334 9.3325 11.3335H11.4985L11.8875 10H9.332C8.964 9.9995 8.666 9.701 8.666 9.333V7.3335C8.666 6.598 9.264 5.9995 10 5.9995H11.9995V4.668H9.333C8.2285 4.6685 7.3335 5.5635 7.3325 6.6675V9.3345C7.3325 9.703 7.034 10.0015 6.6655 10.0015H5.334V11.335H6.6675C7.036 11.335 7.3345 11.6335 7.3345 12.002L7.3325 14.667ZM14.666 4.6665C14.664 2.826 13.1725 1.3345 11.3325 1.3325H4.6655C2.8255 1.335 1.3345 2.826 1.3325 4.666V11.333C1.3345 13.173 2.8255 14.6645 4.665 14.667H5.9995V12.6655H4.6655C4.2975 12.6655 3.999 12.3675 3.9985 11.9995V9.333C3.9985 8.9645 4.297 8.666 4.6655 8.666H5.9995V6.6675C6.0015 4.8275 7.4925 3.3365 9.332 3.3345H12.665C13.0335 3.3345 13.332 3.633 13.332 4.0015V6.6675C13.332 7.036 13.0335 7.3345 12.665 7.3345H9.9985V8.668H12.3325C12.8845 8.669 13.332 9.117 13.332 9.6695C13.332 9.784 13.313 9.894 13.2775 9.996L13.2795 9.989L12.6385 12.188C12.555 12.4675 12.3005 12.6675 11.999 12.668H9.9985V14.6685H11.3325C13.1725 14.666 14.6635 13.175 14.6655 11.335L14.666 4.6665Z" fill="#525252"/>
</g>
<defs>
<clipPath id="clip0_1170_4878">
<rect width="16" height="16" fill="white"/>
</clipPath>
</defs>
</svg>
