<svg width="13" height="14" viewBox="0 0 13 14" fill="none" xmlns="http://www.w3.org/2000/svg">
<path d="M9.48827 7.28759H7.76878C6.47916 7.28759 5.82658 6.55733 5.82658 5.11233V3.62591C5.82658 3.09763 5.88873 2.34147 6.43773 1.92713C6.89868 1.58531 7.56161 1.55941 8.54048 1.84427C9.82491 2.21717 10.897 3.28926 11.2699 4.5737C11.5548 5.54738 11.5289 6.2155 11.187 6.67127C10.7727 7.22544 10.0165 7.28759 9.48827 7.28759ZM7.39588 2.42434C7.18353 2.42434 7.0178 2.46577 6.90903 2.54864C6.70705 2.69883 6.60864 3.05102 6.60864 3.62591V5.11751C6.60864 6.27765 7.05405 6.51589 7.77396 6.51589H9.49345C10.0632 6.51589 10.4153 6.41749 10.5707 6.2155C10.752 5.97726 10.7365 5.50077 10.5345 4.80158C10.2341 3.78128 9.35361 2.89564 8.33331 2.60043C7.95005 2.48131 7.6393 2.42434 7.39588 2.42434Z" fill="white"/>
<path d="M5.73336 12.4667C5.45886 12.4667 5.17918 12.4459 4.89951 12.3993C2.78122 12.0575 1.05655 10.338 0.714727 8.21973C0.274496 5.49548 2.03024 2.9266 4.71824 2.37761C4.93058 2.33617 5.13257 2.47083 5.17918 2.678C5.22062 2.89035 5.08596 3.09233 4.87879 3.13895C2.60513 3.60507 1.11352 5.78033 1.4916 8.09543C1.78164 9.88742 3.23699 11.3428 5.02899 11.6328C7.35444 12.0057 9.52452 10.5089 9.98547 8.22491C10.0269 8.01256 10.2341 7.8779 10.4412 7.91933C10.6536 7.96077 10.7882 8.16793 10.7468 8.3751C10.2548 10.7938 8.14168 12.4667 5.73336 12.4667Z" fill="white"/>
</svg>
