<svg xmlns="http://www.w3.org/2000/svg" width="1440" height="388" fill="none"><path stroke="#D2D6D6" stroke-miterlimit="10" stroke-width=".265" d="M1776.65 304.376c-109.96 38.266-212 58.812-260.65 53.547-134.91-14.57-210.71-202.16-256.18-209.72-55.27-9.198-79.8 191.984-143.06 222.457-61.43 29.584-175.684-60.306-262.248-22.041-100.847 44.563-266.822 179.14-349.87 212.015C402.67 600.98 350.397 168.056 279.528 167.718c-82.456-.392-185.02 476.366-213.282 569.441"/><path stroke="#D2D6D6" stroke-miterlimit="10" stroke-width=".269" d="M1774.61 297.386c-109.27 38.301-210.46 58.972-259.26 54.169-135.35-13.306-210.94-197.605-256.24-206.429-55.15-10.834-79.21 183.214-143.03 213.563-61.59 29.352-174.472-57.478-259.584-18.341-65.699 30.206-157.678 98.749-236.66 150.303-41.974 27.361-80.658 50.202-109.757 61.054-51.415 19.195-91.121-76.691-125.779-176.739-34.842-100.777-65.29-205.201-100.357-203.618-28.609 1.298-59.691 60.146-89.424 139.291C139.262 456.62 84.292 669.436 65.287 729.92" opacity=".98"/><path stroke="#D2D6D6" stroke-miterlimit="10" stroke-width=".269" d="M1912.91 221.055c-125.92 44.522-242.3 68.642-299.05 63.603-157.47-13.959-244.84-224.1-297.21-235.809-63.82-14.476-91.16 202.521-165.81 237.606-71.61 33.805-200.928-63.418-297.944-16.995-75.878 36.303-180.429 116.923-270.549 175.633-48.129 31.244-93.011 56.954-127.158 68.952-60.333 21.208-107.798-88.323-148.083-201.261C266.702 199 231.891 83.191 191.749 87.053c-32.679 3.16-67.964 71.327-102.467 161.384C25.348 415.356-45.175 652.425-68.09 722.822" opacity=".95"/><path stroke="#D3D7D7" stroke-miterlimit="10" stroke-width=".272" d="M1910.51 212.685c-125.19 44.596-240.66 68.877-297.64 64.372-158.06-12.481-245.27-218.844-297.44-232.152-63.76-16.243-90.53 192.475-165.86 227.441-71.84 33.581-199.621-60.115-295.059-12.709-75.639 37.59-178.119 119.279-266.823 176.914-47.612 30.771-92.544 55.672-127.139 67.08-61.08 20.169-109.973-87.704-150.401-197.477-40.451-110.641-74.761-221.138-114.383-215.228C163.589 95.72 128.9 163.75 94.471 252.135c-64.068 164.412-141.2 391.73-164.96 462.384" opacity=".93"/><path stroke="#D3D7D7" stroke-miterlimit="10" stroke-width=".272" d="M1908.12 205.892c-124.32 44.547-238.77 68.913-295.88 64.934-158.47-10.966-245.39-213.004-297.33-227.743-63.6-18.079-89.76 181.857-165.71 216.591-71.99 33.23-198.11-56.606-291.808-8.39-75.309 38.775-175.595 121.252-262.776 177.631-47.039 30.2-91.945 54.236-126.945 64.996-61.731 19.048-112.04-86.785-152.514-193.07-40.451-107.152-74.219-212.016-113.295-204.08-31.636 6.432-65.688 74.108-100.002 160.501C37.736 418.65-45.914 635.53-70.488 706.215" opacity=".91"/><path stroke="#D3D7D7" stroke-miterlimit="10" stroke-width=".276" d="M1905.72 197.608c-123.59 44.618-237.14 69.144-294.47 65.7-159.06-9.489-245.8-207.824-297.58-224.079-63.53-19.947-89.23 171.664-165.77 206.421-72.32 32.84-196.83-53.26-288.901-4.105-75.095 40.08-173.165 123.766-259.048 178.883-46.427 29.807-91.479 52.952-126.904 63.121-62.48 18.008-114.242-86.162-154.836-189.279-40.476-104.026-73.743-203.595-112.321-193.591-31.11 8.066-64.59 75.621-98.83 160.298C42.802 419.871-47.444 626.973-72.886 697.912" opacity=".88"/><path stroke="#D3D7D7" stroke-miterlimit="10" stroke-width=".276" d="M1903.32 189.349c-122.7 44.703-235.24 69.366-292.7 66.456-159.46-8.029-245.92-202.63-297.44-220.38-63.37-21.835-88.48 161.56-165.64 196.233-72.47 32.567-195.285-49.863-285.664.185-74.763 41.422-170.616 126.123-255 180.134-45.853 29.348-90.9 51.659-126.706 61.235-63.152 16.965-116.54-85.423-156.967-185.459-40.734-100.778-73.151-195.117-111.208-183.064-30.569 9.679-63.412 77.106-97.535 160.073C50.147 421.12-46.606 618.425-72.886 689.608" opacity=".86"/><path stroke="#D3D7D7" stroke-miterlimit="10" stroke-width=".279" d="M1900.92 181.121c-121.99 44.764-233.62 69.582-291.29 67.207-160.07-6.545-246.33-197.41-297.69-216.653-63.28-23.724-87.87 151.428-165.69 185.992-72.72 32.292-193.977-46.436-282.75 4.48-74.523 42.761-168.276 128.489-251.264 181.367-45.312 28.865-90.41 50.38-126.664 59.341-63.9 15.898-118.791-84.758-159.289-181.615-40.807-97.6-72.674-186.652-110.256-172.488-30.041 11.315-62.336 78.604-96.361 159.831-64.47 153.824-167.825 341.302-194.95 412.722" opacity=".84"/><path stroke="#D4D7D7" stroke-miterlimit="10" stroke-width=".283" d="M1898.52 172.94c-121.11 44.843-231.7 69.794-289.52 67.956-160.47-5.061-246.44-192.176-297.58-212.913-63.15-25.613-87.13 141.301-165.54 175.754-72.89 32.036-192.413-42.983-279.497 8.779-74.217 44.119-165.732 130.829-247.224 182.591-44.715 28.401-89.832 49.076-126.49 57.442-64.549 14.851-120.875-84.067-161.42-177.758-40.829-94.415-72.084-178.171-109.145-161.916-29.478 12.91-61.16 80.101-95.07 159.582C62.509 423.714-47.323 601.348-75.285 673.001" opacity=".81"/><path stroke="#D4D8D8" stroke-miterlimit="10" stroke-width=".283" d="M1896.12 164.792c-120.37 44.898-230.08 70.002-288.1 68.7-161.07-3.575-246.85-186.925-297.83-209.136-63.07-27.5-86.5 131.139-165.59 165.478-73.13 31.757-191.088-39.484-276.588 13.079-73.977 45.496-163.389 133.184-243.483 183.805-44.173 27.913-89.342 47.769-126.449 55.538-65.299 13.781-123.129-83.39-163.745-173.888-40.924-91.199-71.582-169.672-108.191-151.324-28.951 14.525-60.082 81.571-93.894 159.32C67.568 425.065-48.875 592.837-77.683 664.697" opacity=".79"/><path stroke="#D4D8D8" stroke-miterlimit="10" stroke-width=".286" d="M1893.73 156.711c-119.51 44.963-228.18 70.214-286.33 69.429-161.47-2.087-246.96-181.632-297.7-205.333-62.91-29.404-85.76 120.943-165.45 155.183-73.29 31.47-189.522-35.955-273.361 17.378-73.648 46.864-160.852 135.49-239.453 184.979-43.602 27.441-88.767 46.451-126.255 53.621-65.971 12.729-125.213-82.674-165.852-169.977-40.948-87.985-71.019-161.154-107.085-140.698-28.388 16.097-58.933 83.047-92.63 159.047C74.852 426.43-48.062 584.299-77.683 656.394" opacity=".77"/><path stroke="#D4D8D8" stroke-miterlimit="10" stroke-width=".286" d="M1891.33 148.707c-118.79 45.01-226.56 70.408-284.91 70.16-162.09-.62-247.4-176.34-297.95-201.531-62.83-31.288-85.12 110.767-165.5 144.866-73.53 31.205-188.17-32.404-270.447 21.678-73.408 48.274-158.506 137.818-235.709 186.155-43.058 26.969-88.299 45.154-126.212 51.705-66.722 11.676-127.469-81.98-168.181-166.089-41.019-84.749-70.516-152.656-106.105-130.069-27.861 17.69-57.855 84.522-91.453 158.753C79.919 427.837-49.565 575.802-80.081 648.09" opacity=".74"/><path stroke="#D5D8D8" stroke-miterlimit="10" stroke-width=".29" d="M1888.93 140.334c-117.91 44.916-224.64 70.35-283.15 70.639-162.48.865-247.5-170.46-297.83-197.028-62.68-33.075-84.41 100.213-165.36 134.091-73.69 30.83-186.579-28.729-267.194 25.887-73.079 49.509-155.992 139.631-231.677 186.668-42.464 26.382-87.7 43.681-126.016 49.613-67.369 10.565-129.548-80.978-170.305-161.605-41.065-81.225-69.951-143.647-105.022-118.995-27.298 19.194-56.704 85.673-90.164 157.898C87.19 427.915-48.755 565.465-80.081 637.711" opacity=".72"/><path stroke="#D5D8D8" stroke-miterlimit="10" stroke-width=".293" d="M1886.53 132.476c-117.18 44.946-223.02 70.517-281.73 71.341-163.08 2.347-247.91-165.143-298.08-193.144-62.6-34.96-83.77 90.035-165.41 123.759-73.93 30.534-185.2-25.138-264.298 30.163-72.815 50.937-153.644 141.877-227.929 187.749-41.944 25.901-87.231 42.351-125.974 47.684-68.12 9.512-131.806-80.235-172.636-157.649-41.137-77.99-69.471-135.124-104.041-108.358-26.793 20.753-55.649 87.111-88.985 157.545C92.243 429.346-50.304 556.976-82.48 629.407" opacity=".7"/><path stroke="#D5D9D9" stroke-miterlimit="10" stroke-width=".293" d="M1884.13 124.734c-116.3 44.984-221.13 70.666-279.96 72.024-163.48 3.827-248.03-159.77-297.95-189.239-62.44-36.835-83.03 79.844-165.26 113.428-74.07 30.25-183.595-21.504-261.056 34.428-72.462 52.351-151.109 144.11-223.903 188.806-41.349 25.394-86.655 41.033-125.801 45.746-68.789 8.437-133.881-79.474-174.757-153.659-41.159-74.72-68.931-126.598-102.958-97.706-26.255 22.287-54.5 88.528-87.698 157.157C99.457 430.816-49.471 548.503-82.479 621.104" opacity=".67"/><path stroke="#D5D9D9" stroke-miterlimit="10" stroke-width=".297" d="M1881.74 115.435c-115.59 45.143-219.49 71.037-278.56 72.935-164.1 5.323-248.44-154.908-298.21-185.919-62.36-38.83-82.39 69.882-165.31 103.41-74.31 30.062-182.192-17.93-258.137 38.83-72.199 53.954-148.785 146.779-220.154 190.458-40.806 24.986-86.165 39.821-125.762 43.947-69.543 7.408-136.123-78.96-177.071-150.142-41.233-71.677-68.453-118.43-101.98-87.337-25.75 23.892-53.444 90.205-86.52 157.261C104.523 431.73-51.019 539.823-84.878 612.8" opacity=".65"/><path stroke="#D5D9D9" stroke-miterlimit="10" stroke-width=".297" d="M1879.34 107.925c-114.72 45.137-217.6 71.168-276.8 73.58-164.5 6.78-248.55-149.469-298.09-181.91-62.21-40.706-81.64 59.648-165.17 93.016-74.47 29.762-180.559-14.242-254.894 43.076-71.823 55.36-146.252 148.912-216.132 191.411-40.236 24.465-85.59 38.46-125.565 41.984-70.188 6.327-138.196-78.156-179.19-146.068-41.278-68.365-67.913-109.834-100.874-76.609-25.213 25.433-52.321 91.573-85.235 156.785C111.752 433.305-50.187 531.37-84.878 604.496" opacity=".63"/><path stroke="#D6D9D9" stroke-miterlimit="10" stroke-width=".301" d="M1876.94 100.554c-113.98 45.142-215.96 71.264-275.37 74.208-165.1 8.254-248.96-144.011-298.33-177.852-62.1-42.549-80.99 49.424-165.21 82.606-74.71 29.436-179.133-10.56-251.995 47.304-71.535 56.793-143.922 151.009-212.374 192.323-39.691 23.961-85.12 37.114-125.523 40.017-70.941 5.269-140.436-77.337-181.527-141.973-41.35-65.048-67.479-101.256-99.915-65.912-24.73 26.945-51.262 92.898-84.053 156.279-65.844 127.358-234.354 215.419-269.92 288.639" opacity=".6"/><path stroke="#D6D9D9" stroke-miterlimit="10" stroke-width=".301" d="M1874.54 91.707c-113.1 45.261-214.07 71.572-273.6 75.037-165.49 9.753-249.05-139-298.22-174.344-61.94-44.54-80.25 39.343-165.06 72.46-74.86 29.218-177.465-6.867-248.767 51.674-71.136 58.396-141.396 153.558-208.362 193.808-39.099 23.507-84.524 35.859-125.329 38.168-71.611 4.227-142.51-76.748-183.647-138.299-41.35-61.922-66.942-92.956-98.813-55.407-24.218 28.539-50.165 94.523-82.771 156.26C123.976 436.043-50.902 514.337-87.276 587.889" opacity=".58"/><path stroke="#D6DADA" stroke-miterlimit="10" stroke-width=".304" d="M1872.14 83.037c-112.36 45.385-212.45 71.856-272.17 75.862-166.12 11.253-249.46-133.904-298.47-170.761-61.84-46.52-79.62 29.217-165.12 62.234-75.09 29.01-175.982-3.16-245.834 56.039-70.823 60.004-139.063 156.059-204.599 195.229-38.577 23.043-84.054 34.586-125.287 36.3-72.364 3.159-144.753-76.13-185.986-134.565-41.422-58.744-66.508-84.596-97.853-44.848-23.735 30.126-49.129 96.097-81.589 156.163-66.223 122.547-247.68 191.016-284.906 264.896" opacity=".56"/><path stroke="#D6DADA" stroke-miterlimit="10" stroke-width=".308" d="M1869.74 76.298c-111.51 45.311-210.53 71.859-270.4 76.39-166.51 12.708-249.56-128.292-298.35-166.519-61.68-48.297-78.88 18.99-164.99 51.8-75.23 28.669-174.276.576-242.613 60.181-70.374 61.397-136.531 157.951-200.579 195.889-37.983 22.511-83.454 33.18-125.11 34.292-73.004 2.101-146.814-75.196-188.091-130.331-41.443-55.363-65.991-75.938-96.747-34.108-23.221 31.595-48.03 97.317-80.303 155.459C136.163 438.994-51.596 497.404-89.674 571.282" opacity=".53"/><path stroke="#D6DADA" stroke-miterlimit="10" stroke-width=".308" d="M1867.35 68.12c-110.78 45.39-208.92 72.072-269 77.141-167.11 14.175-249.95-123.087-298.58-162.749-61.58-50.231-78.25 8.84-165.05 41.517-75.47 28.412-172.776 4.326-239.686 64.489-70.04 62.985-134.2 160.296-196.819 197.115-37.463 22.025-82.986 31.895-125.072 32.389-73.763 1.03-149.067-74.503-190.417-126.465-41.493-52.148-65.583-67.498-95.766-23.509-22.738 33.131-46.994 98.795-79.121 155.207-66.65 117.091-260.98 165.612-299.912 239.724" opacity=".51"/><path stroke="#D7DADA" stroke-miterlimit="10" stroke-width=".311" d="M1864.95 58.562c-109.9 45.575-207.01 72.506-267.24 78.107-167.51 15.709-250.06-118.184-298.47-159.439-61.4-52.312-77.49-1.302-164.9 31.334-75.61 28.234-171.034 8.102-236.458 68.993-69.57 64.755-131.7 163.076-192.811 198.875-36.871 21.599-82.413 30.672-124.876 30.569-74.428-.021-151.107-73.994-192.527-122.938-41.514-49.047-65.091-59.237-94.687-12.939-22.25 34.786-45.922 100.554-77.84 155.388C148.295 441.348-52.335 480.123-92.073 554.675" opacity=".49"/><path stroke="#D7DADA" stroke-miterlimit="10" stroke-width=".311" d="M1862.55 51.101c-109.16 45.59-205.38 72.617-265.82 78.749-168.1 17.179-250.45-112.797-298.72-155.454-61.29-54.18-76.85-11.48-164.95 20.978-75.85 27.936-169.509 11.872-233.527 73.215-69.186 66.279-129.363 165.201-189.041 199.826-36.348 21.102-81.919 29.32-124.835 28.618-75.185-1.094-153.334-73.175-194.874-118.888-41.564-45.734-64.658-50.69-93.703-2.292-21.79 36.319-44.907 101.916-76.655 154.918-67.124 112.115-274.28 140.919-314.896 215.6" opacity=".47"/><path stroke="#D7DADA" stroke-miterlimit="10" stroke-width=".315" d="M1860.15 42.342c-108.31 45.7-203.47 72.913-264.06 79.592-168.52 18.693-250.53-107.673-298.61-151.863-61.11-56.183-76.11-21.671-164.8 10.69-75.99 27.73-167.736 15.675-230.315 77.628-68.669 67.97-126.865 167.744-185.037 201.284-35.78 20.638-81.346 28.061-124.637 26.738-75.825-2.151-155.37-72.541-196.978-115.138-41.562-42.536-64.167-42.267-92.625 8.375-21.302 37.924-43.86 103.516-75.375 154.84-67.318 109.658-280.765 128.6-322.184 203.58" opacity=".44"/><path stroke="#D7DBDB" stroke-miterlimit="10" stroke-width=".318" d="M1857.75 35.785c-107.57 45.627-201.84 72.884-262.63 80.079C1426 135.987 1344.2 13.766 1296.28-31.717c-61-57.936-75.44-31.772-164.85.35-76.22 27.38-166.156 19.443-227.374 81.688-68.236 69.399-124.523 169.518-181.26 201.847-35.232 20.082-80.873 26.659-124.618 24.741-76.582-3.196-157.597-71.584-199.326-110.882-41.587-39.173-63.779-33.668-91.638 18.969-20.841 39.359-42.843 104.655-74.188 154.075C165.383 445.809-54.571 454.778-96.869 529.764" opacity=".42"/><path stroke="#D7DBDB" stroke-miterlimit="10" stroke-width=".318" d="M1855.35 26.338c-106.7 45.8-199.96 73.28-260.88 81.035-169.52 21.649-251.03-97.102-298.73-144.185-60.82-60.026-74.71-42.037-164.7-9.966-76.37 27.211-164.374 23.303-224.157 86.225-67.698 71.234-122.031 172.285-177.264 203.591-34.666 19.644-80.279 25.413-124.424 22.89-77.246-4.28-159.61-71.048-201.432-107.275-41.562-36.02-63.29-25.289-90.54 29.672-20.354 41.025-41.798 106.407-72.91 154.234C172.426 446.98-53.744 446.071-96.869 521.461" opacity=".4"/><path stroke="#D8DBDB" stroke-miterlimit="10" stroke-width=".322" d="M1852.96 19.188c-105.96 45.786-198.31 73.345-259.44 81.623-170.12 23.1-251.42-91.676-298.98-140.126-60.72-61.846-74.05-52.123-164.76-20.271-76.61 26.898-162.744 27.084-221.236 90.375-67.218 72.747-119.687 174.29-173.485 204.409-34.142 19.115-79.808 24.07-124.382 20.932-78.006-5.326-161.82-70.187-203.763-103.175-41.587-32.698-62.902-16.762-89.576 40.254-19.892 42.505-40.828 107.654-71.722 153.668-68.237 101.605-300.902 90.809-344.884 166.28" opacity=".37"/><path stroke="#D8DBDB" stroke-miterlimit="10" stroke-width=".322" d="M1850.56 10.877c-105.09 45.853-196.44 73.572-257.69 82.391-170.54 24.6-251.51-86.44-298.85-136.382-60.52-63.803-73.32-62.315-164.62-30.59-76.75 26.665-160.916 30.92-218.022 94.722-66.633 74.44-117.199 176.66-169.496 205.679-33.553 18.631-79.238 22.762-124.189 19.023-78.646-6.403-163.808-69.503-205.868-99.307-41.539-29.454-62.415-8.283-88.48 50.934-19.407 44.077-39.809 109.16-70.447 153.444-68.528 99.039-307.38 78.343-352.166 154.063" opacity=".35"/><path stroke="#D8DBDB" stroke-miterlimit="10" stroke-width=".325" d="M1848.16 3.116c-104.37 45.897-194.78 73.75-256.26 83.082-171.13 26.076-251.89-81.142-299.1-132.51-60.41-65.698-72.64-72.45-164.66-40.902-76.99 26.407-159.284 34.749-215.073 98.98C846.964 87.85 798.193 190.63 747.359 218.522c-33.028 18.128-78.74 21.431-124.145 17.096-79.404-7.454-165.992-68.733-208.219-95.367-41.54-26.201-62.025.206-87.513 61.547-18.944 45.629-38.837 110.543-69.257 153.075-68.9 96.358-314.202 65.78-359.891 141.677" opacity=".33"/><path stroke="#D8DCDC" stroke-miterlimit="10" stroke-width=".325" d="M1845.76-5.895c-103.5 46.034-192.9 74.088-254.51 83.977-171.53 27.621-251.97-76.032-298.98-128.935-60.21-67.778-71.92-82.777-164.52-51.33-77.12 26.214-157.404 38.668-211.879 103.488-65.469 77.915-112.385 181.506-161.719 208.32-32.462 17.668-78.17 20.172-123.949 15.206-80.065-8.524-167.974-68.129-210.317-91.632-41.466-23.007-61.56 8.71-86.416 72.329-18.482 47.275-37.841 112.198-67.981 153.08-69.237 93.887-320.665 53.378-367.155 129.638" opacity=".3"/><path stroke="#D8DCDC" stroke-miterlimit="10" stroke-width=".329" d="M1843.36-12.817c-102.75 45.996-191.26 74.113-253.07 84.518-172.13 29.026-252.34-70.583-299.23-124.836-60.11-69.551-71.25-92.755-164.57-61.52-77.36 25.888-155.721 42.424-208.925 107.557-64.892 79.418-110.058 183.363-157.927 209.024-31.936 17.114-77.671 18.807-123.928 13.253-80.801-9.579-170.113-67.259-212.671-87.511-41.444-19.716-61.17 17.197-85.448 82.804-18.019 48.742-36.892 113.379-66.789 152.438-69.658 91.021-327.519 40.731-374.866 117.033" opacity=".28"/><path stroke="#D9DCDC" stroke-miterlimit="10" stroke-width=".332" d="M1840.96-21.106c-101.89 46.065-189.37 74.344-251.33 85.292-172.55 30.53-252.43-65.358-299.11-121.09-59.9-71.514-70.51-102.974-164.42-71.885-77.48 25.655-153.829 46.291-205.722 111.918-64.191 81.16-107.577 185.745-153.948 210.306-31.373 16.628-77.105 17.496-123.737 11.34-81.464-10.638-172.075-66.597-214.75-83.639-41.349-16.505-60.708 25.697-84.356 93.513-17.558 50.32-35.922 114.872-65.517 152.22-70.02 88.41-333.962 28.217-382.134 104.77" opacity=".26"/><path stroke="#D9DCDC" stroke-miterlimit="10" stroke-width=".332" d="M1838.57-29.575c-101.18 45.974-187.74 74.284-249.91 85.731C1415.51 88.07 1335.84-3.716 1289.3-60.726c-59.77-73.193-69.85-112.764-164.48-81.923-77.72 25.325-152.097 49.99-202.765 115.832-63.567 82.602-105.249 187.379-150.156 210.767-30.847 16.06-76.631 16.121-123.695 9.389-82.227-11.674-174.221-65.699-217.113-79.452-41.303-13.239-60.318 34.074-83.364 103.808-17.095 51.719-34.996 115.894-64.326 151.41-70.513 85.422-340.831 15.647-389.864 92.155" opacity=".23"/><path stroke="#D9DCDC" stroke-miterlimit="10" stroke-width=".336" d="M1836.17-37.458c-100.3 46.004-185.84 74.45-248.15 86.43-173.54 33.385-252.89-54.608-299.24-113.023-59.57-75.087-69.12-122.861-164.34-92.192-77.86 25.07-150.179 53.805-199.582 120.082-62.814 84.288-102.786 189.592-146.17 211.862-30.282 15.561-76.036 14.82-123.495 7.472-82.883-12.72-176.121-65.001-219.197-75.519-41.181-10.066-59.852 42.545-82.291 114.38-16.633 53.249-34.025 117.262-63.05 151.08-70.941 82.683-347.265 3.15-397.118 79.842" opacity=".21"/><path stroke="#D9DDDD" stroke-miterlimit="10" stroke-width=".336" d="M1833.77-46.82c-99.56 46.193-184.2 74.863-246.7 87.392-174.14 34.965-253.26-49.496-299.49-109.519-59.47-77.216-68.45-133.338-164.41-102.749-78.09 24.893-148.416 57.814-196.618 124.71-62.142 86.237-100.456 192.371-142.374 213.61-29.779 15.088-75.562 13.54-123.455 5.573-83.623-13.829-178.271-64.523-221.565-71.809-41.136-6.914-59.463 51.148-81.299 125.33-16.194 54.966-33.146 118.972-61.858 151.192-71.484 80.189-354.124-9.35-404.862 67.743" opacity=".19"/><path stroke="#DADDDD" stroke-miterlimit="10" stroke-width=".339" d="M1831.37-54.414c-98.69 46.195-182.31 74.985-244.96 88.039-174.53 36.4-253.34-44.174-299.36-105.61-59.26-79.089-67.69-143.37-164.25-112.972-78.24 24.644-146.459 61.6-193.422 128.893-61.346 87.874-98.002 194.433-138.402 214.581-29.216 14.56-74.995 12.209-123.261 3.651-84.283-14.87-180.199-63.849-223.656-67.83-41.039-3.773-59 59.58-80.231 135.865-15.71 56.486-32.201 120.252-60.588 150.753-71.985 77.357-360.565-21.86-412.101 55.393" opacity=".16"/><path stroke="#DADDDD" stroke-miterlimit="10" stroke-width=".343" d="M1828.97-61.93c-97.96 46.213-180.66 75.098-243.51 88.675-175.17 37.847-253.6-38.96-299.62-101.695-58.94-81.031-67.04-153.346-164.3-123.143-78.45 24.373-144.648 65.373-190.478 133.053-60.6 89.498-95.666 196.488-134.596 215.525-28.688 14.031-74.494 10.899-123.24 1.731-85.044-15.905-182.417-61.788-226.018-63.848-40.946-1.957-58.609 68.01-79.236 146.341-15.269 57.976-31.32 121.495-59.391 150.297-72.574 74.479-367.443-34.324-419.84 43.04" opacity=".14"/><path stroke="#DADDDD" stroke-miterlimit="10" stroke-width=".343" d="M1826.57-71.01c-97.1 46.359-178.8 75.455-241.78 89.6-175.55 39.422-253.67-33.742-299.5-98.088-58.76-83.117-66.23-163.694-164.16-133.752-78.55 24.306-142.665 69.385-187.282 137.655-59.735 91.44-93.215 199.171-130.629 217.158-28.15 13.546-73.928 9.602-123.048-.186-85.704-17.016-184.322-62.736-228.086-60.092-40.921 2.478-58.147 76.674-78.145 157.313-14.81 59.679-30.401 123.137-58.124 150.334-73.146 71.801-373.88-46.938-427.075 30.81" opacity=".12"/><path stroke="#DADDDD" stroke-miterlimit="10" stroke-width=".346" d="M1824.18-78.532c-96.36 46.321-177.14 75.478-240.35 90.129-176.16 40.82-254.06-28.395-299.73-94.064-58.66-84.833-65.58-173.499-164.21-143.745-78.79 23.985-140.856 73.068-184.316 141.643-58.941 92.972-90.901 200.965-126.821 217.841-27.645 12.982-73.427 8.263-123.004-2.101-86.444-18.03-186.521-62.023-230.454-56.047-40.922 5.563-57.78 84.977-77.174 167.584-14.344 61.116-29.542 124.21-56.926 149.699-73.831 68.761-380.748-59.323-434.853 18.463" opacity=".09"/><path stroke="#DADDDD" stroke-miterlimit="10" stroke-width=".346" d="M1821.78-85.67c-95.49 46.354-175.27 75.65-238.61 90.812-176.55 42.295-254.17-23.115-299.62-90.235-58.48-86.713-64.85-183.602-164.06-154.018-78.93 23.712-138.829 76.885-181.124 145.9-58.029 94.686-88.453 203.154-122.857 218.955-27.083 12.444-72.862 6.964-122.81-4.017-87.102-19.098-188.516-61.434-232.541-52.122-40.897 8.652-57.459 93.428-76.083 178.183-14.004 62.65-28.647 125.506-55.659 149.363-74.449 65.822-387.173-71.818-442.073 6.159" opacity=".07"/><path stroke="#DBDEDE" stroke-miterlimit="10" stroke-width=".35" d="M1819.38-94.438c-94.74 46.527-173.6 76.037-237.16 91.753-177.18 43.862-254.57-17.884-299.87-86.631-58.4-88.84-64.21-194.222-164.12-164.691-79.16 23.521-136.963 80.91-178.169 150.545-57.163 96.647-86.135 205.869-119.043 220.635-26.578 11.936-72.384 5.658-122.765-5.948-87.866-20.196-190.763-61.002-234.909-48.323-40.945 11.771-57.02 102.16-75.11 189.246-13.514 64.369-27.811 127.106-54.459 149.409-75.229 62.986-394.067-84.504-449.831-6.154" opacity=".05"/><path stroke="#DBDEDE" stroke-miterlimit="10" stroke-width=".35" d="M1816.98-101.669c-93.9 46.514-171.73 76.135-235.42 92.369-177.57 45.297-254.64-12.583-299.76-82.695-58.21-90.636-63.47-204.168-163.96-174.815-79.33 23.226-134.939 84.654-174.982 154.662-56.203 98.268-83.688 207.84-115.083 221.537-26.04 11.365-71.793 4.331-122.593-7.859-88.521-21.246-192.823-60.356-236.989-44.349-40.967 14.852-56.534 110.541-74.02 199.651-13.008 65.862-26.94 128.239-53.193 148.949-75.916 59.839-400.454-96.928-457.036-18.441" opacity=".02"/></svg>