<svg width="1540" height="249" viewBox="0 0 1440 249" fill="none" xmlns="http://www.w3.org/2000/svg">
<path opacity="0.1" d="M1505.36 200.684C1375.06 185.506 1247.07 165.995 1127.14 140.618C1073.08 129.18 1020.99 116.443 965.098 106.196C937.447 101.128 908.856 96.6881 879.538 93.5242C850.22 90.3604 819.774 88.7324 789.661 88.2276C722.72 87.1047 665.857 96.0905 611.197 104.919C559.271 113.303 506.038 121.01 450.59 127.317C422.979 130.458 394.858 133.247 366.245 135.649C359.232 136.238 352.173 136.803 345.1 137.346C338.618 137.842 331.838 138.682 324.839 138.534C310.113 138.22 295.293 139.772 281.132 140.474C219.326 143.549 155.901 144.943 91.647 144.684C-35.4971 144.171 -165.935 137.178 -293.724 123.972C-309.812 122.311 -325.859 120.54 -341.868 118.69C-345.261 118.296 -347.945 116.644 -351.276 116.259C-223.651 131.041 -92.8438 139.681 35.6105 141.778C99.6553 142.827 163.043 142.255 225.046 140.043C240.702 139.483 256.272 138.821 271.724 138.048C285.869 137.346 300.704 135.794 315.43 136.108C322.381 136.258 329.257 135.415 335.692 134.92C343.275 134.34 350.814 133.731 358.338 133.095C372.206 131.923 385.954 130.661 399.582 129.314C455.968 123.736 510.118 116.629 562.662 108.635C617.391 100.308 670.079 90.0298 732.28 86.6024C790.273 83.4061 854.819 87.9188 913.501 96.7119C971.338 105.376 1024.72 117.725 1078.15 129.57C1195.15 155.516 1318.83 176.29 1447.02 192.355C1463.3 194.392 1479.62 196.356 1495.97 198.26C1499.37 198.654 1502.05 200.301 1505.38 200.691L1505.36 200.684Z" fill="#F1F1F1"/>
<path opacity="0.1" d="M1490.16 47.6403C1359.86 62.819 1231.87 82.3298 1111.94 107.707C1057.87 119.145 1005.79 131.882 949.894 142.129C922.243 147.196 893.651 151.637 864.333 154.8C835.015 157.964 804.569 159.592 774.456 160.097C707.515 161.22 650.653 152.234 595.993 143.406C544.066 135.022 490.833 127.315 435.386 121.007C407.774 117.866 379.653 115.078 351.041 112.675C344.028 112.087 336.969 111.522 329.896 110.979C323.414 110.482 316.633 109.643 309.634 109.791C294.908 110.105 280.089 108.552 265.928 107.851C204.122 104.775 140.696 103.381 76.4424 103.641C-50.7016 104.154 -181.139 111.147 -308.929 124.353C-325.017 126.014 -341.064 127.785 -357.072 129.635C-360.465 130.029 -363.15 131.681 -366.48 132.065C-238.855 117.284 -108.048 108.644 20.4059 106.546C84.4507 105.498 147.839 106.07 209.842 108.282C225.498 108.841 241.067 109.504 256.519 110.276C270.664 110.979 285.5 112.531 300.226 112.216C307.177 112.067 314.053 112.91 320.487 113.405C328.071 113.985 335.609 114.594 343.134 115.229C357.001 116.401 370.749 117.663 384.378 119.01C440.763 124.589 494.914 131.696 547.457 139.69C602.186 148.017 654.874 158.295 717.075 161.722C775.068 164.919 839.615 160.406 898.297 151.613C956.133 142.949 1009.52 130.6 1062.95 118.754C1179.94 92.8086 1303.62 72.0345 1431.82 55.9698C1448.1 53.9324 1464.41 51.9692 1480.77 50.0648C1484.16 49.6705 1486.85 48.0241 1490.18 47.6341L1490.16 47.6403Z" fill="#F1F1F1"/>
</svg>
