<svg width="203" height="381" viewBox="0 0 203 381" fill="none" xmlns="http://www.w3.org/2000/svg">
<path d="M14.9321 85.2517L11.1499 88.9764L7.5723 85.3436L3.78218 89.0762L7.35981 92.709L3.57763 96.4337L7.16279 100.074L10.945 96.3494L14.5226 99.9822L18.3127 96.2497L14.7351 92.6169L18.5173 88.8922L14.9321 85.2517ZM11.142 88.9843L14.7196 92.6171L10.9374 96.3418L7.35981 92.709L11.142 88.9843Z" fill="#464646" fill-opacity="0.12"/>
<path d="M162.036 143.488L158.254 147.213L154.676 143.58L150.878 147.321L154.456 150.953L150.673 154.678L154.259 158.319L158.041 154.594L161.618 158.227L165.408 154.494L161.831 150.861L165.613 147.137L162.028 143.496L162.036 143.488ZM158.253 147.228L161.831 150.861L158.049 154.586L154.471 150.953L158.253 147.228Z" fill="#464646" fill-opacity="0.12"/>
<path d="M152.684 278.833L148.902 282.558L145.324 278.925L141.534 282.658L145.112 286.291L141.322 290.023L144.907 293.664L148.689 289.939L152.267 293.572L156.057 289.839L152.479 286.206L156.261 282.482L152.676 278.841L152.684 278.833ZM148.902 282.574L152.479 286.206L148.697 289.931L145.119 286.298L148.902 282.574Z" fill="#464646" fill-opacity="0.12"/>
<path d="M137.721 38.2873L132.865 40.4308L134.924 45.0954L139.78 42.9519L137.721 38.2873Z" fill="#464646" fill-opacity="0.12"/>
<path d="M195.741 0.000638779L143.129 23.223L145.188 27.8875L197.799 4.66516L195.741 0.000638779Z" fill="#464646" fill-opacity="0.12"/>
<path d="M57.4964 352.969L4.88477 376.192L6.94367 380.856L59.5553 357.634L57.4964 352.969Z" fill="#464646" fill-opacity="0.12"/>
<path d="M110.638 287.211L105.721 289.382L107.806 294.105L112.723 291.934L110.638 287.211Z" fill="#464646" fill-opacity="0.12"/>
<path d="M57.7966 134.944L52.8789 137.114L54.9638 141.838L59.8814 139.667L57.7966 134.944Z" fill="#464646" fill-opacity="0.12"/>
</svg>
