<svg width="26" height="26" viewBox="0 0 26 26" fill="none" xmlns="http://www.w3.org/2000/svg">
<path d="M6.03416 24.5918C3.49916 24.5918 1.35416 22.4468 1.35416 19.9118V13.2384C1.3 10.0751 2.47 7.09595 4.65833 4.86428C6.84666 2.64345 9.7825 1.40845 12.9458 1.40845C19.4025 1.40845 24.6458 6.66261 24.6458 13.1084V19.7818C24.6458 22.3601 22.5442 24.4618 19.9658 24.4618C17.4308 24.4618 15.2858 22.3168 15.2858 19.7818V16.7376C15.2858 15.1668 16.5208 13.9318 18.0917 13.9318C19.6625 13.9318 20.8975 15.1668 20.8975 16.7376V20.0201C20.8975 20.4643 20.5292 20.8326 20.085 20.8326C19.6408 20.8326 19.2725 20.4643 19.2725 20.0201V16.7376C19.2725 16.0009 18.6767 15.5568 18.0917 15.5568C17.355 15.5568 16.9108 16.1526 16.9108 16.7376V19.7818C16.9108 21.4393 18.3083 22.8368 19.9658 22.8368C21.6233 22.8368 23.0208 21.4393 23.0208 19.7818V13.1084C23.0208 7.55095 18.5033 3.03345 12.9458 3.03345C10.2267 3.03345 7.7025 4.08428 5.8175 6.00178C3.9325 7.91928 2.925 10.4868 2.97916 13.2168V19.9118C2.97916 21.5693 4.37666 22.9668 6.03416 22.9668C7.69166 22.9668 9.08916 21.5693 9.08916 19.9118V16.8676C9.08916 16.1309 8.49333 15.6868 7.90833 15.6868C7.17166 15.6868 6.7275 16.2826 6.7275 16.8676V20.0309C6.7275 20.4751 6.35916 20.8434 5.915 20.8434C5.47083 20.8434 5.1025 20.4751 5.1025 20.0309V16.8676C5.1025 15.2968 6.3375 14.0618 7.90833 14.0618C9.47916 14.0618 10.7142 15.2968 10.7142 16.8676V19.9118C10.7142 22.4468 8.56916 24.5918 6.03416 24.5918Z" fill="white"/>
</svg>
