<svg xmlns="http://www.w3.org/2000/svg" width="12" height="11" fill="none"><path fill="#3F4ACF" d="M8.642 10.19H3.589a2.168 2.168 0 0 1-2.164-2.168V4.789c0-.594.366-1.34.837-1.706L4.614 1.25c.707-.55 1.837-.576 2.57-.061l2.697 1.89c.519.361.925 1.138.925 1.77v3.177a2.167 2.167 0 0 1-2.164 2.165ZM5.016 1.765 2.664 3.598c-.31.244-.585.798-.585 1.19v3.234c0 .833.676 1.514 1.51 1.514h5.053a1.51 1.51 0 0 0 1.51-1.51V4.85c0-.42-.302-1-.646-1.235l-2.697-1.89c-.497-.348-1.318-.331-1.793.04Z"/><path fill="#3F4ACF" d="M6.115 8.445a.33.33 0 0 1-.327-.327v-1.31a.33.33 0 0 1 .327-.326.33.33 0 0 1 .327.327v1.309a.33.33 0 0 1-.327.327Z"/></svg>