<svg width="20" height="20" viewBox="0 0 20 20" fill="none" xmlns="http://www.w3.org/2000/svg">
<g clip-path="url(#clip0_1170_6022)">
<path d="M17.8109 13.9008C17.3797 14.8586 17.1719 15.2867 16.6172 16.132C15.8406 17.3133 14.7453 18.7883 13.3922 18.7976C12.1875 18.8086 11.8765 18.0117 10.2406 18.0258C8.60623 18.0336 8.26561 18.8133 7.05936 18.8008C5.70467 18.7883 4.66874 17.4601 3.89217 16.2804C1.7203 12.9726 1.49061 9.09451 2.8328 7.03201C3.7828 5.56951 5.28436 4.71013 6.6953 4.71013C8.1328 4.71013 9.03592 5.49919 10.2234 5.49919C11.3765 5.49919 12.0781 4.70857 13.7406 4.70857C14.9969 4.70857 16.325 5.39294 17.275 6.57419C14.1687 8.27732 14.6734 12.7133 17.8109 13.9008ZM12.4781 3.38826C13.0828 2.61169 13.5422 1.51638 13.375 0.400757C12.389 0.467944 11.2359 1.09763 10.5625 1.91326C9.95155 2.65701 9.4453 3.76013 9.64217 4.82732C10.7187 4.86169 11.8328 4.21951 12.4781 3.38826Z" fill="white"/>
</g>
<defs>
<clipPath id="clip0_1170_6022">
<rect width="20" height="20" fill="white" transform="translate(0 0.000732422)"/>
</clipPath>
</defs>
</svg>
