<svg width="14" height="14" viewBox="0 0 14 14" fill="none" xmlns="http://www.w3.org/2000/svg">
<path d="M6.92999 8.74407C6.81915 8.74407 6.70832 8.70324 6.62082 8.61574L5.12749 7.12241C4.95832 6.95324 4.95832 6.67324 5.12749 6.50407C5.29665 6.33491 5.57665 6.33491 5.74582 6.50407L6.92999 7.68824L8.11415 6.50407C8.28332 6.33491 8.56332 6.33491 8.73249 6.50407C8.90165 6.67324 8.90165 6.95324 8.73249 7.12241L7.23915 8.61574C7.15165 8.70324 7.04082 8.74407 6.92999 8.74407Z" fill="white"/>
<path d="M6.92999 8.70325C6.69083 8.70325 6.49249 8.50492 6.49249 8.26575V2.33325C6.49249 2.09409 6.69083 1.89575 6.92999 1.89575C7.16916 1.89575 7.36749 2.09409 7.36749 2.33325V8.26575C7.36749 8.50492 7.16916 8.70325 6.92999 8.70325Z" fill="white"/>
<path d="M6.99998 12.2091C3.99581 12.2091 1.89581 10.1091 1.89581 7.10498C1.89581 6.86581 2.09415 6.66748 2.33331 6.66748C2.57248 6.66748 2.77081 6.86581 2.77081 7.10498C2.77081 9.59581 4.50915 11.3341 6.99998 11.3341C9.49081 11.3341 11.2291 9.59581 11.2291 7.10498C11.2291 6.86581 11.4275 6.66748 11.6666 6.66748C11.9058 6.66748 12.1041 6.86581 12.1041 7.10498C12.1041 10.1091 10.0041 12.2091 6.99998 12.2091Z" fill="white"/>
</svg>
