<svg width="16" height="16" viewBox="0 0 16 16" fill="none" xmlns="http://www.w3.org/2000/svg">
<g clip-path="url(#clip0_1170_4874)">
<path d="M15.9995 4.66795V11.3335C15.9965 13.9095 13.909 15.9965 11.3335 15.999H4.66749C2.09149 15.997 0.00298828 13.9095 0.000488281 11.334V4.66895C0.00298828 2.09245 2.09099 0.00395313 4.66749 0.00195312H11.3335C13.909 0.00545313 15.996 2.09245 15.999 4.66795V4.66845L15.9995 4.66795ZM14.6655 4.66795C14.6635 2.82795 13.173 1.33695 11.3335 1.33445H4.66749C2.82699 1.33645 1.33549 2.82795 1.33399 4.66845V11.3345C1.33649 13.174 2.82749 14.665 4.66699 14.667H11.333C13.1725 14.6645 14.663 13.174 14.6655 11.335V4.66795ZM11.666 7.99995C11.6635 10.0235 10.0235 11.6635 8.00049 11.666C5.97699 11.6635 4.33699 10.0235 4.33449 8.00045C4.33699 5.97695 5.97699 4.33695 7.99999 4.33445C10.0235 4.33695 11.6635 5.97695 11.666 7.99995ZM10.3325 7.99995C10.331 6.71245 9.28749 5.66845 7.99999 5.66695C6.71249 5.66845 5.66849 6.71195 5.66699 7.99945C5.66799 9.28745 6.71149 10.3315 7.99949 10.333C9.28749 10.3315 10.3315 9.28745 10.3325 7.99945V7.99995ZM13.3325 3.66745C13.3325 4.21945 12.884 4.66795 12.333 4.66795C11.798 4.64495 11.3735 4.20595 11.3735 3.66745C11.3735 3.12895 11.7985 2.68995 12.331 2.66695H12.333C12.884 2.66695 13.3325 3.11645 13.3325 3.66745Z" fill="#525252"/>
</g>
<defs>
<clipPath id="clip0_1170_4874">
<rect width="16" height="16" fill="white"/>
</clipPath>
</defs>
</svg>
