<svg width="17" height="17" viewBox="0 0 17 17" fill="none" xmlns="http://www.w3.org/2000/svg">
<g clip-path="url(#clip0_1170_4876)">
<path d="M16.9995 4.95816V12.0413C16.9963 14.7783 14.7778 16.9968 12.0408 16.9989H4.95709C2.22063 16.9952 0.0031875 14.7778 0 12.0413V4.95762C0.0031875 2.22116 2.22062 0.00371875 4.95656 0H12.0402C14.7778 0.00265625 16.9958 2.22062 16.9989 4.95762V4.95816H16.9995ZM15.5826 4.95816C15.5805 3.00262 13.9958 1.41791 12.0408 1.41578H4.95709C3.00209 1.41844 1.41791 3.00262 1.41578 4.95762V12.0413C1.41791 13.9963 3.00209 15.581 4.95656 15.5837H12.0402C13.9958 15.5816 15.5805 13.9968 15.5826 12.0418V4.95816ZM6.37394 7.43697V12.7495C6.35959 13.1298 6.04828 13.4327 5.66578 13.4327C5.28328 13.4327 4.97144 13.1298 4.95762 12.7505V12.7495V7.43697C4.95762 7.04544 5.27478 6.72828 5.66631 6.72828C6.05784 6.72828 6.375 7.04544 6.375 7.43697H6.37394ZM12.7495 9.5625V12.7495C12.7351 13.1298 12.4238 13.4327 12.0413 13.4327C11.6588 13.4327 11.347 13.1298 11.3332 12.7505V12.7495V9.5625C11.3332 9.17097 11.016 8.85381 10.6245 8.85381H9.91578C9.52478 8.85434 9.20816 9.1715 9.20816 9.5625V12.7495C9.19381 13.1298 8.8825 13.4327 8.5 13.4327C8.1175 13.4327 7.80566 13.1298 7.79184 12.7505V12.7495V7.43697C7.79184 7.04544 8.109 6.72828 8.50053 6.72828C8.89206 6.72828 9.20922 7.04544 9.20922 7.43697V7.56128C9.43022 7.48319 9.66875 7.43697 9.91684 7.43697H10.6255C11.7985 7.43856 12.7489 8.3895 12.75 9.5625H12.7495ZM6.72934 4.60381C6.72934 5.19084 6.25334 5.66684 5.66631 5.66684C5.07928 5.66684 4.60328 5.19084 4.60328 4.60381C4.60328 4.01678 5.07928 3.54078 5.66631 3.54078C6.25334 3.54078 6.72934 4.01678 6.72934 4.60381Z" fill="#525252"/>
</g>
<defs>
<clipPath id="clip0_1170_4876">
<rect width="17" height="17" fill="white"/>
</clipPath>
</defs>
</svg>
