<svg width="11" height="11" viewBox="0 0 11 11" fill="none" xmlns="http://www.w3.org/2000/svg">
<path fill-rule="evenodd" clip-rule="evenodd" d="M1.60419 4.72883C1.60419 2.62054 3.36597 0.916504 5.497 0.916504C7.63407 0.916504 9.39585 2.62054 9.39585 4.72883C9.39585 5.7912 9.00948 6.77749 8.37354 7.61349C7.67197 8.53561 6.80728 9.33907 5.83392 9.96969C5.61117 10.1154 5.41014 10.1264 5.16562 9.96969C4.18678 9.33907 3.32206 8.53561 2.6265 7.61349C1.99009 6.77749 1.60419 5.7912 1.60419 4.72883ZM4.21404 4.84754C4.21404 5.55378 4.79038 6.10928 5.497 6.10928C6.20411 6.10928 6.78601 5.55378 6.78601 4.84754C6.78601 4.14675 6.20411 3.56422 5.497 3.56422C4.79038 3.56422 4.21404 4.14675 4.21404 4.84754Z" fill="#525252"/>
</svg>
