<svg width="10" height="10" viewBox="0 0 10 10" fill="none" xmlns="http://www.w3.org/2000/svg">
<path fill-rule="evenodd" clip-rule="evenodd" d="M7.05808 1.25C7.61683 1.25 8.15433 1.47083 8.54975 1.86708C8.94558 2.2625 9.16683 2.79583 9.16683 3.35417V6.64583C9.16683 7.80833 8.221 8.75 7.05808 8.75H2.94183C1.77891 8.75 0.833496 7.80833 0.833496 6.64583V3.35417C0.833496 2.19167 1.77475 1.25 2.94183 1.25H7.05808ZM7.721 3.975L7.75433 3.94167C7.85391 3.82083 7.85391 3.64583 7.74975 3.525C7.69183 3.46292 7.61225 3.425 7.52933 3.41667C7.44183 3.41208 7.3585 3.44167 7.29558 3.5L5.41683 5C5.17516 5.20042 4.82891 5.20042 4.5835 5L2.7085 3.5C2.57891 3.40417 2.39975 3.41667 2.29183 3.52917C2.17933 3.64167 2.16683 3.82083 2.26225 3.94583L2.31683 4L4.21266 5.47917C4.446 5.6625 4.72891 5.7625 5.02516 5.7625C5.32058 5.7625 5.6085 5.6625 5.84141 5.47917L7.721 3.975Z" fill="#525252"/>
</svg>
