<svg width="11" height="11" viewBox="0 0 11 11" fill="none" xmlns="http://www.w3.org/2000/svg">
<path d="M3.95628 10.002C3.83413 10.002 3.70761 9.97149 3.59419 9.91041C3.34553 9.77954 3.19285 9.51777 3.19285 9.23857V8.61913C1.87537 8.48389 1.0116 7.51538 1.0116 6.12811V3.51063C1.0116 2.00993 2.01933 1.0022 3.52003 1.0022H7.88253C9.38323 1.0022 10.391 2.00993 10.391 3.51063V6.12811C10.391 7.62881 9.38323 8.63655 7.88253 8.63655H6.23786L4.37943 9.87553C4.25292 9.95842 4.10461 10.002 3.95628 10.002ZM3.52003 1.65221C2.39451 1.65221 1.66597 2.38074 1.66597 3.50627V6.12379C1.66597 7.24932 2.39451 7.97786 3.52003 7.97786C3.6989 7.97786 3.84722 8.12618 3.84722 8.30504V9.23426C3.84722 9.29097 3.88212 9.31713 3.90394 9.33022C3.92575 9.34331 3.96938 9.35639 4.01737 9.32585L5.95868 8.03457C6.01103 7.99967 6.07646 7.97786 6.1419 7.97786H7.8869C9.01243 7.97786 9.74096 7.24932 9.74096 6.12379V3.50627C9.74096 2.38074 9.01243 1.65221 7.8869 1.65221H3.52003Z" fill="#757575"/>
<path d="M5.70119 5.54792C5.52233 5.54792 5.374 5.3996 5.374 5.22073V5.12914C5.374 4.62309 5.74481 4.37442 5.88441 4.27844C6.04582 4.16938 6.09817 4.09522 6.09817 3.9818C6.09817 3.76367 5.91932 3.58479 5.70119 3.58479C5.48307 3.58479 5.30422 3.76367 5.30422 3.9818C5.30422 4.16066 5.15589 4.30898 4.97703 4.30898C4.79817 4.30898 4.64984 4.16066 4.64984 3.9818C4.64984 3.40158 5.12098 2.93042 5.70119 2.93042C6.2814 2.93042 6.75254 3.40158 6.75254 3.9818C6.75254 4.47912 6.38611 4.72778 6.25087 4.81939C6.08073 4.93282 6.02838 5.00699 6.02838 5.12914V5.22073C6.02838 5.40396 5.88005 5.54792 5.70119 5.54792Z" fill="#757575"/>
<path d="M5.70127 6.63411C5.51805 6.63411 5.37408 6.48579 5.37408 6.30692C5.37408 6.12806 5.52241 5.97974 5.70127 5.97974C5.88013 5.97974 6.02846 6.12806 6.02846 6.30692C6.02846 6.48579 5.8845 6.63411 5.70127 6.63411Z" fill="#757575"/>
</svg>
