<svg width="11" height="11" viewBox="0 0 11 11" fill="none" xmlns="http://www.w3.org/2000/svg">
<path d="M7.52378 8.9083C7.41545 8.9083 7.30295 8.90413 7.18211 8.89163C6.96545 8.87497 6.71961 8.8333 6.46545 8.7708L5.76545 8.60413C3.84461 8.14997 3.21545 7.1333 3.66545 5.21663L4.07378 3.4708C4.16545 3.07497 4.27378 2.75413 4.40711 2.48747C5.12378 1.0083 6.49461 1.14163 7.46961 1.3708L8.16545 1.5333C9.14045 1.76247 9.75711 2.12497 10.1029 2.67913C10.4446 3.2333 10.4988 3.9458 10.2696 4.9208L9.86128 6.66247C9.50294 8.18747 8.75711 8.9083 7.52378 8.9083ZM6.40295 1.85413C5.70711 1.85413 5.26545 2.14163 4.96961 2.7583C4.86128 2.9833 4.76545 3.26247 4.68211 3.61247L4.27378 5.3583C3.90295 6.9333 4.33211 7.6208 5.90711 7.9958L6.60711 8.16247C6.83211 8.21663 7.04461 8.24997 7.23628 8.26663C8.36961 8.37913 8.93211 7.8833 9.24878 6.5208L9.65711 4.77913C9.84461 3.97497 9.81961 3.41247 9.56961 3.0083C9.31961 2.60413 8.82795 2.32913 8.01961 2.14163L7.32378 1.97913C6.97795 1.8958 6.66961 1.85413 6.40295 1.85413Z" fill="#757575"/>
<path d="M4.40711 9.77095C3.33628 9.77095 2.65295 9.12928 2.21545 7.77511L1.68211 6.12928C1.09045 4.29595 1.61961 3.26261 3.44461 2.67095L4.10295 2.45845C4.31961 2.39178 4.48211 2.34595 4.62795 2.32095C4.74878 2.29595 4.86545 2.34178 4.93628 2.43761C5.00711 2.53345 5.01961 2.65845 4.96961 2.76678C4.86128 2.98761 4.76545 3.26678 4.68628 3.61678L4.27795 5.36261C3.90711 6.93761 4.33628 7.62511 5.91128 8.00011L6.61128 8.16678C6.83628 8.22095 7.04878 8.25428 7.24045 8.27095C7.37378 8.28345 7.48211 8.37511 7.51961 8.50428C7.55295 8.63345 7.50295 8.76678 7.39461 8.84178C7.11961 9.02928 6.77378 9.18761 6.33628 9.32928L5.67795 9.54595C5.19878 9.69594 4.78211 9.77095 4.40711 9.77095ZM4.17795 3.09178L3.64045 3.26678C2.15295 3.74595 1.79878 4.44595 2.27795 5.93761L2.81128 7.58345C3.29461 9.07095 3.99461 9.42928 5.48211 8.95011L6.14045 8.73345C6.16545 8.72511 6.18628 8.71678 6.21128 8.70845L5.76961 8.60428C3.84878 8.15011 3.21961 7.13345 3.66961 5.21678L4.07795 3.47095C4.10711 3.33761 4.14045 3.20845 4.17795 3.09178Z" fill="#757575"/>
<path d="M8.22379 4.87907C8.19879 4.87907 8.17379 4.87491 8.14462 4.87074L6.12379 4.35824C5.95712 4.31657 5.85712 4.14574 5.89879 3.97907C5.94045 3.81241 6.11129 3.71241 6.27795 3.75407L8.29879 4.26657C8.46545 4.30824 8.56545 4.47907 8.52379 4.64574C8.49045 4.78324 8.36129 4.87907 8.22379 4.87907Z" fill="#757575"/>
<path d="M7.00295 6.28746C6.97795 6.28746 6.95295 6.28329 6.92378 6.27912L5.71128 5.97079C5.54462 5.92912 5.44462 5.75829 5.48628 5.59162C5.52795 5.42496 5.69878 5.32496 5.86545 5.36662L7.07795 5.67496C7.24462 5.71662 7.34462 5.88746 7.30295 6.05412C7.26962 6.19579 7.14462 6.28746 7.00295 6.28746Z" fill="#757575"/>
</svg>
