<svg xmlns="http://www.w3.org/2000/svg" width="105" height="39" fill="none"><g fill="#D9D9D9" clip-path="url(#a)"><path d="M45.944 11.922c-.024-.053-.03-.083.131-.071-.048.023-.084.047-.131.07.024.048.065.113.024.178.405-.33.888-.697 1.39-.993.018-.124.036-.248.047-.366-1.252.715-2.53 1.377-3.34 2.364.74-.384 1.169-.792 1.873-1.182h.006ZM47.244 10.179c.042-.024.084-.048.132-.071-.156-.012-.156.018-.132.07ZM25.457 23.888c-.752.478-1.289 1.128-1.844 1.772 1.36-1.01 2.822-1.92 3.789-2.824-.639.36-1.289.709-1.945 1.052ZM20.72 28.568c1.062-.349 1.754-.975 2.374-1.66-.74.478-1.48.957-2.22 1.418-.047.077-.107.16-.154.236v.006ZM21.525 27.487c.895-.461 1.504-1.14 2.088-1.826-.77.567-1.497 1.17-2.088 1.826ZM35.157 10.628c.46-.544.758-.84.949-.97.03-.165.072-.366.137-.632l-.107.054a45.91 45.91 0 0 1-1.623 1.37 4.585 4.585 0 0 0-.513.721 25.86 25.86 0 0 0 1.157-.543ZM36.106 9.659c-.239 1.394.734-.514 0 0ZM35.08 16.874s-.06.03-.09.047l-.232.195c.107-.083.214-.16.322-.242ZM26.555 18.286c.5-.301.984-.626 1.45-.975-1.003.632-2.011 1.265-2.757 1.968.131-.065.304-.053.436-.118.173-.302.477-.674.87-.875Z"/><path d="M38.75 13.984a70.753 70.753 0 0 0-3.753 2.937c-2.727 1.454-5.262 3.026-7.279 4.94-1.736 1.755-5.482 3.487-6.866 5.903.244-.082.465-.177.674-.283a7.163 7.163 0 0 0-.657.845c-3.299 2.08-6.592 4.018-10.118 5.844-.525.272-.781.727-1.306.998a179.5 179.5 0 0 0-1.546.863c.006.018.024.036.048.047a99.17 99.17 0 0 0-6.21 3.918c-1.003.627-2.094 1.087-3.138 1.625-.394.201-.567-.13-.877-.077-1.265.125-2.226.195-3.49.639 0 0-.09-.166-.132-.249a1.46 1.46 0 0 1-.477.243c.066-1.23 1.319-2.305-.537-2.169a5.58 5.58 0 0 0 .191-.2c.012 0 .018-.007.024-.013 0 0 0-.006-.006-.006.28-.325.412-.596.483-.98-.227.118-.46.236-.686.354a.744.744 0 0 0-.137-.378c.006-.03.012-.065.024-.1.101-.054.185-.095.185-.095a.937.937 0 0 0-.03-.23c.411-.668 1.253-1.348.889-1.602-.233-.106-.59.278-1.032.638a.414.414 0 0 0-.144-.03c.609-.419-.31-.584.036-.868.525-.272 1.003-.626 1.522-.898 2.13-1.105 3.877-2.116 5.834-3.451.084-.06.173-.112.263-.171a19.324 19.324 0 0 1 2.929-1.596 5.045 5.045 0 0 1-.113.266c.823-.36 1.634-.756 2.368-1.3 1.784-1.353 3.568-2.7 5.614-3.87a76.538 76.538 0 0 0 6.246-3.906c-.811.656-1.628 1.3-2.53 1.837-.423.207-.84.42-1.234.65.435-.189.841-.407 1.235-.65 1.628-.803 3.335-1.56 4.158-2.984.173 0 .215.083.346.018.913-.473 1.873-.863 2.482-1.607-.042-.083.346-.29.131-.384.74-.49 1.653-.964 2.35-1.537.31-.23.567-.567.8-.94 2.566-1.902 5.101-3.793 7.899-5.784.71-.467 1.575-.922 2.333-1.318a58.867 58.867 0 0 1-3.06 2.506c-1.17.525-2.256 1.093-2.924 1.985a15.19 15.19 0 0 1-.507.55c1.163-.84 2.315-1.679 3.424-2.535.692-.314 1.408-.61 2.082-.958-.012.012-.018.024-.03.042-.47.384-.948.756-1.437 1.134-1.038.467-2.01.97-2.685 1.702a3.533 3.533 0 0 0-.239.284c-.167.189-.334.372-.507.55.716-.515 1.432-1.035 2.13-1.555.436-.325.871-.65 1.295-.975.304-.136.614-.272.924-.414-.017.036-.041.077-.06.113-.22.218-.429 1.583.096 1.63 1.999-1.063 4.612-2.924 4.66-2.842.304.266-2.906 2.494-2.733 2.512.215-.065.424-.13.633-.207-.15.165-.293.325-.412.49-.346.284-.913.473-1.086.78-.65.975-1.784 1.354-2.649 2.228a81.387 81.387 0 0 0-1.736 2.074c.09.166-.346.29-.131.384-.74.384-1.593.828-1.647 1.477-.018.012-.03.03-.047.042a.578.578 0 0 0-.167.171c-1.271.55-1.886 1.46-2.828 2.358-.358.242-.734.473-1.134.68.263-.136.698-.255.913-.473.078-.065.15-.136.22-.207.931-.626 1.76-1.335 2.608-2.01.054-.088.131-.23.22-.348l.215-.088v-.125c.776-.709 1.748-1.323 2.387-1.967 1.3-1.04 2.917-1.696 4.42-2.417a76.274 76.274 0 0 0-1.932 1.578c.817-.609 1.58-1.188 2.314-1.767.126-.065.25-.124.376-.19l.788-.407c-.263.089-.52.19-.776.29a44.96 44.96 0 0 0 1.283-1.058c2.41-1.75 5.011-3.357 7.732-4.603 0 .13 0 .26-.018.396-1.253.715-2.53 1.376-3.341 2.363.74-.384 1.17-.792 1.873-1.182.024.048.066.113.024.178.406-.331.889-.698 1.39-.993-.054.301-.125.615-.197.922-.173.301-.567.508-.913.792-1.616 1.022-3.24 1.808-4.802 2.877-1.504.739-3.007 1.478-4.457 2.252 1.325-.987 2.53-1.92 3.663-2.89l.018-.018ZM-3.938 38.91c.113-.106.233-.219.346-.331-.03-.006-.06-.018-.095-.024-.126.065-.21.207-.257.36l.006-.005Zm3.096-1.507c-.972.32-2.052 1.123-3.126 1.85 0 .023.012.053.024.07.996-.419 2.07-1.234 3.102-1.92Zm4.505-.124-.036-.018c.006.012.018.024.024.036 0-.006.006-.012.012-.024v.006Zm14.509-10.92c-.823.957-2.13 1.637-3.347 2.482-.394.2-.609.738-1.128 1.01-.608.42-.912.792-1.39 1.147l.483-.036c-.96.39-1.216 1.164-2.219 1.472.042.082 0 .319-.131.384-.609.42-1.354.596-1.784 1.034-.608.42-1.259.762-1.694 1.2-.131.07-.257.454-.477.673-.299.2-.609.384-.913.573.024.018.053.03.071.047a3.97 3.97 0 0 0 .752-.466c.698-.574 1.521-1.218 2.261-1.708 1.873-1.182 3.526-2.47 5.179-3.752.346-.284.65-.656.996-.946 1.002-.945 2.482-1.607 2.953-2.6.09-.154.346-.29.394-.52l-.006.006Zm-.454-4.384c-1.187 1.069-2.63 2.02-3.967 2.629-1.044.544-3.782 2.6-2.732 3.333.328-2.494 8.62-4.52 6.7-5.962Zm10.089-7.192c-.478.414-.943.81-1.57 1.129.52-.378 1.045-.757 1.57-1.129Zm-3.765 6.293c1.39-1.465 3.174-2.5 4.695-3.71 1.176-.928 2.834-1.26 3.7-2.453-.043-.083-.09-.165-.132-.248l-.084.154c-.483.189-.924.248-1.348.378.018-.018.036-.036.054-.06l-.108.072c-.28.088-.548.218-.823.443-.12.112-.244.224-.364.337-1.557.992-3.174 1.997-4.373 3.291-.781.727-1.342 1.548-2.124 2.275.263-.136.698-.254.913-.473l-.006-.006Z"/><path d="M36.231 15.036a61.968 61.968 0 0 1 1.558-1.17c.387-.33.77-.673 1.145-1.022 1.861-1.537 4.39-2.653 6.539-4.024a1.528 1.528 0 0 0-.406-.75c-2.59.998-4.803 2.712-7.32 3.84-.012.018-.03.036-.042.06-.782 1.045-2.565 1.76-3.651 2.853-1.044 1.182-2.261 2.027-3.347 3.12 1.885-.98 3.585-2.091 5.53-2.907h-.006ZM23.088 26.907c.483-.313.972-.632 1.462-.957a48.754 48.754 0 0 0 3.633-2.842 73.678 73.678 0 0 1-2.864 1.578c-.93.596-1.533 1.442-2.237 2.221h.006Z"/><path d="M29.114 22.31c-.31.278-.62.544-.931.804 1.39-.804 2.75-1.637 4.104-2.476 2.142-1.542 4.302-3.043 6.39-4.686.239-.183.483-.354.728-.52-4.367 2.145-8.722 4.284-11.825 7.239-.053.059-.119.112-.179.171 1.713-.963 3.371-1.98 5.024-3.002a93.968 93.968 0 0 0-3.305 2.476l-.006-.006ZM35.736 15.42c.131-.06.257-.124.382-.183.131-.1.262-.207.388-.307-.09.035-.185.076-.275.112-.167.13-.334.254-.495.384v-.006ZM30.868 15.196l-.054.018c-.388.26-.787.52-1.187.78-.507.454-1.044.898-1.617 1.323 1.08-.68 2.148-1.359 2.864-2.115l-.006-.006ZM26.185 15.066c-.131.064-.394.2-.525.271-.054.095-.107.184-.155.272l.376-.177.304-.372v.005ZM19.186 20.42a383.88 383.88 0 0 0 6.104-4.456c.071-.112.143-.23.214-.355-1.473.698-2.851 1.549-3.931 2.7-.215.22-.477.674-.74.81-1.193.721-2.231 1.596-3.281 2.447.525-.36 1.05-.733 1.587-1.117.018-.012.03-.024.047-.03ZM67.647 8.459l.263-.136c-.012-.03-.03-.053-.048-.083-.083.077-.149.148-.215.219ZM67.922 9.6s.053-.03.083-.042c-.023-.018-.035-.042-.053-.06-.012.036-.018.072-.03.101ZM67.862 8.24c-.185-.295-.453-.544-.483-.922.15-.077.441-.23.585-.307.06-.242-.18-.331-.269-.502.15-.077.293-.154.25-.237-.017-.272-.256-.33-.566-.236-.131 1.264-1.563 2.44.483 2.198v.006ZM67.05 9.522c.257-.136.514-.266.77-.402-.023-.236-.017-.484-.196-.632-.323.349-.484.638-.58 1.034h.007ZM30.521 27.704c.848-.531 1.468-1.229 2.106-1.92-1.539 1.105-3.185 2.121-4.29 3.102a85.312 85.312 0 0 1 2.184-1.182ZM35.95 22.646c-1.18.414-1.974 1.1-2.684 1.832.835-.532 1.67-1.058 2.506-1.578.06-.082.125-.165.178-.254ZM35.014 23.805c-1.008.52-1.7 1.246-2.38 1.985.87-.626 1.7-1.282 2.38-1.985ZM19.622 35.416l.102-.053c.089-.071.178-.142.262-.213-.125.089-.239.177-.364.266ZM29.042 33.52c-.56.336-1.11.697-1.635 1.075 1.128-.703 2.267-1.407 3.12-2.169-.143.077-.34.07-.483.148-.203.319-.555.715-.996.945h-.006Z"/><path d="M15.464 38.578a83.91 83.91 0 0 0 4.26-3.221c3.06-1.637 5.924-3.386 8.226-5.46 1.993-1.89 6.187-3.87 7.822-6.43a6.789 6.789 0 0 0-.758.326c.286-.296.537-.591.758-.904 3.716-2.31 7.427-4.473 11.383-6.541.584-.308.895-.786 1.48-1.094.584-.325 1.163-.644 1.735-.963a.068.068 0 0 0-.047-.041 125.412 125.412 0 0 0 7.004-4.35c1.127-.697 2.35-1.223 3.52-1.837.44-.23.62.106.954.035 1.396-.195 2.452-.319 3.86-.839 0 0 .09.166.131.248.185-.135.37-.224.531-.277-.131 1.264-1.563 2.44.483 2.198-.077.077-.149.148-.215.219-.011 0-.017.011-.03.017 0 0 0 .006.007.006-.322.349-.484.638-.58 1.034.258-.136.514-.266.77-.402.013.142.042.278.132.379-.012.035-.018.065-.03.1l-.209.112c0 .083 0 .166.018.237-.483.709-1.444 1.447-1.056 1.69.25.094.662-.313 1.163-.715a.7.7 0 0 0 .156.023c-.686.467.31.585-.084.899-.585.307-1.127.697-1.712 1.004-2.386 1.247-4.355 2.382-6.569 3.853-.095.065-.197.13-.292.189a24.387 24.387 0 0 1-3.293 1.79c.042-.094.083-.189.137-.277-.925.413-1.831.862-2.66 1.46-2.023 1.482-4.046 2.966-6.343 4.271a95.64 95.64 0 0 0-7.045 4.344c.919-.721 1.85-1.419 2.863-2.021.478-.237.943-.479 1.39-.733a14.06 14.06 0 0 0-1.39.733c-1.825.91-3.734 1.778-4.713 3.285-.185.012-.232-.077-.375 0-1.027.538-2.1.987-2.798 1.779.041.083-.394.313-.162.402-.835.543-1.861 1.081-2.654 1.701-.352.255-.645.61-.925 1.005-2.912 2.092-5.781 4.166-8.949 6.358-.8.52-1.772 1.028-2.625 1.477a74.146 74.146 0 0 1 3.478-2.73c1.307-.602 2.524-1.24 3.305-2.192.191-.2.382-.396.579-.59a166.35 166.35 0 0 0-3.884 2.782c-.77.355-1.575.704-2.327 1.094.012-.012.024-.03.036-.042.537-.42 1.08-.827 1.629-1.24 1.163-.538 2.255-1.1 3.025-1.892.095-.1.19-.2.274-.307.19-.2.382-.396.579-.59a251.3 251.3 0 0 0-2.416 1.713c-.496.355-.985.715-1.468 1.07-.34.159-.686.313-1.032.472.024-.041.053-.077.071-.118.251-.236.55-1.649-.024-1.666-2.243 1.2-5.202 3.25-5.25 3.167-.322-.26 3.312-2.712 3.12-2.724-.238.077-.47.16-.703.242.167-.177.334-.348.477-.526.394-.313 1.026-.538 1.229-.857.758-1.034 2.022-1.483 3.019-2.428.602-.632 1.3-1.424 2.004-2.222-.09-.166.4-.313.161-.402.83-.431 1.784-.934 1.88-1.601.017-.018.035-.03.053-.047.06-.03.126-.101.197-.184 1.42-.632 2.136-1.595 3.216-2.57.405-.266.83-.52 1.277-.756-.293.153-.776.3-1.027.537-.083.071-.167.148-.25.219-1.056.691-1.993 1.465-2.96 2.198-.059.095-.154.248-.256.372-.077.036-.155.071-.238.1 0 .042 0 .09-.006.13-.883.769-1.987 1.454-2.715 2.146-1.474 1.134-3.287 1.897-4.97 2.718a97.567 97.567 0 0 0 2.202-1.726c-.925.668-1.796 1.3-2.625 1.939-.143.07-.28.142-.424.212l-.883.461c.293-.106.58-.218.865-.337-.495.385-.984.763-1.455 1.153-2.733 1.926-5.662 3.71-8.704 5.135 0-.13.017-.266.035-.408 1.408-.798 2.84-1.548 3.777-2.606-.83.431-1.325.88-2.112 1.312-.024-.047-.072-.112-.018-.177-.46.36-1.008.762-1.575 1.093.071-.313.167-.638.256-.957.203-.32.645-.55 1.038-.863 1.826-1.14 3.646-2.033 5.412-3.215 1.688-.839 3.37-1.678 4.999-2.547-1.497 1.082-2.87 2.104-4.158 3.168l.018.017ZM63.5 10.716c-.131.112-.268.237-.4.36a.63.63 0 0 1 .102.024c.143-.077.238-.224.298-.384Zm-3.472 1.708c1.086-.384 2.309-1.265 3.52-2.062a.126.126 0 0 0-.024-.071c-1.116.484-2.327 1.377-3.496 2.133Zm-4.946.366s.024.012.036.012c-.006-.012-.018-.024-.024-.035 0 .006-.012.017-.018.023h.006ZM38.63 24.774c.949-1.028 2.416-1.797 3.795-2.73.441-.23.704-.792 1.288-1.1.692-.466 1.038-.862 1.581-1.252l-.53.065c1.073-.455 1.39-1.259 2.505-1.63-.042-.084.012-.326.161-.403.686-.466 1.51-.68 2.01-1.152.687-.467 1.42-.85 1.922-1.324.149-.076.304-.478.554-.715.34-.218.687-.431 1.032-.638-.03-.012-.053-.03-.077-.041a5.012 5.012 0 0 0-.847.52c-.794.626-1.73 1.33-2.566 1.873-2.111 1.318-3.985 2.718-5.858 4.125-.394.313-.746.709-1.14 1.022-1.14 1.022-2.798 1.784-3.37 2.824-.102.16-.394.314-.454.556h-.006Zm.287 4.473c1.354-1.164 2.983-2.216 4.48-2.907 1.175-.615 4.278-2.872 3.162-3.57-.483 2.577-9.677 5.1-7.642 6.477Zm-11.413 7.918c.543-.449 1.074-.88 1.772-1.247-.59.42-1.181.834-1.772 1.247Zm4.439-6.66c-1.593 1.578-3.604 2.737-5.334 4.066-1.336 1.017-3.168 1.442-4.176 2.712.042.083.09.166.131.249l.102-.16c.542-.219 1.026-.301 1.497-.455-.018.018-.042.041-.066.06.042-.03.084-.054.126-.084.31-.106.614-.254.924-.496.138-.124.275-.248.418-.366 1.754-1.105 3.58-2.222 4.958-3.61.895-.787 1.55-1.661 2.446-2.447-.293.154-.776.301-1.027.538v-.006Z"/><path d="M18.273 37.366c-.578.431-1.163.862-1.766 1.282-.441.36-.877.733-1.306 1.11-2.118 1.68-4.946 2.961-7.368 4.48.054.284.179.538.412.75 2.893-1.164 5.399-3.043 8.215-4.337a.412.412 0 0 0 .047-.059c.907-1.11 2.9-1.944 4.147-3.126 1.199-1.264 2.577-2.198 3.818-3.38-2.118 1.105-4.039 2.34-6.205 3.274l.006.006ZM33.266 24.478c-.549.349-1.098.703-1.653 1.058a61.13 61.13 0 0 0-4.128 3.114 92.824 92.824 0 0 1 3.216-1.773c1.05-.662 1.748-1.566 2.559-2.399h.006Z"/><path d="M26.429 29.525c.358-.302.704-.591 1.056-.875a198.272 198.272 0 0 0-4.624 2.76c-2.422 1.696-4.868 3.356-7.236 5.152-.275.201-.543.39-.824.574 4.892-2.435 9.772-4.864 13.328-8.06.066-.06.137-.125.209-.184-1.927 1.076-3.794 2.21-5.656 3.35a118.099 118.099 0 0 0 3.747-2.717ZM18.834 36.947l-.43.212c-.148.113-.291.225-.44.337.1-.041.208-.089.31-.13.184-.142.375-.278.56-.42ZM24.162 36.923l.06-.018c.435-.29.889-.58 1.342-.863a25.25 25.25 0 0 1 1.838-1.442c-1.217.757-2.422 1.513-3.246 2.328l.006-.005ZM29.293 36.799c.149-.077.441-.23.584-.308.06-.094.126-.195.185-.29-.137.066-.28.137-.423.202l-.352.396h.006ZM37.228 30.93a516.584 516.584 0 0 0-6.915 4.9l-.25.372c1.646-.798 3.203-1.743 4.444-2.978.25-.237.555-.715.847-.87 1.349-.803 2.53-1.76 3.717-2.688-.59.402-1.187.81-1.796 1.23l-.053.035h.006ZM88.623 2.46l.198-.104c-.009-.022-.022-.04-.036-.062a2.765 2.765 0 0 0-.162.165ZM88.83 3.323s.041-.022.064-.031c-.018-.013-.028-.031-.041-.045-.01.027-.014.054-.023.076ZM88.785 2.294c-.14-.224-.343-.412-.366-.699.113-.058.335-.175.443-.233.045-.183-.136-.25-.203-.38.113-.058.221-.117.19-.18-.014-.205-.195-.25-.43-.178-.1.958-1.184 1.849.366 1.665v.005ZM88.17 3.265c.195-.103.39-.201.584-.304-.018-.18-.014-.367-.15-.48-.244.265-.366.484-.438.784h.005Z"/><path d="M35.022 33.178c.023.04.023.063-.108.058.04-.022.072-.04.108-.058-.018-.036-.054-.085-.013-.134-.348.273-.764.577-1.194.828-.022.098-.04.192-.054.286 1.067-.604 2.152-1.173 2.866-1.974-.628.327-1.003.667-1.6.994h-.005ZM33.879 34.583c-.036.023-.072.04-.108.063.13.005.13-.022.108-.063ZM52.493 23.041c.642-.403 1.112-.93 1.596-1.455-1.166.838-2.414 1.608-3.25 2.35a64.61 64.61 0 0 1 1.654-.895ZM56.606 19.209c-.895.313-1.496.833-2.034 1.388.633-.403 1.266-.802 1.899-1.196.045-.062.095-.125.135-.192ZM55.897 20.086c-.764.394-1.288.945-1.804 1.505.66-.475 1.288-.972 1.804-1.505ZM43.94 33.75c-.402.444-.664.681-.822.793-.027.13-.072.291-.136.497l.09-.045c.457-.385.923-.76 1.402-1.132.172-.193.335-.385.452-.582-.33.152-.66.304-.98.47h-.005ZM43.113 34.543c-.628.43.249-1.097 0 0ZM44.234 28.884l.077-.04c.068-.054.136-.108.2-.162-.096.068-.182.135-.277.202ZM51.372 27.447c-.425.255-.84.528-1.238.815.854-.533 1.718-1.066 2.364-1.643-.109.058-.258.053-.366.111a2.11 2.11 0 0 1-.755.717h-.005Z"/><path d="M41.084 31.28a63.619 63.619 0 0 0 3.227-2.44c2.32-1.241 4.489-2.566 6.234-4.138 1.51-1.433 4.687-2.932 5.926-4.871a5.114 5.114 0 0 0-.574.246 5.71 5.71 0 0 0 .574-.685c2.816-1.75 5.628-3.389 8.625-4.956.442-.233.677-.595 1.12-.828.444-.247.882-.488 1.316-.73a.052.052 0 0 0-.036-.031 94.993 94.993 0 0 0 5.306-3.296c.855-.528 1.781-.926 2.667-1.392.335-.175.47.08.724.027 1.057-.148 1.858-.242 2.924-.636 0 0 .068.125.1.188.14-.103.28-.17.402-.21-.1.958-1.184 1.849.366 1.665-.059.058-.113.112-.163.166-.009 0-.013.009-.022.013 0 0 0 .005.004.005-.244.264-.366.483-.438.783.194-.103.389-.201.583-.304.009.107.032.21.1.286-.01.027-.014.05-.023.077-.086.044-.158.085-.158.085 0 .062 0 .125.013.179-.366.537-1.094 1.097-.8 1.28.19.072.502-.237.882-.542a.538.538 0 0 0 .117.018c-.52.354.235.443-.063.68-.443.234-.855.53-1.297.762-1.809.945-3.3 1.804-4.977 2.92-.073.048-.15.098-.222.142-.818.529-1.627.967-2.495 1.357.032-.072.063-.143.104-.21-.7.313-1.388.653-2.016 1.105-1.532 1.124-3.065 2.248-4.805 3.237a72.455 72.455 0 0 0-5.338 3.291c.696-.546 1.4-1.074 2.17-1.531.36-.18.714-.363 1.053-.555-.367.165-.715.353-1.054.555-1.383.69-2.83 1.348-3.57 2.49-.14.008-.177-.059-.285 0-.778.407-1.592.747-2.12 1.347.031.063-.299.237-.123.304-.632.412-1.41.82-2.011 1.29-.267.192-.488.46-.7.76-2.207 1.586-4.38 3.157-6.781 4.818-.606.394-1.342.78-1.989 1.12a56.281 56.281 0 0 1 2.635-2.069c.99-.456 1.913-.94 2.505-1.66.144-.153.289-.3.438-.449a126.27 126.27 0 0 0-2.943 2.11c-.583.268-1.193.532-1.762.827.009-.009.018-.022.027-.03.406-.319.818-.628 1.234-.941.881-.408 1.708-.833 2.291-1.433.073-.076.145-.152.208-.233.145-.152.29-.3.439-.447-.615.43-1.225.864-1.83 1.298-.376.269-.747.542-1.113.81-.258.121-.52.238-.782.359.018-.032.04-.059.054-.09.19-.18.416-1.25-.018-1.263-1.7.91-3.941 2.463-3.977 2.4-.245-.197 2.508-2.055 2.364-2.064-.181.058-.358.121-.534.184.127-.135.253-.264.362-.399.298-.237.777-.407.931-.649.574-.783 1.532-1.124 2.287-1.84.457-.479.986-1.079 1.519-1.683-.068-.126.303-.238.122-.305.628-.327 1.352-.707 1.424-1.213.014-.014.027-.023.04-.036a.589.589 0 0 0 .15-.139c1.076-.479 1.618-1.209 2.436-1.947.308-.202.629-.394.968-.573-.222.116-.588.228-.778.407l-.19.166c-.8.523-1.51 1.11-2.242 1.665-.045.072-.117.188-.194.282a2.192 2.192 0 0 1-.181.076c0 .032 0 .067-.005.099-.669.582-1.505 1.101-2.056 1.625-1.117.86-2.49 1.437-3.766 2.06.57-.435 1.126-.869 1.668-1.308-.7.506-1.36.985-1.989 1.469l-.32.16-.67.35c.222-.08.439-.165.656-.255-.375.29-.746.578-1.103.873-2.07 1.46-4.29 2.812-6.595 3.89 0-.098.014-.2.027-.308 1.067-.605 2.152-1.173 2.861-1.975-.628.327-1.003.667-1.6.994-.018-.036-.054-.085-.013-.134-.348.273-.764.578-1.194.828.055-.237.127-.483.195-.725.153-.242.488-.416.786-.654 1.383-.864 2.762-1.54 4.1-2.435 1.28-.636 2.554-1.272 3.788-1.93-1.134.82-2.174 1.594-3.15 2.4l.013.013Zm36.397-21.11c-.1.084-.203.178-.303.272.027.005.05.01.077.018a.528.528 0 0 0 .226-.29Zm-2.63 1.293c.822-.29 1.749-.958 2.666-1.562 0-.023-.009-.04-.018-.054-.845.367-1.763 1.043-2.649 1.616Zm-3.748.278s.018.009.027.009c-.004-.01-.014-.018-.018-.027 0 .004-.01.013-.014.018h.005Zm-12.467 9.08c.719-.78 1.83-1.362 2.875-2.069.334-.175.533-.6.976-.833.525-.353.787-.653 1.198-.949l-.402.05c.814-.345 1.053-.954 1.898-1.236-.031-.063.01-.247.122-.305.52-.353 1.144-.515 1.524-.873.52-.354 1.076-.645 1.455-1.003.113-.058.23-.362.42-.541.258-.166.52-.327.783-.484-.023-.009-.041-.022-.06-.031a3.797 3.797 0 0 0-.641.394 27.885 27.885 0 0 1-1.944 1.419c-1.6.998-3.02 2.06-4.439 3.125-.298.237-.565.537-.863.774-.863.775-2.12 1.353-2.554 2.14-.077.121-.298.238-.343.421h-.005Zm.217 3.389c1.026-.882 2.26-1.68 3.395-2.203.89-.466 3.24-2.176 2.396-2.704-.367 1.952-7.332 3.863-5.791 4.907Zm-8.647 6c.411-.341.813-.668 1.342-.946-.447.318-.895.632-1.342.945Zm3.363-5.047c-1.207 1.196-2.73 2.073-4.041 3.08-1.013.77-2.4 1.093-3.164 2.056.031.062.067.125.1.188l.076-.121c.411-.166.777-.229 1.135-.345-.014.014-.032.031-.05.045.031-.022.063-.04.095-.063.235-.08.465-.192.7-.376.104-.094.208-.188.317-.277 1.329-.838 2.712-1.684 3.756-2.736.678-.596 1.175-1.258 1.853-1.854-.221.117-.587.229-.777.408v-.005Z"/><path d="M43.213 30.362c-.438.327-.881.653-1.338.971-.334.273-.664.555-.99.842-1.604 1.271-3.747 2.243-5.582 3.394.04.214.135.407.312.568 2.192-.882 4.09-2.306 6.224-3.286a.33.33 0 0 0 .036-.045c.687-.841 2.197-1.473 3.142-2.368.908-.958 1.952-1.666 2.893-2.561-1.605.837-3.06 1.773-4.701 2.48l.004.005ZM54.572 20.597c-.415.264-.831.533-1.252.801a46.309 46.309 0 0 0-3.128 2.36c.8-.461 1.61-.909 2.437-1.343.795-.502 1.324-1.187 1.939-1.818h.005ZM49.392 24.42c.271-.228.533-.447.8-.662-1.184.68-2.346 1.383-3.503 2.09-1.835 1.286-3.689 2.544-5.483 3.905-.208.152-.412.295-.624.434 3.707-1.845 7.404-3.685 10.098-6.107.05-.045.104-.094.158-.139-1.46.815-2.874 1.675-4.285 2.539a89.463 89.463 0 0 0 2.839-2.06Z"/><path d="m43.638 30.044-.325.161c-.114.085-.222.17-.335.255.077-.031.158-.067.235-.098.14-.108.285-.21.425-.318ZM47.674 30.026l.046-.014c.33-.22.673-.439 1.017-.654.434-.376.904-.743 1.392-1.092-.922.573-1.835 1.146-2.46 1.764l.005-.005ZM51.562 29.932c.113-.059.335-.175.443-.233l.14-.22c-.104.05-.212.103-.32.153l-.267.3h.004ZM57.574 25.486a391.46 391.46 0 0 0-5.24 3.711l-.189.283c1.248-.605 2.427-1.321 3.368-2.257.19-.18.42-.542.642-.658 1.021-.61 1.916-1.334 2.816-2.037-.448.304-.9.613-1.361.931l-.04.027h.004ZM40.79 16.354l.096-.05-.018-.03c-.03.028-.054.054-.078.08ZM40.89 16.768l.03-.014-.02-.021c-.003.012-.006.025-.01.035Z"/><path d="M40.868 16.274c-.067-.108-.165-.198-.176-.336l.213-.112c.022-.088-.065-.12-.098-.183.055-.028.107-.056.092-.086-.007-.1-.094-.12-.207-.086-.048.46-.57.889.176.8v.003ZM40.573 16.741c.093-.05.187-.097.28-.146-.009-.086-.006-.177-.072-.23a.786.786 0 0 0-.21.376h.002ZM18.857 28.243c.01.02.01.03-.053.028.02-.01.035-.02.053-.028-.01-.017-.026-.04-.007-.065a5.237 5.237 0 0 1-.574.399c-.01.047-.02.092-.026.138.513-.291 1.035-.565 1.378-.95-.302.157-.482.32-.77.478h-.001ZM18.307 28.92l-.053.03c.064.002.064-.011.053-.03ZM27.26 23.368c.308-.194.534-.448.767-.7-.56.402-1.16.773-1.563 1.13.263-.146.526-.29.796-.43ZM29.238 21.524c-.43.15-.72.4-.978.668.304-.194.608-.386.913-.575.022-.03.046-.06.065-.093ZM28.897 21.946c-.368.19-.62.454-.868.724.318-.229.62-.468.868-.724ZM23.146 28.519a2.81 2.81 0 0 1-.395.381c-.013.063-.035.14-.066.24l.044-.023c.22-.185.444-.366.674-.544a1.91 1.91 0 0 0 .218-.28c-.16.073-.318.146-.472.226h-.003ZM22.748 28.9c-.302.207.12-.527 0 0ZM23.288 26.178l.037-.02c.032-.026.065-.051.095-.077l-.132.097ZM26.72 25.486a8.582 8.582 0 0 0-.595.392c.41-.256.826-.512 1.137-.79-.052.028-.124.026-.176.054-.074.116-.202.26-.363.345h-.002Z"/><path d="M21.772 27.33c.54-.381 1.059-.775 1.553-1.174 1.115-.596 2.159-1.234 2.998-1.99.726-.689 2.254-1.41 2.85-2.343-.098.035-.19.076-.276.119a2.75 2.75 0 0 0 .276-.33 63.66 63.66 0 0 1 4.149-2.384c.213-.112.326-.286.539-.398l.632-.351a.025.025 0 0 0-.017-.015 45.712 45.712 0 0 0 2.553-1.585c.41-.254.856-.446 1.282-.67.161-.084.226.039.348.013.509-.071.894-.116 1.407-.306l.048.09a.702.702 0 0 1 .193-.1c-.048.46-.57.889.176.8l-.078.08c-.004 0-.007.005-.01.007l.001.002a.785.785 0 0 0-.21.377c.093-.05.186-.097.28-.147a.23.23 0 0 0 .048.138c-.005.013-.007.024-.011.037l-.076.04c0 .03 0 .061.006.087-.176.258-.526.527-.385.616.092.034.242-.114.424-.26.018.003.04.008.057.008-.25.17.113.213-.03.327-.214.112-.411.254-.625.366a25.094 25.094 0 0 0-2.5 1.473 8.892 8.892 0 0 1-1.2.653c.015-.035.03-.07.05-.102-.337.151-.667.315-.97.532-.737.54-1.474 1.081-2.31 1.557a34.902 34.902 0 0 0-2.569 1.583 9.864 9.864 0 0 1 1.044-.736c.174-.086.344-.175.507-.267-.176.08-.344.17-.507.267-.665.331-1.361.648-1.718 1.197-.067.004-.084-.028-.137 0-.373.196-.765.36-1.02.648.016.03-.143.114-.058.147-.304.198-.678.394-.968.62a1.533 1.533 0 0 0-.337.366c-1.06.762-2.106 1.518-3.26 2.317-.292.19-.646.375-.957.538.404-.34.83-.67 1.267-.994.476-.22.92-.453 1.205-.8.07-.072.139-.144.21-.215-.48.336-.954.672-1.415 1.015-.28.129-.574.256-.848.398.005-.004.009-.01.013-.015.196-.153.394-.301.594-.452.424-.196.822-.4 1.102-.69.035-.036.07-.073.1-.111.07-.074.14-.145.211-.216a89.5 89.5 0 0 0-.88.625c-.181.129-.36.26-.535.39-.124.058-.25.114-.377.172.01-.015.02-.028.027-.043.09-.086.2-.601-.01-.607-.817.437-1.895 1.184-1.912 1.154-.118-.095 1.206-.989 1.137-.993a8.78 8.78 0 0 0-.257.088c.061-.064.122-.127.174-.191.144-.114.374-.196.448-.313.276-.377.737-.54 1.1-.885.22-.23.474-.519.73-.81-.032-.06.146-.114.06-.146.302-.157.65-.34.684-.584l.02-.017a.284.284 0 0 0 .072-.067c.517-.23.778-.58 1.171-.936.148-.097.303-.19.466-.276-.107.056-.283.11-.374.196l-.092.08c-.384.252-.726.534-1.078.8-.022.035-.056.091-.093.136a.997.997 0 0 1-.087.037c0 .015 0 .032-.003.047-.321.28-.724.53-.989.782-.537.414-1.198.691-1.811.99a35.3 35.3 0 0 0 .802-.628c-.337.243-.654.474-.956.706l-.155.078-.322.168c.107-.039.211-.08.316-.123-.18.14-.359.278-.53.42-.997.702-2.064 1.352-3.173 1.871 0-.047.007-.096.013-.148.513-.29 1.035-.564 1.376-.95-.302.157-.482.321-.77.478-.008-.017-.025-.04-.006-.064a5.214 5.214 0 0 1-.574.398c.026-.114.061-.232.094-.349.074-.116.234-.2.378-.314.665-.416 1.329-.741 1.972-1.172a71.573 71.573 0 0 0 1.822-.928c-.546.394-1.046.767-1.515 1.154l.006.007ZM39.28 17.176a4.1 4.1 0 0 0-.146.131.233.233 0 0 1 .037.01.254.254 0 0 0 .109-.14Zm-1.266.622c.396-.14.842-.46 1.283-.751 0-.01-.004-.02-.008-.026-.407.177-.848.502-1.275.777Zm-1.802.134s.009.004.013.004l-.009-.013c0 .003-.004.007-.006.009h.002Zm-5.996 4.367c.345-.374.88-.654 1.382-.995.161-.084.257-.288.47-.4.252-.17.378-.315.576-.457l-.193.024c.391-.166.506-.459.913-.594-.015-.03.004-.119.059-.147.25-.17.55-.247.732-.42.25-.17.518-.31.7-.482.055-.028.111-.175.203-.26.123-.08.25-.158.376-.233l-.029-.015a1.82 1.82 0 0 0-.308.19c-.29.227-.63.484-.935.682-.77.48-1.453.99-2.135 1.503-.144.114-.272.258-.416.372-.415.373-1.02.65-1.228 1.03-.037.058-.144.114-.165.202h-.002Zm.104 1.63a7.334 7.334 0 0 1 1.633-1.06c.428-.223 1.559-1.046 1.152-1.3-.176.94-3.526 1.859-2.785 2.36Zm-4.16 2.886c.199-.164.392-.32.646-.454-.215.153-.43.303-.645.454Zm1.618-2.427c-.58.575-1.313.997-1.944 1.482-.486.37-1.154.525-1.521.988l.047.09.037-.058c.198-.08.374-.11.546-.165a.223.223 0 0 1-.024.021l.046-.03c.113-.039.224-.093.337-.18.05-.046.1-.091.152-.134.64-.403 1.305-.81 1.807-1.316.326-.287.565-.605.891-.892-.106.056-.282.11-.374.196v-.002Z"/><path d="M22.796 26.888c-.21.157-.424.315-.643.468-.161.131-.32.267-.477.404-.771.612-1.802 1.08-2.685 1.633.02.103.065.196.15.273 1.055-.424 1.968-1.109 2.994-1.58a.15.15 0 0 0 .017-.022c.331-.405 1.057-.708 1.512-1.14.437-.46.939-.8 1.391-1.23-.772.402-1.472.852-2.261 1.192l.002.002ZM28.26 22.192l-.602.385c-.552.38-1.026.745-1.505 1.135a33.97 33.97 0 0 1 1.172-.646c.383-.241.637-.57.933-.874h.002Z"/><path d="M25.768 24.03c.13-.109.257-.215.385-.318-.57.328-1.128.666-1.685 1.006-.883.618-1.774 1.223-2.637 1.878-.1.073-.198.142-.3.209 1.783-.888 3.561-1.773 4.857-2.938l.076-.067c-.702.392-1.383.806-2.061 1.221.459-.323.917-.648 1.365-.99ZM23 26.736l-.156.077-.16.123.112-.047.204-.153ZM24.942 26.727l.022-.006c.159-.106.324-.212.49-.315a9.2 9.2 0 0 1 .669-.525c-.444.275-.883.55-1.183.848l.002-.002ZM26.812 26.682l.213-.112.067-.106c-.05.024-.102.05-.154.073l-.128.145h.002ZM29.704 24.543c-.885.614-1.707 1.202-2.52 1.785l-.091.136c.6-.29 1.167-.635 1.62-1.085.09-.087.202-.26.308-.317.492-.293.922-.642 1.355-.98l-.655.448-.02.013h.003Z"/></g><defs><clipPath id="a"><path fill="#fff" d="M0 0h105v39H0z"/></clipPath></defs></svg>