<svg width="52" height="52" viewBox="0 0 52 52" fill="none" xmlns="http://www.w3.org/2000/svg">
<g opacity="0.8">
<path fill-rule="evenodd" clip-rule="evenodd" d="M51.9996 25.2297C51.9996 12.2676 41.459 1.73218 28.5157 1.73218C15.5724 1.73218 5.03186 12.2676 5.03186 25.2297C5.03186 38.1644 15.5724 48.6999 28.5157 48.6999C41.459 48.6999 51.9996 38.1644 51.9996 25.2297ZM19.9018 27.6062C19.6527 27.3571 19.3352 26.9719 19.2673 26.8813C18.9045 26.4055 18.7232 25.8165 18.7232 25.2297C18.7232 24.5702 18.9273 23.9585 19.3126 23.4602C19.3441 23.4285 19.4061 23.3613 19.4866 23.2735C19.6374 23.1095 19.8537 22.8738 20.0606 22.6671C21.9193 20.6733 26.7704 17.4107 29.309 16.4138C29.6944 16.2575 30.6692 15.9154 31.1905 15.8927C31.6893 15.8927 32.1654 16.006 32.6186 16.2326C33.1853 16.5498 33.6387 17.0482 33.888 17.6373C34.0467 18.0451 34.296 19.2686 34.296 19.2913C34.5454 20.628 34.6814 22.8031 34.6814 25.2048C34.6814 27.4954 34.5454 29.5775 34.3413 30.937C34.3358 30.9426 34.3162 31.0398 34.2859 31.1908C34.1939 31.6499 34.002 32.6067 33.7973 32.9986C33.2986 33.9502 32.3239 34.5394 31.2812 34.5394H31.1905C30.5104 34.5166 29.0824 33.9276 29.0824 33.9051C26.6795 32.908 21.9421 29.8041 20.038 27.7422L19.9018 27.6062Z" fill="white"/>
</g>
</svg>
