<svg xmlns="http://www.w3.org/2000/svg" width="14" height="14" fill="none"><path fill="#3F4ACF" d="M5.343 6.778h-.047a.317.317 0 0 0-.105 0C3.5 6.726 2.222 5.396 2.222 3.757A3.032 3.032 0 0 1 5.25.729a3.032 3.032 0 0 1 3.027 3.028 3.017 3.017 0 0 1-2.916 3.021h-.018ZM5.25 1.604a2.158 2.158 0 0 0-2.153 2.153c0 1.166.91 2.105 2.071 2.146a.972.972 0 0 1 .187 0 2.149 2.149 0 0 0 2.047-2.146A2.158 2.158 0 0 0 5.25 1.604ZM9.648 6.854c-.017 0-.035 0-.052-.006-.24.024-.485-.145-.508-.385-.023-.239.123-.455.362-.484.07-.006.146-.006.21-.006a1.602 1.602 0 0 0 1.517-1.604c0-.886-.718-1.604-1.605-1.604a.432.432 0 0 1-.437-.432.44.44 0 0 1 .437-.437 2.485 2.485 0 0 1 2.48 2.479 2.474 2.474 0 0 1-2.386 2.48h-.018ZM5.349 13.154c-1.143 0-2.293-.291-3.162-.875-.81-.537-1.254-1.271-1.254-2.07 0-.8.443-1.54 1.254-2.083 1.75-1.161 4.585-1.161 6.324 0 .805.537 1.254 1.272 1.254 2.07 0 .8-.444 1.54-1.254 2.083-.875.584-2.019.875-3.162.875ZM2.67 8.861c-.56.373-.863.852-.863 1.353 0 .496.31.974.863 1.342 1.453.974 3.903.974 5.355 0 .56-.373.864-.852.864-1.353 0-.496-.31-.975-.864-1.342-1.452-.968-3.902-.968-5.355 0ZM10.698 12.104a.43.43 0 0 1-.426-.35.443.443 0 0 1 .339-.519c.367-.076.705-.222.968-.426.332-.25.513-.566.513-.898 0-.333-.18-.648-.507-.893-.257-.198-.578-.338-.957-.425a.441.441 0 0 1-.332-.525.441.441 0 0 1 .525-.333c.501.11.939.31 1.295.583.542.409.851.986.851 1.593s-.315 1.184-.857 1.598a3.16 3.16 0 0 1-1.319.583c-.034.012-.064.012-.093.012Z"/></svg>