<svg xmlns="http://www.w3.org/2000/svg" width="30" height="30" fill="none"><path fill="#fff" d="m27.95 10.338-.363-3.462c-.524-3.775-2.237-5.313-5.9-5.313H8.237c-3.675 0-5.375 1.538-5.912 5.35l-.338 3.438c-.125 1.337.238 2.637 1.026 3.65.95 1.237 2.412 1.937 4.037 1.937 1.575 0 3.087-.787 4.038-2.05.85 1.263 2.3 2.05 3.912 2.05 1.613 0 3.025-.75 3.887-2 .963 1.238 2.45 2 4 2 1.663 0 3.163-.737 4.1-2.037.75-1 1.088-2.263.963-3.563ZM14.188 20.826c-1.588.162-2.788 1.512-2.788 3.112v3.425c0 .338.275.613.612.613h5.963a.613.613 0 0 0 .612-.613v-2.987c.013-2.613-1.524-3.85-4.4-3.55Z"/><path fill="#fff" d="M26.712 18v3.726c0 3.45-2.8 6.25-6.25 6.25a.613.613 0 0 1-.612-.613v-2.987c0-1.6-.488-2.85-1.438-3.7-.837-.763-1.974-1.138-3.387-1.138-.313 0-.625.013-.963.05a4.357 4.357 0 0 0-3.912 4.35v3.425a.613.613 0 0 1-.613.613c-3.45 0-6.25-2.8-6.25-6.25v-3.7a1.25 1.25 0 0 1 1.676-1.175c.337.112.675.2 1.024.25.15.025.313.05.463.05.2.025.4.037.6.037 1.45 0 2.875-.537 4-1.462A6.065 6.065 0 0 0 15 17.188c1.488 0 2.863-.512 3.938-1.437 1.125.912 2.524 1.437 3.95 1.437.224 0 .45-.012.662-.037a4.4 4.4 0 0 0 .425-.05c.387-.05.737-.163 1.087-.275A1.246 1.246 0 0 1 26.712 18Z"/></svg>