<svg xmlns="http://www.w3.org/2000/svg" width="18" height="18" fill="none"><g clip-path="url(#a)"><path fill="#525252" d="M15.364 2.639A8.912 8.912 0 0 1 18 8.978v.025-.001a8.937 8.937 0 0 1-2.636 6.364 8.944 8.944 0 0 1-6.348 2.631H9 9a8.972 8.972 0 0 1-6.364-2.63A8.914 8.914 0 0 1 0 9.026V9v.001c0-2.404.935-4.663 2.636-6.363A8.911 8.911 0 0 1 8.976.002h.026H9c2.404 0 4.663.935 6.364 2.636l-.001.001Zm-1.06 11.667A7.434 7.434 0 0 0 16.5 9.021v-.02.002A7.45 7.45 0 0 0 14.303 3.7 7.431 7.431 0 0 0 9.02 1.503H9h.002-.019c-2.065 0-3.934.84-5.284 2.197A7.43 7.43 0 0 0 1.5 8.984v.02a7.45 7.45 0 0 0 2.196 5.303c2.924 2.924 7.682 2.924 10.606 0ZM10.851 5.21a1.475 1.475 0 0 1 1.605.337c.425.427.555 1.043.336 1.604l-2.297 5.906a1.48 1.48 0 0 1-1.394.957h-.068a1.482 1.482 0 0 1-1.372-1.066l-.003-.01-.59-2.005-2.003-.589A1.486 1.486 0 0 1 3.99 8.969v-.002a1.482 1.482 0 0 1 .945-1.459l.01-.003 5.907-2.296Zm.543 1.398L5.488 8.904l1.97.579.48-.48a.75.75 0 0 1 1.06 1.06h.002l-.48.48.578 1.97 2.297-5.906Z"/></g><defs><clipPath id="a"><path fill="#fff" d="M0 0h18v18H0z"/></clipPath></defs></svg>