<svg xmlns="http://www.w3.org/2000/svg" width="11" height="11" fill="none"><path fill="#757575" d="M9.57 2.554H5.643a.33.33 0 0 1-.328-.327.33.33 0 0 1 .328-.327H9.57a.33.33 0 0 1 .327.327.33.33 0 0 1-.327.327ZM9.57 4.736H5.643a.33.33 0 0 1-.328-.327.33.33 0 0 1 .328-.327H9.57a.33.33 0 0 1 .327.327.33.33 0 0 1-.327.327ZM9.57 6.918H1.715a.33.33 0 0 1-.327-.327.33.33 0 0 1 .327-.327H9.57a.33.33 0 0 1 .327.327.33.33 0 0 1-.327.327ZM9.57 9.1H1.715a.33.33 0 0 1-.327-.327.33.33 0 0 1 .327-.328H9.57a.33.33 0 0 1 .327.328.33.33 0 0 1-.327.327Z"/></svg>