<svg xmlns="http://www.w3.org/2000/svg" width="16" height="16" fill="none"><path fill="#5E5E5E" d="M10 15.167H6c-3.62 0-5.167-1.546-5.167-5.166V6C.833 2.38 2.38.834 6 .834h4c3.62 0 5.167 1.547 5.167 5.167v4c0 3.62-1.547 5.166-5.167 5.166ZM6 1.834c-3.073 0-4.167 1.093-4.167 4.167v4c0 3.073 1.094 4.166 4.167 4.166h4c3.073 0 4.167-1.093 4.167-4.166V6c0-3.074-1.094-4.167-4.167-4.167H6Z"/><path fill="#5E5E5E" d="M7.053 10.387a.5.5 0 0 1-.353-.146L4.813 8.354a.503.503 0 0 1 0-.707.503.503 0 0 1 .707 0l1.533 1.534 3.427-3.427a.503.503 0 0 1 .707 0 .503.503 0 0 1 0 .707l-3.78 3.78a.5.5 0 0 1-.354.146Z"/></svg>