<svg xmlns="http://www.w3.org/2000/svg" width="16" height="16" fill="none"><g clip-path="url(#a)"><path fill="#525252" d="M16 4.668v6.666A4.671 4.671 0 0 1 11.332 16H4.666A4.671 4.671 0 0 1 0 11.334V4.67A4.672 4.672 0 0 1 4.665 0h6.667a4.672 4.672 0 0 1 4.666 4.667H16Zm-1.335 0a3.337 3.337 0 0 0-3.332-3.334H4.666a3.337 3.337 0 0 0-3.333 3.334v6.666a3.337 3.337 0 0 0 3.333 3.333h6.667a3.337 3.337 0 0 0 3.332-3.333V4.668ZM12 11.334a2.001 2.001 0 0 1-2 2H7.332A3.337 3.337 0 0 1 4 10V4.667a2.002 2.002 0 0 1 1.999-2c.99 0 1.813.723 1.973 1.667h.693a2 2 0 1 1 0 4H8v.999h2c1.105 0 2 .896 2 2Zm-1.334 0a.667.667 0 0 0-.666-.667h-2a1.334 1.334 0 0 1-1.333-1.333V7.668c0-.369.298-.667.666-.667h1.334a.667.667 0 1 0 0-1.334H7.332A.667.667 0 0 1 6.665 5v-.332a.667.667 0 0 0-1.332-.002v5.335a2.001 2.001 0 0 0 2 2h2.666a.667.667 0 0 0 .667-.667l-.001-.001Z"/></g><defs><clipPath id="a"><path fill="#fff" d="M0 0h16v16H0z"/></clipPath></defs></svg>