<svg xmlns="http://www.w3.org/2000/svg" width="14" height="14" fill="none"><path fill="#464646" d="M7 7.438a3.358 3.358 0 0 1-3.354-3.355A3.358 3.358 0 0 1 7 .73a3.358 3.358 0 0 1 3.354 3.354A3.358 3.358 0 0 1 7 7.438Zm0-5.834a2.485 2.485 0 0 0-2.48 2.48A2.485 2.485 0 0 0 7 6.562a2.485 2.485 0 0 0 2.48-2.48A2.485 2.485 0 0 0 7 1.604ZM1.99 13.27a.44.44 0 0 1-.438-.437c0-2.49 2.444-4.52 5.448-4.52.59 0 1.167.075 1.727.233a.434.434 0 0 1 .303.537.434.434 0 0 1-.537.303A5.523 5.523 0 0 0 7 9.188c-2.52 0-4.573 1.633-4.573 3.645a.44.44 0 0 1-.438.438Z"/><path fill="#464646" d="M10.5 13.27a2.754 2.754 0 0 1-2.368-1.347 2.69 2.69 0 0 1-.403-1.423c0-.852.38-1.64 1.039-2.164A2.773 2.773 0 0 1 13.27 10.5c0 .508-.14 1.003-.403 1.43a2.581 2.581 0 0 1-.554.653 2.68 2.68 0 0 1-1.814.688Zm0-4.666c-.432 0-.84.146-1.184.42a1.88 1.88 0 0 0-.438 2.45c.339.572.963.922 1.622.922.46 0 .904-.17 1.242-.473.152-.128.28-.28.374-.443.187-.297.28-.636.28-.98A1.9 1.9 0 0 0 10.5 8.604Z"/><path fill="#464646" d="M10.167 11.515a.433.433 0 0 1-.309-.128l-.577-.578a.44.44 0 0 1 0-.618.44.44 0 0 1 .618 0l.28.28.933-.864a.44.44 0 0 1 .619.024.44.44 0 0 1-.024.618l-1.242 1.15a.456.456 0 0 1-.298.116Z"/></svg>