<svg xmlns="http://www.w3.org/2000/svg" width="18" height="18" fill="none"><path fill="#fff" d="M9 17.063a2.062 2.062 0 0 1-1.455-.6l-1.283-1.268a1.692 1.692 0 0 0-1.192-.487H4.5c-1.553 0-2.813-1.253-2.813-2.79V3.735c0-1.537 1.26-2.79 2.813-2.79h9c1.553 0 2.813 1.253 2.813 2.79v8.183c0 1.537-1.26 2.79-2.813 2.79h-.57c-.442 0-.877.18-1.192.487l-1.283 1.268c-.398.397-.93.6-1.455.6Zm-4.5-15c-.93 0-1.688.75-1.688 1.665v8.182c0 .923.758 1.665 1.688 1.665h.57c.743 0 1.462.3 1.987.818L8.34 15.66a.95.95 0 0 0 1.328 0l1.282-1.267a2.848 2.848 0 0 1 1.988-.818h.562c.93 0 1.688-.75 1.688-1.665V3.728c0-.923-.758-1.665-1.688-1.665h-9Z"/><path fill="#fff" d="M9 8.063a2.311 2.311 0 0 1 0-4.62 2.311 2.311 0 0 1 0 4.62Zm0-3.495c-.653 0-1.185.532-1.185 1.185 0 .652.532 1.185 1.185 1.185.652 0 1.185-.533 1.185-1.185 0-.653-.533-1.185-1.185-1.185ZM12 12.307a.567.567 0 0 1-.563-.562c0-1.035-1.095-1.882-2.437-1.882-1.343 0-2.438.847-2.438 1.882a.567.567 0 0 1-.562.563.567.567 0 0 1-.563-.563c0-1.657 1.598-3.007 3.563-3.007s3.563 1.35 3.563 3.007a.567.567 0 0 1-.563.563Z"/></svg>