<svg xmlns="http://www.w3.org/2000/svg" width="17" height="17" fill="none"><g clip-path="url(#a)"><path fill="#525252" d="M12.679 10.164c.238.24.348.566.301.9a1.053 1.053 0 0 1-.535.781l-1.46.81a1.4 1.4 0 0 1-1.498-.076l.005.003-1.04-.72c-.236-.163-.46-.33-.683-.51l-.011-.009A13.088 13.088 0 0 1 5.67 9.262l-.02-.026c-.182-.225-.35-.451-.515-.69l-.718-1.038a1.406 1.406 0 0 1-.07-1.501l-.003.006.81-1.458c.162-.294.447-.49.78-.536.333-.047.66.064.898.3l1.17 1.171c.69.69.69 1.814 0 2.504l-.84.842c.313.353.647.688 1.001 1.001l.842-.84c.69-.69 1.813-.69 2.504 0l1.169 1.167ZM7.003 6.49l-.837-.837L5.583 6.7l.7 1.012.72-.72a.353.353 0 0 0 0-.502Zm4.344 4.344-.838-.838a.354.354 0 0 0-.5 0l-.72.72 1.01.701 1.048-.583Zm3.169-8.352c3.311 3.315 3.311 8.707 0 12.021A8.465 8.465 0 0 1 8.503 17h-.002a8.416 8.416 0 0 1-4.565-1.336l.034.02-2.447 1.205a1.052 1.052 0 0 1-1.203-.21 1.054 1.054 0 0 1-.207-1.209l-.003.007 1.205-2.447A8.399 8.399 0 0 1 .001 8.493C0 6.145.954 4.02 2.495 2.484c3.313-3.311 8.706-3.312 12.02 0v-.002Zm-1 11.02c2.758-2.76 2.758-7.256-.002-10.018-2.762-2.758-7.256-2.758-10.018 0a7.048 7.048 0 0 0-2.08 5.009 7.04 7.04 0 0 0 1.309 4.098l-.015-.022a.71.71 0 0 1 .056.721l-.916 1.86 1.859-.918a.703.703 0 0 1 .723.057l-.002-.002a7.014 7.014 0 0 0 4.076 1.294 7.047 7.047 0 0 0 5.008-2.08l.002.001Z"/></g><defs><clipPath id="a"><path fill="#fff" d="M0 0h17v17H0z"/></clipPath></defs></svg>