<svg xmlns="http://www.w3.org/2000/svg" width="17" height="17" fill="none"><g clip-path="url(#a)"><path fill="#fff" d="M17 4.958v7.083A4.963 4.963 0 0 1 12.04 17H4.958A4.964 4.964 0 0 1 0 12.04V4.958A4.963 4.963 0 0 1 4.957 0h7.083A4.963 4.963 0 0 1 17 4.958Zm-1.417 0a3.546 3.546 0 0 0-3.542-3.542H4.957a3.546 3.546 0 0 0-3.541 3.542v7.083a3.546 3.546 0 0 0 3.54 3.543h7.084a3.546 3.546 0 0 0 3.543-3.542V4.958Zm-9.21 2.479v5.312a.709.709 0 0 1-1.415.002V7.437a.709.709 0 1 1 1.417 0h-.001Zm6.376 2.125v3.188a.71.71 0 0 1-1.416 0V9.561a.709.709 0 0 0-.709-.708h-.708a.709.709 0 0 0-.708.709v3.186a.709.709 0 0 1-1.416.002V7.437a.709.709 0 1 1 1.417 0v.124c.221-.078.46-.124.708-.124h.709a2.128 2.128 0 0 1 2.124 2.125ZM6.73 4.604a1.063 1.063 0 1 1-2.126 0 1.063 1.063 0 0 1 2.126 0Z"/></g><defs><clipPath id="a"><path fill="#fff" d="M0 0h17v17H0z"/></clipPath></defs></svg>