<svg width="339" height="448" viewBox="0 0 339 448" fill="none" xmlns="http://www.w3.org/2000/svg">
<g clip-path="url(#clip0_1170_5437)">
<g style="mix-blend-mode:luminosity" opacity="0.24">
<path d="M-247.183 177.574C-201.334 159.141 -158.79 149.243 -138.502 151.78C-82.2488 158.798 -50.6457 249.164 -31.6872 252.806C-8.63885 257.237 1.58594 160.323 27.9659 145.644C53.579 131.393 101.218 174.695 137.312 156.261C179.361 134.795 248.566 69.966 283.194 54.1295C325.712 34.6937 347.508 243.242 377.057 243.405C411.438 243.594 454.203 13.9297 465.987 -30.9062" stroke="#D2D6D6" stroke-width="0.265171" stroke-miterlimit="10"/>
<path opacity="0.98" d="M-246.332 180.941C-200.772 162.491 -158.578 152.533 -138.23 154.847C-81.7978 161.257 -50.2799 250.037 -31.3896 254.288C-8.39235 259.507 1.63647 166.03 28.2465 151.41C53.9278 137.271 100.996 179.099 136.484 160.246C163.878 145.695 202.23 112.676 235.162 87.8414C252.664 74.6614 268.793 63.6581 280.927 58.4307C302.365 49.1841 318.92 95.374 333.371 143.569C347.899 192.116 360.595 242.419 375.216 241.656C387.145 241.031 400.105 212.683 412.503 174.557C435.543 104.235 458.463 1.71732 466.387 -27.4192" stroke="#D2D6D6" stroke-width="0.268707" stroke-miterlimit="10"/>
<path opacity="0.95" d="M-304 217.712C-251.494 196.264 -202.969 184.645 -179.305 187.073C-113.647 193.797 -77.2172 295.026 -55.3808 300.667C-28.7719 307.64 -17.3696 203.108 13.7548 186.207C43.6143 169.923 97.5335 216.757 137.985 194.394C169.623 176.906 213.217 138.07 250.794 109.788C270.861 94.737 289.576 82.352 303.814 76.5723C328.97 66.3559 348.761 119.119 365.558 173.524C382.405 228.336 396.92 284.123 413.658 282.263C427.283 280.741 441.996 247.903 456.382 204.521C483.04 124.113 512.445 9.91207 522 -24" stroke="#D2D6D6" stroke-width="0.268707" stroke-miterlimit="10"/>
<path opacity="0.93" d="M-303 221.743C-250.798 200.261 -202.65 188.564 -178.893 190.734C-112.988 196.747 -76.6252 296.156 -54.8746 302.567C-28.2894 310.391 -17.1274 209.847 14.2825 193.004C44.239 176.827 97.5182 221.962 137.312 199.126C168.85 181.018 211.581 141.667 248.566 113.903C268.419 99.0799 287.154 87.0842 301.579 81.5892C327.047 71.8732 347.433 123.838 364.29 176.718C381.156 230.016 395.462 283.244 411.983 280.397C425.399 278.088 439.863 245.317 454.219 202.74C480.932 123.539 513.094 14.0356 523 -20" stroke="#D3D7D7" stroke-width="0.272243" stroke-miterlimit="10"/>
<path opacity="0.91" d="M-302 225.016C-250.166 203.557 -202.442 191.819 -178.629 193.736C-112.557 199.019 -76.3145 296.344 -54.656 303.444C-28.1362 312.153 -17.2279 215.84 14.4398 199.108C44.4574 183.1 97.0426 226.376 136.111 203.149C167.512 184.471 209.327 144.74 245.678 117.581C265.291 103.033 284.015 91.4546 298.609 86.2711C324.348 77.0956 345.325 128.077 362.201 179.277C379.068 230.894 393.148 281.409 409.441 277.586C422.632 274.488 436.83 241.887 451.138 200.27C477.875 122.526 512.754 18.0506 523 -16" stroke="#D3D7D7" stroke-width="0.272243" stroke-miterlimit="10"/>
<path opacity="0.88" d="M-301 229.006C-249.47 207.513 -202.122 195.698 -178.216 197.358C-111.896 201.929 -75.7303 297.471 -54.1376 305.301C-27.651 314.91 -16.9337 222.607 14.9807 205.864C45.1353 190.044 97.0506 231.52 135.441 207.841C166.752 188.534 207.644 148.22 243.454 121.669C262.812 107.311 281.597 96.1617 296.368 91.2628C322.419 82.5881 344.002 132.769 360.928 182.443C377.805 232.554 391.676 280.518 407.762 275.699C420.733 271.814 434.693 239.271 448.97 198.481C475.763 121.938 513.392 22.1725 524 -12" stroke="#D3D7D7" stroke-width="0.275778" stroke-miterlimit="10"/>
<path opacity="0.86" d="M-300 232.985C-248.838 211.451 -201.915 199.57 -177.955 200.972C-111.469 204.839 -75.4145 298.583 -53.9342 307.133C-27.5135 317.652 -17.0401 229.307 15.131 212.604C45.3458 196.915 96.5568 236.624 134.241 212.515C165.414 192.561 205.381 151.759 240.566 125.74C259.685 111.603 278.468 100.855 293.397 96.2424C319.729 88.07 341.99 137.392 358.846 185.582C375.831 234.129 389.348 279.574 405.216 273.768C417.962 269.105 431.656 236.624 445.884 196.657C472.7 121.336 513.043 26.2901 524 -8" stroke="#D3D7D7" stroke-width="0.275778" stroke-miterlimit="10"/>
<path opacity="0.84" d="M-299 236.949C-248.134 215.385 -201.588 203.43 -177.544 204.574C-110.801 207.727 -74.8334 299.67 -53.4193 308.94C-27.0322 320.368 -16.7799 235.994 15.6676 219.344C45.9894 203.788 96.549 241.713 133.564 217.185C164.637 196.587 203.729 155.29 238.331 129.817C257.224 115.912 276.028 105.548 291.145 101.232C317.789 93.573 340.676 142.061 357.562 188.719C374.577 235.735 387.864 278.634 403.535 271.81C416.061 266.36 429.526 233.945 443.713 194.816C470.595 120.716 513.69 30.4042 525 -4" stroke="#D3D7D7" stroke-width="0.279314" stroke-miterlimit="10"/>
<path opacity="0.81" d="M-298 240.889C-247.501 219.288 -201.389 207.268 -177.281 208.154C-110.371 210.592 -74.5244 300.729 -53.2024 310.719C-26.8711 323.057 -16.8721 242.651 15.8222 226.054C46.2144 210.622 96.0513 246.76 132.362 221.825C163.307 200.572 201.466 158.802 235.444 133.867C254.089 120.186 272.901 110.226 288.186 106.196C315.1 99.0423 338.586 146.693 355.492 191.826C372.515 237.307 385.548 277.655 401.001 269.824C413.292 263.605 426.502 231.238 440.641 192.95C467.545 120.087 513.341 34.5165 525 0" stroke="#D4D7D7" stroke-width="0.28285" stroke-miterlimit="10"/>
<path opacity="0.79" d="M-297 244.814C-246.807 223.186 -201.063 211.093 -176.871 211.721C-109.713 213.442 -73.9438 301.766 -52.6881 312.465C-26.3904 325.713 -16.6227 249.293 16.3582 232.751C46.8477 217.453 96.0324 251.772 131.683 226.451C162.528 204.534 199.81 162.294 233.206 137.909C251.624 124.462 270.457 114.897 285.93 111.155C313.157 104.516 337.269 151.325 354.205 194.92C371.269 238.853 384.052 276.654 399.316 267.816C411.388 260.819 424.368 228.521 438.466 191.068C465.436 119.436 513.988 38.6168 526 4" stroke="#D4D8D8" stroke-width="0.28285" stroke-miterlimit="10"/>
<path opacity="0.77" d="M-296 248.708C-246.172 227.048 -200.86 214.884 -176.614 215.262C-109.288 216.268 -73.6388 302.758 -52.4846 314.175C-26.2518 328.34 -16.7269 255.914 16.5012 239.421C47.0617 224.261 95.5256 256.741 130.483 231.049C161.192 208.474 197.552 165.781 230.326 141.941C248.506 128.722 267.338 119.564 282.969 116.11C310.476 109.979 335.178 155.936 352.123 197.992C369.196 240.376 381.735 275.623 396.773 265.769C408.61 258.015 421.346 225.764 435.396 189.153C462.399 118.778 513.649 42.7295 526 8" stroke="#D4D8D8" stroke-width="0.286385" stroke-miterlimit="10"/>
<path opacity="0.74" d="M-295 252.563C-245.469 230.881 -200.535 218.646 -176.204 218.766C-108.62 219.064 -73.0488 303.712 -51.9709 315.847C-25.7718 330.919 -16.4785 262.488 17.0366 246.063C47.6946 231.03 95.4956 261.672 129.802 235.62C160.41 212.365 195.893 169.23 228.083 145.945C246.037 132.954 264.9 124.193 280.709 121.037C308.529 115.413 333.858 160.529 350.833 201.046C367.937 241.871 380.236 274.584 395.075 263.703C406.692 255.181 419.198 222.987 433.207 187.228C460.286 118.101 514.276 46.8227 527 12" stroke="#D4D8D8" stroke-width="0.286385" stroke-miterlimit="10"/>
<path opacity="0.72" d="M-294 256.597C-244.835 234.96 -200.334 222.707 -175.939 222.568C-108.19 222.152 -72.7387 304.683 -51.7528 317.481C-25.6192 333.413 -16.5589 269.206 17.1925 252.886C47.9204 238.035 94.9905 266.726 128.604 240.416C159.075 216.566 193.646 173.153 225.204 150.494C242.91 137.786 261.771 129.452 277.748 126.595C305.838 121.506 331.764 165.603 348.758 204.443C365.881 243.571 377.925 273.641 392.548 261.766C403.93 252.519 416.192 220.495 430.143 185.703C457.255 118.063 513.938 51.8021 527 17" stroke="#D5D8D8" stroke-width="0.289921" stroke-miterlimit="10"/>
<path opacity="0.7" d="M-293 260.382C-244.142 238.731 -200.009 226.412 -175.531 226.016C-107.532 224.885 -72.1591 305.568 -51.2397 319.057C-25.1398 335.898 -16.3113 275.685 17.7273 259.439C48.5529 244.731 94.9494 271.549 127.93 244.91C158.291 220.372 191.994 176.564 222.967 154.467C240.456 141.99 259.339 134.066 275.493 131.497C303.897 126.915 330.452 170.147 347.476 207.439C364.629 245.009 376.443 272.531 390.857 259.638C402.029 249.64 414.06 217.675 427.96 183.745C455.148 117.374 514.584 55.8916 528 21" stroke="#D5D8D8" stroke-width="0.293456" stroke-miterlimit="10"/>
<path opacity="0.67" d="M-292 264.112C-243.508 242.442 -199.798 230.07 -175.265 229.416C-107.101 227.572 -71.8486 306.381 -51.0309 320.576C-24.9965 338.32 -16.4106 282.114 17.8738 265.936C48.7595 251.363 94.4259 276.295 126.724 249.351C156.938 224.132 189.731 179.93 220.083 158.399C237.324 146.167 256.215 138.633 272.537 136.363C301.219 132.298 328.36 174.647 345.404 210.383C362.566 246.377 374.145 271.368 388.333 257.45C399.28 246.714 411.058 214.804 424.9 181.744C452.14 116.666 514.237 59.9731 528 25" stroke="#D5D9D9" stroke-width="0.293456" stroke-miterlimit="10"/>
<path opacity="0.65" d="M-291 268.591C-242.804 246.844 -199.481 234.371 -174.854 233.457C-106.43 230.892 -71.2642 308.079 -50.5125 323.017C-24.5112 341.723 -16.1572 289.354 18.4156 273.203C49.3997 258.722 94.3829 281.84 126.049 254.498C156.153 228.507 188.086 183.791 217.845 162.75C234.859 150.714 253.772 143.568 270.282 141.58C299.279 138.012 327.04 179.617 344.114 213.906C361.307 248.435 372.656 270.957 386.636 255.978C397.372 244.469 408.92 212.525 422.711 180.223C450.027 116.225 514.882 64.1545 529 29" stroke="#D5D9D9" stroke-width="0.296992" stroke-miterlimit="10"/>
<path opacity="0.63" d="M-290 272.209C-242.169 250.465 -199.269 237.925 -174.588 236.764C-105.999 233.497 -70.953 308.766 -50.2933 324.393C-24.3574 344.002 -16.2556 295.66 18.5726 279.586C49.6265 265.249 93.8607 286.446 124.855 258.835C154.803 232.167 185.837 187.101 214.974 166.628C231.751 154.843 250.661 148.102 267.33 146.404C296.595 143.356 324.952 184.053 342.045 216.768C359.256 249.701 370.362 269.677 384.105 253.672C394.618 241.42 405.921 209.56 419.645 178.146C447.013 115.467 514.535 68.2265 529 33" stroke="#D5D9D9" stroke-width="0.296992" stroke-miterlimit="10"/>
<path opacity="0.6" d="M-289 275.759C-241.476 254.014 -198.956 241.43 -174.181 240.012C-105.342 236.036 -70.3744 309.385 -49.7912 325.687C-23.899 346.183 -16.0196 301.878 19.0965 285.894C50.2482 271.714 93.7874 290.981 124.168 263.107C153.995 235.748 184.178 190.362 212.719 170.461C229.269 158.918 248.211 152.582 265.057 151.184C294.637 148.645 323.614 188.438 340.747 219.575C357.989 250.91 368.883 268.352 382.408 251.326C392.719 238.346 403.782 206.575 417.455 176.043C444.909 114.693 515.171 72.2715 530 37" stroke="#D6D9D9" stroke-width="0.300528" stroke-miterlimit="10"/>
<path opacity="0.58" d="M-288 280.021C-240.841 258.218 -198.74 245.543 -173.921 243.875C-104.916 239.176 -70.0773 310.834 -49.5755 327.859C-23.748 349.315 -16.1105 308.907 19.2515 292.954C50.4638 278.879 93.246 296.262 122.976 268.062C152.637 239.931 181.933 194.09 209.855 174.7C226.157 163.376 245.098 157.426 262.112 156.314C291.971 154.278 321.533 193.285 338.686 222.935C355.927 252.765 366.598 267.714 379.887 249.626C389.985 235.878 400.804 204.092 414.399 174.352C441.916 114.148 514.834 76.4315 530 41" stroke="#D6D9D9" stroke-width="0.300528" stroke-miterlimit="10"/>
<path opacity="0.56" d="M-287 284.198C-240.148 262.335 -198.418 249.583 -173.514 247.654C-104.25 242.233 -69.4993 312.158 -49.0641 329.913C-23.2804 352.322 -15.8656 315.838 19.7847 299.933C51.0949 285.958 93.1615 301.455 122.287 272.938C151.817 244.033 180.27 197.761 207.596 178.892C223.682 167.792 242.644 162.231 259.836 161.406C290.009 159.884 320.193 198.079 337.385 226.228C354.657 254.527 365.116 266.98 378.186 247.833C388.082 233.32 398.671 201.541 412.205 172.606C439.818 113.572 515.478 80.5892 531 45" stroke="#D6DADA" stroke-width="0.304063" stroke-miterlimit="10"/>
<path opacity="0.53" d="M-286 287.444C-239.505 265.617 -198.217 252.828 -173.25 250.645C-103.824 244.524 -69.195 312.447 -48.8522 330.861C-23.1348 354.127 -15.962 321.713 19.9416 305.908C51.3104 292.097 92.6084 305.63 121.102 276.917C150.445 247.341 178.03 200.829 204.736 182.554C220.573 171.71 239.533 166.57 256.902 166.034C287.342 165.022 318.118 202.258 335.328 228.818C352.608 255.487 362.844 265.399 375.668 245.248C385.35 230.028 395.695 198.369 409.151 170.36C436.835 112.726 515.123 84.5885 531 49" stroke="#D6DADA" stroke-width="0.307599" stroke-miterlimit="10"/>
<path opacity="0.51" d="M-285 291.383C-238.811 269.518 -197.892 256.665 -172.84 254.223C-103.162 247.395 -68.6194 313.516 -48.3427 332.622C-22.6681 356.82 -15.7181 328.365 20.4755 312.623C51.9435 298.936 92.5166 310.539 120.416 281.557C149.62 251.216 176.372 204.339 202.481 186.603C218.102 175.993 237.083 171.239 254.631 171.001C285.388 170.504 316.786 206.89 334.028 231.921C351.329 257.042 361.373 264.436 373.958 243.246C383.439 227.286 393.553 195.655 406.949 168.48C434.739 112.075 515.767 88.7009 532 53" stroke="#D6DADA" stroke-width="0.307599" stroke-miterlimit="10"/>
<path opacity="0.49" d="M-284 295.988C-238.176 274.034 -197.687 261.06 -172.572 258.362C-102.729 250.795 -68.3067 315.294 -48.1216 335.167C-22.5222 360.367 -15.8136 335.794 20.6342 320.073C52.1617 306.472 91.949 316.17 119.228 286.838C148.236 255.644 174.142 208.28 199.623 191.035C214.996 180.631 233.986 176.26 251.691 176.31C282.724 176.32 314.697 211.954 331.967 235.531C349.277 259.158 359.108 264.067 371.448 241.764C380.725 225.007 390.596 193.326 403.904 166.911C431.776 111.592 515.431 92.9134 532 57" stroke="#D7DADA" stroke-width="0.311135" stroke-miterlimit="10"/>
<path opacity="0.47" d="M-283 299.582C-237.484 277.62 -197.365 264.601 -172.165 261.647C-102.072 253.371 -67.737 315.983 -47.6086 336.532C-22.0527 362.632 -15.5673 342.063 21.1699 326.427C52.796 312.97 91.8466 320.708 118.539 291.157C147.388 259.23 172.479 211.577 197.362 194.897C212.518 184.732 231.519 180.773 249.413 181.112C280.763 181.639 313.348 216.361 330.668 238.382C347.999 260.413 357.628 262.801 369.739 239.486C378.824 221.991 388.463 190.391 401.701 164.859C429.689 110.851 516.065 96.9758 533 61" stroke="#D7DADA" stroke-width="0.311135" stroke-miterlimit="10"/>
<path opacity="0.44" d="M-282 303.801C-236.838 281.787 -197.16 268.678 -171.897 265.46C-101.631 256.455 -67.4362 317.328 -47.3897 338.616C-21.9093 365.68 -15.6553 349.055 21.3255 333.466C53.0106 320.108 91.266 325.915 117.359 296.071C145.991 263.329 170.256 215.265 194.512 199.108C209.431 189.167 228.43 185.591 246.481 186.228C278.097 187.264 311.264 221.173 328.613 241.693C345.942 262.183 355.368 262.053 367.234 237.658C376.116 219.389 385.522 187.792 398.662 163.069C426.731 110.244 515.73 101.119 533 65" stroke="#D7DADA" stroke-width="0.31467" stroke-miterlimit="10"/>
<path opacity="0.42" d="M-281 306.96C-236.147 284.98 -196.841 271.85 -171.493 268.384C-100.976 258.691 -66.8696 317.567 -46.89 339.477C-21.4534 367.386 -15.4329 354.782 21.8472 339.308C53.6306 326.119 91.1281 329.942 116.654 299.958C145.106 266.527 168.575 218.297 192.232 202.724C206.923 193.05 225.953 189.882 244.193 190.806C276.124 192.345 309.905 225.289 327.304 244.22C344.644 263.09 353.897 260.439 365.513 235.082C374.203 216.122 383.377 184.668 396.447 160.861C424.651 109.443 516.364 105.123 534 69" stroke="#D7DBDB" stroke-width="0.318206" stroke-miterlimit="10"/>
<path opacity="0.4" d="M-280 311.511C-235.51 289.448 -196.623 276.21 -171.222 272.475C-100.54 262.046 -66.5532 319.25 -46.6649 341.931C-21.303 370.847 -15.5133 362.181 22.0108 346.732C53.8539 333.624 90.548 335.506 115.475 305.196C143.702 270.881 166.357 222.203 189.387 207.122C203.842 197.659 222.86 194.88 241.267 196.095C273.476 198.157 307.818 230.321 325.256 247.772C342.586 265.124 351.646 259.954 363.008 233.478C371.495 213.716 380.436 182.22 393.408 159.181C421.714 108.879 516.019 109.317 534 73" stroke="#D7DBDB" stroke-width="0.318206" stroke-miterlimit="10"/>
<path opacity="0.37" d="M-279 314.955C-234.819 292.899 -196.313 279.623 -170.826 275.636C-99.8938 264.508 -65.9944 319.798 -46.1629 343.137C-20.8447 372.93 -15.2887 368.246 22.5354 352.902C54.4774 339.945 90.3935 339.855 114.782 309.366C142.809 274.323 164.687 225.407 187.119 210.899C201.355 201.69 220.395 199.304 238.981 200.815C271.506 203.381 306.454 234.626 323.942 250.517C341.282 266.268 350.17 258.591 361.292 231.125C369.586 210.65 378.316 179.266 391.197 157.101C419.649 108.155 516.661 113.356 535 77" stroke="#D8DBDB" stroke-width="0.321741" stroke-miterlimit="10"/>
<path opacity="0.35" d="M-278 318.959C-234.181 296.87 -196.093 283.518 -170.553 279.269C-99.4454 267.419 -65.6848 320.909 -45.9442 344.967C-20.7103 375.702 -15.375 374.986 22.6933 359.703C54.6952 346.858 89.7896 344.808 113.601 314.073C141.384 278.214 162.468 228.973 184.274 214.994C198.264 206.019 217.313 204.029 236.056 205.83C268.848 208.914 304.357 239.311 321.895 253.668C339.215 267.857 347.919 257.658 358.787 229.132C366.879 207.899 375.386 176.548 388.161 155.215C416.734 107.506 516.327 117.476 535 81" stroke="#D8DBDB" stroke-width="0.321741" stroke-miterlimit="10"/>
<path opacity="0.33" d="M-277 322.697C-233.481 300.588 -195.786 287.171 -170.151 282.675C-98.7937 270.113 -65.1218 321.763 -45.4387 346.508C-20.249 378.156 -15.1478 381.408 23.22 366.211C55.3201 353.49 89.6346 349.472 112.896 318.53C140.459 281.879 160.794 232.369 181.99 218.932C195.761 210.199 214.822 208.608 233.754 210.697C266.862 214.287 302.966 243.806 320.573 256.637C337.893 269.258 346.435 256.537 357.062 226.988C364.961 205.007 373.256 173.737 385.94 153.249C414.669 106.831 516.95 121.561 536 85" stroke="#D8DBDB" stroke-width="0.325277" stroke-miterlimit="10"/>
<path opacity="0.3" d="M-276 327.038C-232.844 304.863 -195.568 291.348 -169.88 286.584C-98.3591 273.279 -64.8168 323.211 -45.2151 348.695C-20.1103 381.345 -15.2296 388.571 23.3811 373.422C55.5402 360.794 89.0133 354.795 111.727 323.57C139.025 286.036 158.588 236.134 179.158 223.218C192.693 214.706 211.751 213.501 230.839 215.893C264.224 219.999 300.878 248.712 318.533 260.034C335.823 271.116 344.201 255.838 354.565 225.191C362.272 202.418 370.344 171.143 382.911 151.45C411.78 106.222 516.616 125.736 536 89" stroke="#D8DCDC" stroke-width="0.325277" stroke-miterlimit="10"/>
<path opacity="0.28" d="M-275 330.372C-232.155 308.215 -195.251 294.671 -169.479 289.658C-97.7079 275.676 -64.2642 323.66 -44.7101 349.795C-19.6496 383.299 -15.0033 394.477 23.9072 379.43C56.1646 366.959 88.8372 358.994 111.021 327.618C138.078 289.36 156.911 239.288 176.87 226.927C190.186 218.682 209.256 217.867 228.543 220.542C262.234 225.156 299.474 252.942 317.219 262.698C334.499 272.195 342.724 254.414 352.847 222.809C360.361 199.33 368.23 168.193 380.696 149.377C409.74 105.53 517.258 129.756 537 93" stroke="#D8DCDC" stroke-width="0.328813" stroke-miterlimit="10"/>
<path opacity="0.26" d="M-274 334.366C-231.516 312.175 -195.039 298.553 -169.203 293.279C-97.2565 278.572 -63.951 324.763 -44.4874 351.61C-19.5108 386.06 -15.0845 401.215 24.0699 386.239C56.3775 373.88 88.2109 363.939 109.848 332.326C136.613 293.229 154.703 242.848 174.038 231.017C187.12 223.007 206.188 222.589 225.632 225.554C259.599 230.679 297.38 257.635 315.174 265.845C332.415 273.795 340.487 253.466 350.347 220.797C357.668 196.557 365.325 165.461 377.665 147.47C406.861 104.881 516.914 133.878 537 97" stroke="#D9DCDC" stroke-width="0.332348" stroke-miterlimit="10"/>
<path opacity="0.23" d="M-273 338.445C-230.816 316.298 -194.721 302.661 -168.8 297.147C-96.6014 281.774 -63.3839 325.988 -43.9774 353.451C-19.0545 388.71 -14.8529 407.772 24.6027 392.915C57.0095 380.716 88.0224 368.834 109.149 337.116C135.654 297.325 153.034 246.852 171.758 235.586C184.62 227.85 203.71 227.82 223.334 231.063C257.619 236.687 295.977 262.711 313.861 269.337C331.083 275.714 339.012 252.922 348.621 219.33C355.749 194.416 363.213 163.502 375.442 146.393C404.844 105.243 517.556 138.855 538 102" stroke="#D9DCDC" stroke-width="0.332348" stroke-miterlimit="10"/>
<path opacity="0.21" d="M-272 342.242C-230.179 320.082 -194.514 306.379 -168.531 300.608C-96.1724 284.525 -63.0855 326.913 -43.761 355.053C-18.9237 391.224 -14.9422 414.237 24.764 399.464C57.2284 387.387 87.381 373.545 107.98 341.618C134.171 301.014 150.838 250.288 168.927 239.559C181.554 232.063 200.631 232.42 220.42 235.96C254.979 242.088 293.855 267.273 311.816 272.339C328.987 277.188 336.772 251.844 346.128 217.24C353.064 191.589 360.315 160.752 372.418 144.462C401.997 104.632 517.213 142.944 538 106" stroke="#D9DCDC" stroke-width="0.335884" stroke-miterlimit="10"/>
<path opacity="0.19" d="M-271 346.753C-229.489 324.5 -194.196 310.689 -168.137 304.654C-95.5254 287.811 -62.5362 328.497 -43.2588 357.411C-18.465 394.608 -14.7182 421.643 25.29 406.908C57.8541 394.916 87.1756 379.057 107.274 346.832C133.184 305.29 149.16 254.163 166.638 243.932C179.055 236.664 198.145 237.409 218.114 241.247C252.982 247.909 292.446 272.329 310.498 275.839C327.65 279.17 335.292 251.2 344.396 215.465C351.148 188.987 358.217 158.154 370.189 142.633C399.995 104.004 517.844 147.137 539 110" stroke="#D9DDDD" stroke-width="0.335884" stroke-miterlimit="10"/>
<path opacity="0.16" d="M-270 350.411C-228.85 328.158 -193.984 314.289 -167.862 308C-95.0874 290.466 -62.2271 329.28 -43.0404 358.875C-18.331 396.974 -14.8138 427.939 25.4465 413.296C58.0697 401.424 86.5138 383.622 106.096 351.205C131.674 308.875 146.959 257.543 163.804 247.837C175.986 240.824 195.073 241.956 215.199 246.079C250.341 253.242 290.335 276.836 308.454 278.753C325.566 280.571 333.055 250.053 341.907 213.305C348.458 186.094 355.334 155.377 367.17 140.684C397.185 103.42 517.512 151.215 539 114" stroke="#DADDDD" stroke-width="0.33942" stroke-miterlimit="10"/>
<path opacity="0.14" d="M-269 354.031C-228.152 331.77 -193.67 317.855 -167.463 311.315C-94.4275 293.083 -61.7254 330.082 -42.5372 360.303C-17.9612 399.337 -14.5803 434.173 25.971 419.624C58.683 407.883 86.284 388.132 105.393 355.53C130.661 312.416 145.282 260.877 161.514 251.707C173.476 244.948 192.576 246.456 212.901 250.873C248.361 258.535 288.962 280.637 307.141 281.63C324.214 282.573 331.579 248.868 340.18 211.134C346.546 183.206 353.239 152.608 364.943 138.733C395.204 102.855 518.153 155.268 540 118" stroke="#DADDDD" stroke-width="0.342955" stroke-miterlimit="10"/>
<path opacity="0.12" d="M-268 358.406C-227.512 336.073 -193.447 322.057 -167.186 315.243C-93.9869 296.253 -61.4132 331.497 -42.3056 362.494C-17.8037 402.533 -14.6916 441.349 26.1416 426.925C58.8932 415.217 85.6279 393.501 104.232 360.614C129.139 316.566 143.099 264.669 158.699 256.005C170.436 249.479 189.524 251.379 210.005 256.094C245.74 264.291 286.86 286.315 305.108 285.042C322.17 283.848 329.353 248.106 337.691 209.261C343.866 180.512 350.367 149.943 361.927 136.842C392.426 102.254 517.82 159.453 540 122" stroke="#DADDDD" stroke-width="0.342955" stroke-miterlimit="10"/>
<path opacity="0.09" d="M-267 362.029C-226.824 339.715 -193.143 325.669 -166.787 318.612C-93.3352 298.948 -60.8503 332.29 -41.8102 363.925C-17.3526 404.79 -14.4659 447.502 26.6592 433.169C59.5099 421.615 85.391 397.971 103.512 364.937C128.088 320.151 141.414 268.128 156.391 259.998C167.918 253.745 187.008 256.018 207.679 261.011C243.723 269.696 285.451 290.888 303.769 288.01C320.832 285.33 327.861 247.075 335.948 207.281C341.929 177.84 348.266 147.446 359.684 135.168C390.468 102.044 518.441 163.745 541 126.274" stroke="#DADDDD" stroke-width="0.346491" stroke-miterlimit="10"/>
<path opacity="0.07" d="M-266 365.467C-226.184 343.138 -192.919 329.025 -166.511 321.721C-92.8963 301.347 -60.5301 332.856 -41.5807 365.189C-17.1974 406.961 -14.5398 453.634 26.8269 439.383C59.7364 427.96 84.7125 402.346 102.348 369.1C126.543 323.488 139.229 271.237 153.575 263.625C164.867 257.631 183.955 260.27 204.781 265.56C241.099 274.76 283.385 295.154 301.741 290.668C318.794 286.5 325.7 245.662 333.466 204.834C339.304 174.654 345.41 144.375 356.673 132.883C387.715 101.175 518.109 167.479 541 129.915" stroke="#DADDDD" stroke-width="0.346491" stroke-miterlimit="10"/>
<path opacity="0.05" d="M-265 369.691C-225.497 347.278 -192.617 333.062 -166.113 325.492C-92.2372 304.362 -59.9703 334.107 -41.0787 367.224C-16.7302 410.02 -14.3082 460.785 27.3502 446.559C60.3585 435.228 84.4599 407.583 101.641 374.038C125.476 327.481 137.556 274.867 151.277 267.754C162.359 262.004 181.458 265.028 202.466 270.619C239.102 280.348 282.006 300.005 300.413 293.897C317.486 288.227 324.188 244.684 331.731 202.734C337.366 171.726 343.327 141.504 354.439 130.76C385.806 100.419 518.749 171.467 542 133.725" stroke="#DBDEDE" stroke-width="0.350026" stroke-miterlimit="10"/>
<path opacity="0.02" d="M-264 373.174C-224.847 350.767 -192.393 336.498 -165.837 328.678C-91.8 306.858 -59.662 334.74 -40.8514 368.514C-16.5774 412.175 -14.3842 466.866 27.5148 452.726C60.5914 441.538 83.7786 411.947 100.475 378.222C123.909 330.884 135.369 278.101 148.46 271.504C159.317 266.029 178.395 269.417 199.576 275.289C236.486 285.524 279.976 304.364 298.391 296.653C315.473 289.499 321.964 243.403 329.255 200.477C334.679 168.75 340.488 138.702 351.434 128.725C383.088 99.8996 518.408 175.417 542 137.609" stroke="#DBDEDE" stroke-width="0.350026" stroke-miterlimit="10"/>
<path opacity="0.2" d="M-269.924 157.83C-257.842 172.081 -235.722 173.752 -218.357 166.999C-200.992 160.238 -187.163 146.835 -173.547 134.058C-159.931 121.281 -145.36 108.435 -127.467 103.259C-100.346 95.4265 -70.4298 106.601 -43.3682 98.5544C-8.29712 88.1252 11.4708 49.0137 45.3831 35.2425C62.3903 28.3354 81.3232 28.5068 99.6511 29.1838C117.979 29.8608 136.742 30.8806 154.277 25.4903C171.821 20.0915 188.215 6.73155 191.615 -11.3931H-278.351L-269.924 157.83Z" fill="#F8F9F9"/>
<path opacity="0.3" d="M56.7061 -10.4421C50.3582 9.5078 30.8374 24.4702 10.0299 25.3358C0.802063 25.7214 -8.31503 23.5962 -17.5003 22.6192C-26.6856 21.6423 -36.4758 21.9422 -44.4171 26.6726C-56.8232 34.0681 -61.5947 50.2303 -73.3532 58.6285C-82.8538 65.4156 -95.3536 66.0326 -106.967 65.0814C-118.581 64.1302 -130.297 61.8764 -141.783 63.8388C-152.962 65.7498 -163.059 71.5086 -172.917 77.1388C-182.776 82.769 -192.924 88.4763 -204.12 90.2502C-215.316 92.0241 -227.969 89.0676 -234.888 80.0353V-8.55683L56.7146 -10.4336L56.7061 -10.4421Z" fill="white"/>
<path d="M333.323 23.1059L326.997 29.4685L333.323 35.8311L339.649 29.4685L333.323 23.1059Z" fill="white"/>
<path d="M311.364 23.1079L305.038 29.4705L311.364 35.833L317.69 29.4705L311.364 23.1079Z" fill="white"/>
<path d="M289.399 23.1155L283.073 29.478L289.399 35.8406L295.726 29.478L289.399 23.1155Z" fill="white"/>
<path d="M-193.188 120.192C-193.392 120.192 -193.605 120.115 -193.758 119.952C-194.074 119.635 -194.074 119.113 -193.758 118.795L56.8683 -133.27C57.1836 -133.587 57.7033 -133.587 58.0186 -133.27C58.3338 -132.952 58.3338 -132.43 58.0186 -132.113L-192.617 119.952C-192.779 120.115 -192.983 120.192 -193.188 120.192Z" fill="#FED49C"/>
<path d="M-181.762 72.4339C-181.966 72.4339 -182.179 72.3568 -182.333 72.194C-182.648 71.8769 -182.648 71.3542 -182.333 71.0371L145.585 -258.762C145.9 -259.08 146.42 -259.08 146.735 -258.762C147.051 -258.445 147.051 -257.923 146.735 -257.606L-181.182 72.194C-181.344 72.3568 -181.549 72.4339 -181.753 72.4339H-181.762Z" fill="#FED49C"/>
<path d="M301.421 492C301.217 492 301.004 491.922 300.85 491.76C300.535 491.443 300.535 490.92 300.85 490.603L409.906 380.921C410.222 380.604 410.741 380.604 411.057 380.921C411.372 381.238 411.372 381.761 411.057 382.078L302.001 491.76C301.839 491.922 301.634 492 301.43 492H301.421Z" fill="#FED49C"/>
<path d="M312.021 445.15C311.817 445.15 311.604 445.073 311.45 444.91C311.135 444.593 311.135 444.07 311.45 443.753L383.203 371.589C383.518 371.272 384.038 371.272 384.353 371.589C384.668 371.906 384.668 372.429 384.353 372.746L312.601 444.91C312.439 445.073 312.234 445.15 312.03 445.15H312.021Z" fill="#FED49C"/>
<path opacity="0.2" d="M-231.436 173.829C-231.563 173.829 -231.691 173.829 -231.819 173.829L-231.793 171.258C-231.674 171.258 -231.555 171.258 -231.436 171.258C-218.322 171.258 -204.723 164.248 -189.889 149.826C-187.162 147.178 -184.436 144.376 -181.803 141.676C-173.001 132.627 -163.892 123.277 -152.577 117.27C-132.852 106.807 -109.718 107.964 -87.3512 109.086C-64.9759 110.209 -41.8338 111.366 -22.6283 100.654C-15.9395 96.9174 -9.84727 91.7671 -3.9595 86.7882C4.63785 79.5126 13.5249 71.9972 24.4995 68.6893C31.0008 66.7354 37.9707 66.3498 44.702 65.9899C54.4497 65.4586 63.6519 64.9615 71.4483 60.0598C76.271 57.0261 80.1139 52.45 83.8289 48.0281C87.8506 43.2377 92.0087 38.2845 97.5301 35.0538C105.557 30.3491 115.032 30.032 124.183 29.7235C126.415 29.6464 128.724 29.5692 130.948 29.4321C164.417 27.2983 196.83 7.03132 213.539 -22.208L215.754 -20.9226C207.293 -6.11438 194.896 6.67141 179.916 16.0379C164.937 25.4045 148.058 30.9232 131.102 32.003C128.835 32.1487 126.509 32.2258 124.259 32.3029C115.423 32.6029 106.281 32.9114 98.8082 37.2819C93.6703 40.2898 89.8359 44.8574 85.7716 49.6992C81.9287 54.2753 77.9581 59.0057 72.7946 62.2536C64.4359 67.5067 54.4667 68.0466 44.8298 68.5693C38.2433 68.9292 31.4353 69.2977 25.2238 71.1659C14.7604 74.3195 6.4613 81.338 -2.3235 88.7678C-8.30499 93.8324 -14.491 99.0598 -21.4013 102.916C-41.2459 113.988 -64.7544 112.805 -87.496 111.666C-109.522 110.56 -132.298 109.42 -151.401 119.558C-162.367 125.377 -171.331 134.589 -179.996 143.493C-182.638 146.21 -185.373 149.02 -188.134 151.694C-203.471 166.596 -217.649 173.846 -231.453 173.846L-231.436 173.829Z" fill="#F8F9F9"/>
</g>
</g>
<defs>
<clipPath id="clip0_1170_5437">
<rect width="339" height="448" fill="white"/>
</clipPath>
</defs>
</svg>
