<svg width="109" height="40" viewBox="0 0 109 40" fill="none" xmlns="http://www.w3.org/2000/svg">
<path d="M108.111 4.87306C108.381 4.93455 108.549 5.20264 108.487 5.47184C108.426 5.74105 108.158 5.90944 107.889 5.84795L108.111 4.87306ZM64.0421 13.2874L63.6346 12.9977L64.0421 13.2874ZM84.1263 37.068L83.8227 36.6707L84.1263 37.068ZM0 10.1166L1.40069 4.51561L5.55097 8.52916L0 10.1166ZM1.10806 8.26C1.32809 8.09315 1.64173 8.13625 1.80858 8.35628C1.97544 8.57631 1.93234 8.88994 1.71231 9.0568L1.10806 8.26ZM5.18365 7.11788C4.93068 7.22859 4.63585 7.11328 4.52513 6.8603C4.41441 6.60733 4.52973 6.3125 4.7827 6.20177L5.18365 7.11788ZM8.66662 4.76786C8.93007 4.68511 9.21072 4.8316 9.29347 5.09505C9.37622 5.3585 9.22973 5.63915 8.96628 5.7219L8.66662 4.76786ZM12.8812 4.64885C12.6126 4.71313 12.3428 4.54753 12.2785 4.27898C12.2142 4.01042 12.3798 3.7406 12.6484 3.67632L12.8812 4.64885ZM16.6792 2.82345C16.9507 2.77282 17.2118 2.95184 17.2624 3.2233C17.313 3.49477 17.134 3.75587 16.8625 3.8065L16.6792 2.82345ZM20.8802 3.14195C20.607 3.18183 20.3531 2.99265 20.3132 2.7194C20.2734 2.44615 20.4625 2.19231 20.7358 2.15243L20.8802 3.14195ZM24.8129 1.62638C25.0873 1.59533 25.3349 1.79259 25.366 2.06698C25.3971 2.34137 25.1998 2.58899 24.9254 2.62004L24.8129 1.62638ZM28.9893 2.21733C28.7142 2.24094 28.472 2.03703 28.4484 1.7619C28.4248 1.48677 28.6287 1.24459 28.9038 1.22099L28.9893 2.21733ZM33.009 0.918247C33.2846 0.901081 33.522 1.11059 33.5391 1.3862C33.5563 1.6618 33.3468 1.89915 33.0712 1.91631L33.009 0.918247ZM37.1384 1.70535C36.8625 1.7169 36.6295 1.50261 36.6179 1.22671C36.6064 0.950809 36.8207 0.717781 37.0966 0.706219L37.1384 1.70535ZM41.212 0.571907C41.4881 0.565353 41.7172 0.783836 41.7237 1.0599C41.7303 1.33597 41.5118 1.56507 41.2357 1.57162L41.212 0.571907ZM45.3104 1.50845C45.0342 1.51054 44.8087 1.28838 44.8066 1.01225C44.8045 0.736111 45.0267 0.510567 45.3028 0.50848L45.3104 1.50845ZM49.4463 0.524288C49.7224 0.530613 49.9411 0.759537 49.9348 1.03561C49.9284 1.31168 49.6995 1.53035 49.4235 1.52402L49.4463 0.524288ZM53.4707 1.71497C53.1953 1.695 52.9882 1.45553 53.0082 1.18011C53.0282 0.90469 53.2677 0.697617 53.5431 0.717594L53.4707 1.71497ZM57.622 1.12635C57.8958 1.16175 58.0891 1.41246 58.0537 1.68633C58.0183 1.96019 57.7676 2.1535 57.4938 2.1181L57.622 1.12635ZM61.4782 2.76051C61.2071 2.70764 61.0303 2.44507 61.0831 2.17404C61.136 1.903 61.3986 1.72614 61.6696 1.779L61.4782 2.76051ZM65.6933 2.71618C65.9597 2.78897 66.1166 3.06393 66.0438 3.3303C65.971 3.59668 65.6961 3.7536 65.4297 3.6808L65.6933 2.71618ZM69.2668 4.90288C69.0076 4.80768 68.8746 4.52037 68.9698 4.26116C69.065 4.00195 69.3523 3.86899 69.6115 3.96419L69.2668 4.90288ZM73.4187 5.57528C73.6672 5.69566 73.7711 5.99472 73.6507 6.24324C73.5303 6.49176 73.2313 6.59563 72.9827 6.47525L73.4187 5.57528ZM76.4899 8.42262C76.2567 8.27466 76.1877 7.9657 76.3356 7.73255C76.4836 7.49939 76.7925 7.43032 77.0257 7.57828L76.4899 8.42262ZM80.37 10.0164C80.5816 10.1937 80.6094 10.5091 80.4321 10.7207C80.2547 10.9324 79.9394 10.9602 79.7277 10.7829L80.37 10.0164ZM82.5966 13.5711C82.414 13.364 82.4338 13.0481 82.6409 12.8654C82.848 12.6828 83.164 12.7026 83.3466 12.9097L82.5966 13.5711ZM85.8324 16.2519C85.9775 16.4869 85.9046 16.795 85.6697 16.9401C85.4347 17.0851 85.1266 17.0123 84.9816 16.7773L85.8324 16.2519ZM86.7528 20.3442C86.6541 20.0863 86.7832 19.7972 87.0411 19.6985C87.299 19.5998 87.5881 19.7289 87.6868 19.9868L86.7528 20.3442ZM88.7746 24.0158C88.8182 24.2885 88.6325 24.5449 88.3598 24.5885C88.0871 24.632 87.8307 24.4463 87.7871 24.1736L88.7746 24.0158ZM87.9634 28.1234C87.984 27.848 88.224 27.6415 88.4994 27.6622C88.7747 27.6828 88.9812 27.9228 88.9606 28.1982L87.9634 28.1234ZM88.0891 32.3125C87.9939 32.5717 87.7066 32.7047 87.4474 32.6095C87.1882 32.5143 87.0552 32.227 87.1504 31.9678L88.0891 32.3125ZM85.2188 35.34C85.3977 35.1297 85.7133 35.1042 85.9236 35.2832C86.134 35.4621 86.1594 35.7776 85.9805 35.988L85.2188 35.34ZM82.5103 38.6032C82.258 38.7153 81.9625 38.6017 81.8503 38.3493C81.7382 38.097 81.8518 37.8015 82.1041 37.6894L82.5103 38.6032ZM78.1851 38.5002C78.4612 38.4975 78.6873 38.7191 78.69 38.9952C78.6927 39.2714 78.4711 39.4974 78.1949 39.5001L78.1851 38.5002ZM73.8704 38.8598C73.6057 38.7811 73.4549 38.5027 73.5336 38.238C73.6123 37.9733 73.8907 37.8225 74.1554 37.9012L73.8704 38.8598ZM70.3852 36.2667C70.6245 36.4045 70.7068 36.7101 70.5691 36.9495C70.4314 37.1888 70.1257 37.2712 69.8863 37.1334L70.3852 36.2667ZM66.3798 34.5847C66.1748 34.3997 66.1586 34.0835 66.3436 33.8785C66.5285 33.6735 66.8447 33.6573 67.0497 33.8423L66.3798 34.5847ZM64.3101 30.7681C64.4695 30.9936 64.4159 31.3057 64.1904 31.465C63.9649 31.6244 63.6529 31.5708 63.4935 31.3453L64.3101 30.7681ZM61.4393 27.5094C61.3416 27.2511 61.4719 26.9625 61.7302 26.8649C61.9885 26.7672 62.277 26.8975 62.3747 27.1558L61.4393 27.5094ZM61.4949 23.1767C61.5137 23.4522 61.3055 23.6908 61.03 23.7095C60.7545 23.7283 60.516 23.5202 60.4972 23.2447L61.4949 23.1767ZM60.8717 18.8888C60.9367 18.6204 61.2069 18.4555 61.4753 18.5205C61.7437 18.5854 61.9086 18.8556 61.8437 19.124L60.8717 18.8888ZM63.3448 15.3265C63.211 15.5681 62.9067 15.6554 62.6651 15.5216C62.4235 15.3878 62.3362 15.0835 62.47 14.842L63.3448 15.3265ZM64.8935 11.4293C65.0785 11.2243 65.3947 11.2081 65.5997 11.3931C65.8047 11.5781 65.821 11.8942 65.636 12.0992L64.8935 11.4293ZM68.4674 9.57431C68.2436 9.73607 67.931 9.68577 67.7693 9.46197C67.6075 9.23816 67.6578 8.9256 67.8816 8.76384L68.4674 9.57431ZM71.3086 6.72481C71.5567 6.60364 71.8561 6.70657 71.9773 6.9547C72.0984 7.20284 71.9955 7.50222 71.7474 7.62339L71.3086 6.72481ZM75.3032 6.18476C75.0411 6.27172 74.7582 6.12975 74.6712 5.86766C74.5843 5.60556 74.7262 5.3226 74.9883 5.23564L75.3032 6.18476ZM78.8089 4.19489C79.0786 4.13579 79.3452 4.30656 79.4043 4.57631C79.4634 4.84605 79.2926 5.11263 79.0229 5.17172L78.8089 4.19489ZM82.8284 4.50887C82.5547 4.54527 82.3033 4.35287 82.2669 4.07914C82.2305 3.80541 82.4228 3.554 82.6966 3.51759L82.8284 4.50887ZM86.6192 3.13628C86.8948 3.11872 87.1324 3.3279 87.15 3.60348C87.1676 3.87906 86.9584 4.1167 86.6828 4.13426L86.6192 3.13628ZM90.5589 4.00324C90.2827 4.00473 90.0577 3.78207 90.0562 3.50594C90.0547 3.2298 90.2774 3.00474 90.5535 3.00326L90.5589 4.00324ZM94.4846 3.08493C94.7604 3.09763 94.9738 3.33155 94.961 3.6074C94.9483 3.88325 94.7144 4.09657 94.4386 4.08387L94.4846 3.08493ZM98.3144 4.35563C98.0394 4.32983 97.8375 4.08603 97.8633 3.8111C97.8891 3.53616 98.1329 3.3342 98.4078 3.36L98.3144 4.35563ZM102.31 3.81841C102.584 3.85709 102.774 4.1101 102.735 4.38351C102.696 4.65693 102.443 4.84723 102.17 4.80855L102.31 3.81841ZM105.999 5.44918C105.728 5.39632 105.552 5.13376 105.604 4.86272C105.657 4.59169 105.92 4.41482 106.191 4.46768L105.999 5.44918ZM4.7827 6.20177C5.88409 5.71973 7.17284 5.23706 8.66662 4.76786L8.96628 5.7219C7.50217 6.18178 6.24773 6.65216 5.18365 7.11788L4.7827 6.20177ZM12.6484 3.67632C13.889 3.37937 15.2307 3.09359 16.6792 2.82345L16.8625 3.8065C15.4295 4.07376 14.1043 4.35607 12.8812 4.64885L12.6484 3.67632ZM20.7358 2.15243C22.0248 1.96431 23.3829 1.78823 24.8129 1.62638L24.9254 2.62004C23.5056 2.78073 22.1581 2.95544 20.8802 3.14195L20.7358 2.15243ZM28.9038 1.22099C30.219 1.10818 31.5868 1.00683 33.009 0.918247L33.0712 1.91631C31.6565 2.00443 30.2964 2.10521 28.9893 2.21733L28.9038 1.22099ZM37.0966 0.706219C38.4255 0.650543 39.797 0.605484 41.212 0.571907L41.2357 1.57162C39.8266 1.60506 38.4612 1.64993 37.1384 1.70535L37.0966 0.706219ZM45.3028 0.50848C45.9821 0.503342 46.6707 0.500732 47.3684 0.500732V1.50073C46.6731 1.50073 45.9872 1.50333 45.3104 1.50845L45.3028 0.50848ZM47.3684 0.500732C48.0713 0.500732 48.764 0.508659 49.4463 0.524288L49.4235 1.52402C48.7488 1.50858 48.0638 1.50073 47.3684 1.50073V0.500732ZM53.5431 0.717594C54.9505 0.819695 56.3097 0.956734 57.622 1.12635L57.4938 2.1181C56.2007 1.95096 54.8601 1.81576 53.4707 1.71497L53.5431 0.717594ZM61.6696 1.779C63.0716 2.05244 64.4122 2.36605 65.6933 2.71618L65.4297 3.6808C64.1733 3.33741 62.8567 3.02938 61.4782 2.76051L61.6696 1.779ZM69.6115 3.96419C70.9583 4.45882 72.2265 4.99778 73.4187 5.57528L72.9827 6.47525C71.8213 5.91263 70.5836 5.38651 69.2668 4.90288L69.6115 3.96419ZM77.0257 7.57828C78.2409 8.34943 79.3542 9.16532 80.37 10.0164L79.7277 10.7829C78.7466 9.96082 77.6689 9.17082 76.4899 8.42262L77.0257 7.57828ZM83.3466 12.9097C84.3038 13.995 85.13 15.1144 85.8324 16.2519L84.9816 16.7773C84.3092 15.6886 83.5169 14.6146 82.5966 13.5711L83.3466 12.9097ZM87.6868 19.9868C88.204 21.3384 88.5628 22.6901 88.7746 24.0158L87.7871 24.1736C87.5863 22.917 87.2457 21.6321 86.7528 20.3442L87.6868 19.9868ZM88.9606 28.1982C88.8511 29.6581 88.5547 31.0442 88.0891 32.3125L87.1504 31.9678C87.5822 30.7915 87.8604 29.4968 87.9634 28.1234L88.9606 28.1982ZM85.9805 35.988C85.5123 36.5384 84.9942 37.0339 84.4299 37.4652L83.8227 36.6707C84.3279 36.2846 84.7946 35.8388 85.2188 35.34L85.9805 35.988ZM84.4299 37.4652C83.8271 37.9259 83.1841 38.3037 82.5103 38.6032L82.1041 37.6894C82.7081 37.4209 83.2834 37.0829 83.8227 36.6707L84.4299 37.4652ZM78.1949 39.5001C76.7732 39.5141 75.312 39.2884 73.8704 38.8598L74.1554 37.9012C75.5134 38.305 76.8749 38.5131 78.1851 38.5002L78.1949 39.5001ZM69.8863 37.1334C68.6468 36.4201 67.4635 35.5625 66.3798 34.5847L67.0497 33.8423C68.0809 34.7727 69.2069 35.5886 70.3852 36.2667L69.8863 37.1334ZM63.4935 31.3453C62.6538 30.1574 61.954 28.871 61.4393 27.5094L62.3747 27.1558C62.8571 28.432 63.5154 29.6438 64.3101 30.7681L63.4935 31.3453ZM60.4972 23.2447C60.4008 21.829 60.5133 20.3698 60.8717 18.8888L61.8437 19.124C61.5096 20.5044 61.4053 21.8613 61.4949 23.1767L60.4972 23.2447ZM62.47 14.842C62.811 14.2264 63.1984 13.6112 63.6346 12.9977L64.4496 13.5771C64.0343 14.1612 63.667 14.7448 63.3448 15.3265L62.47 14.842ZM63.6346 12.9977C64.0257 12.4475 64.4462 11.9251 64.8935 11.4293L65.636 12.0992C65.2139 12.567 64.8178 13.0592 64.4496 13.5771L63.6346 12.9977ZM67.8816 8.76384C68.9472 7.99367 70.0957 7.31706 71.3086 6.72481L71.7474 7.62339C70.5805 8.19319 69.4819 8.84104 68.4674 9.57431L67.8816 8.76384ZM74.9883 5.23564C76.2246 4.82546 77.503 4.48096 78.8089 4.19489L79.0229 5.17172C77.7474 5.45113 76.503 5.7867 75.3032 6.18476L74.9883 5.23564ZM82.6966 3.51759C83.9949 3.34492 85.3068 3.21991 86.6192 3.13628L86.6828 4.13426C85.3911 4.21656 84.1022 4.33947 82.8284 4.50887L82.6966 3.51759ZM90.5535 3.00326C91.8803 2.99614 93.1952 3.02554 94.4846 3.08493L94.4386 4.08387C93.1652 4.02522 91.8675 3.99622 90.5589 4.00324L90.5535 3.00326ZM98.4078 3.36C99.7626 3.48716 101.069 3.64289 102.31 3.81841L102.17 4.80855C100.944 4.63517 99.6532 4.48128 98.3144 4.35563L98.4078 3.36ZM106.191 4.46768C106.867 4.59948 107.508 4.73534 108.111 4.87306L107.889 5.84795C107.297 5.71272 106.665 5.57906 105.999 5.44918L106.191 4.46768Z" fill="#C8C8C8"/>
</svg>
