<svg width="13" height="13" viewBox="0 0 13 13" fill="none" xmlns="http://www.w3.org/2000/svg">
<path d="M5.18373 10.1951C5.28664 10.1951 5.38956 10.1572 5.47081 10.076C5.62789 9.9189 5.62789 9.6589 5.47081 9.50181L2.46998 6.50098L5.47081 3.50015C5.62789 3.34306 5.62789 3.08306 5.47081 2.92598C5.31373 2.7689 5.05373 2.7689 4.89664 2.92598L1.60873 6.2139C1.45164 6.37098 1.45164 6.63098 1.60873 6.78806L4.89664 10.076C4.97789 10.1572 5.08081 10.1951 5.18373 10.1951Z" fill="#B4B4B4"/>
<path d="M1.98794 6.90723H11.1042C11.3263 6.90723 11.5104 6.72306 11.5104 6.50098C11.5104 6.27889 11.3263 6.09473 11.1042 6.09473H1.98794C1.76585 6.09473 1.58169 6.27889 1.58169 6.50098C1.58169 6.72306 1.76585 6.90723 1.98794 6.90723Z" fill="#B4B4B4"/>
</svg>
