<svg width="14" height="14" viewBox="0 0 14 14" fill="none" xmlns="http://www.w3.org/2000/svg">
<path d="M5.58253 10.979C5.47169 10.979 5.36086 10.9382 5.27336 10.8507L1.73253 7.30985C1.56336 7.14068 1.56336 6.86068 1.73253 6.69151L5.27336 3.15068C5.44253 2.98151 5.72253 2.98151 5.89169 3.15068C6.06086 3.31985 6.06086 3.59985 5.89169 3.76901L2.66003 7.00068L5.89169 10.2323C6.06086 10.4015 6.06086 10.6815 5.89169 10.8507C5.81003 10.9382 5.69336 10.979 5.58253 10.979Z" fill="#3F4ACF"/>
<path d="M11.9583 7.43823H2.14081C1.90164 7.43823 1.70331 7.2399 1.70331 7.00073C1.70331 6.76157 1.90164 6.56323 2.14081 6.56323H11.9583C12.1975 6.56323 12.3958 6.76157 12.3958 7.00073C12.3958 7.2399 12.1975 7.43823 11.9583 7.43823Z" fill="#3F4ACF"/>
</svg>
