<svg width="14" height="14" viewBox="0 0 14 14" fill="none" xmlns="http://www.w3.org/2000/svg">
<path d="M9.33332 13.2709H4.66666C1.97166 13.2709 1.46999 12.0167 1.34166 10.7975L0.904157 6.12503C0.83999 5.51253 0.82249 4.60836 1.42916 3.93169C1.95416 3.34836 2.82332 3.06836 4.08332 3.06836H9.91666C11.1825 3.06836 12.0517 3.35419 12.5708 3.93169C13.1775 4.60836 13.16 5.51253 13.0958 6.13086L12.6583 10.7917C12.53 12.0167 12.0283 13.2709 9.33332 13.2709ZM4.08332 3.93753C3.09749 3.93753 2.42082 4.13003 2.07666 4.51503C1.79082 4.83003 1.69749 5.31419 1.77332 6.03753L2.21082 10.71C2.30999 11.6317 2.56082 12.3959 4.66666 12.3959H9.33332C11.4333 12.3959 11.69 11.6317 11.7892 10.7042L12.2267 6.04336C12.3025 5.31419 12.2092 4.83003 11.9233 4.51503C11.5792 4.13003 10.9025 3.93753 9.91666 3.93753H4.08332Z" fill="white"/>
<path d="M9.33335 3.93758C9.09419 3.93758 8.89585 3.73925 8.89585 3.50008V3.03341C8.89585 1.99508 8.89585 1.60425 7.46669 1.60425H6.53335C5.10419 1.60425 5.10419 1.99508 5.10419 3.03341V3.50008C5.10419 3.73925 4.90585 3.93758 4.66669 3.93758C4.42752 3.93758 4.22919 3.73925 4.22919 3.50008V3.03341C4.22919 2.00675 4.22919 0.729248 6.53335 0.729248H7.46669C9.77085 0.729248 9.77085 2.00675 9.77085 3.03341V3.50008C9.77085 3.73925 9.57252 3.93758 9.33335 3.93758Z" fill="white"/>
<path d="M6.99998 9.77083C5.39581 9.77083 5.39581 8.77917 5.39581 8.18417V7.58333C5.39581 6.76083 5.59415 6.5625 6.41665 6.5625H7.58331C8.40581 6.5625 8.60415 6.76083 8.60415 7.58333V8.16667C8.60415 8.77333 8.60415 9.77083 6.99998 9.77083ZM6.27081 7.4375C6.27081 7.48417 6.27081 7.53667 6.27081 7.58333V8.18417C6.27081 8.785 6.27081 8.89583 6.99998 8.89583C7.72915 8.89583 7.72915 8.8025 7.72915 8.17833V7.58333C7.72915 7.53667 7.72915 7.48417 7.72915 7.4375C7.68248 7.4375 7.62998 7.4375 7.58331 7.4375H6.41665C6.36998 7.4375 6.31748 7.4375 6.27081 7.4375Z" fill="white"/>
<path d="M8.16669 8.61581C7.95085 8.61581 7.75835 8.45248 7.73502 8.23081C7.70585 7.99164 7.87502 7.76998 8.11419 7.74081C9.65419 7.54831 11.13 6.96498 12.3725 6.06081C12.565 5.91498 12.8392 5.96164 12.985 6.15998C13.125 6.35248 13.0842 6.62664 12.8859 6.77248C11.5209 7.76414 9.91085 8.39998 8.21919 8.61581C8.20169 8.61581 8.18419 8.61581 8.16669 8.61581Z" fill="white"/>
<path d="M5.83333 8.62169C5.81583 8.62169 5.79833 8.62169 5.78083 8.62169C4.18249 8.44086 2.62499 7.85753 1.27749 6.93586C1.07916 6.80169 1.02666 6.52752 1.16083 6.32919C1.29499 6.13086 1.56916 6.07836 1.76749 6.21252C2.99833 7.05252 4.41583 7.58336 5.87416 7.75252C6.11333 7.78169 6.28833 7.99752 6.25916 8.23669C6.24166 8.45836 6.05499 8.62169 5.83333 8.62169Z" fill="white"/>
</svg>
