<svg width="10" height="9" viewBox="0 0 10 9" fill="none" xmlns="http://www.w3.org/2000/svg">
<path d="M2.92256 8.53125C3.34631 8.53125 3.79256 8.43 4.25381 8.235C4.70381 8.04375 5.15756 7.78125 5.60006 7.4625C6.03881 7.14 6.46256 6.78 6.86381 6.38625C7.26131 5.985 7.62131 5.56125 7.94006 5.12625C8.26256 4.67625 8.52131 4.22625 8.70506 3.79125C8.90006 3.32625 8.99756 2.87625 8.99756 2.4525C8.99756 2.16 8.94506 1.8825 8.84381 1.62375C8.73881 1.3575 8.57006 1.11 8.34131 0.89625C8.05256 0.61125 7.72256 0.46875 7.37006 0.46875C7.22381 0.46875 7.07381 0.5025 6.94631 0.5625C6.80006 0.63 6.67631 0.73125 6.58631 0.86625L5.71631 2.0925C5.63756 2.20125 5.57756 2.30625 5.53631 2.41125C5.48756 2.52375 5.46131 2.63625 5.46131 2.745C5.46131 2.8875 5.50256 3.02625 5.58131 3.1575C5.63756 3.25875 5.72381 3.3675 5.83256 3.47625L6.08756 3.7425C6.08381 3.75375 6.08006 3.76125 6.07631 3.76875C6.03131 3.8475 5.94131 3.9825 5.76881 4.185C5.58506 4.395 5.41256 4.58625 5.24006 4.7625C5.01881 4.98 4.83506 5.1525 4.66256 5.295C4.44881 5.475 4.31006 5.565 4.22756 5.60625L4.23506 5.625L3.96131 5.355C3.84506 5.23875 3.73256 5.1525 3.62381 5.09625C3.41756 4.96875 3.15506 4.94625 2.89256 5.055C2.79506 5.09625 2.69006 5.1525 2.57756 5.23125L1.33256 6.11625C1.19381 6.21 1.09256 6.33 1.03256 6.4725C0.976309 6.615 0.950059 6.74625 0.950059 6.8775C0.950059 7.0575 0.991309 7.2375 1.07006 7.40625C1.14881 7.575 1.24631 7.72125 1.37006 7.85625C1.58381 8.0925 1.81631 8.26125 2.08631 8.37C2.34506 8.475 2.62631 8.53125 2.92256 8.53125ZM7.37006 1.03125C7.57631 1.03125 7.76756 1.12125 7.95131 1.30125C8.12381 1.4625 8.24381 1.63875 8.31881 1.83C8.39756 2.025 8.43506 2.23125 8.43506 2.4525C8.43506 2.80125 8.35256 3.18 8.18756 3.57C8.01881 3.9675 7.78256 4.38 7.48256 4.7925C7.18256 5.205 6.84131 5.60625 6.46631 5.985C6.09131 6.35625 5.68631 6.70125 5.27006 7.005C4.86506 7.30125 4.44881 7.54125 4.03631 7.71375C3.39506 7.9875 2.79506 8.05125 2.30006 7.845C2.10881 7.76625 1.94006 7.64625 1.78631 7.47375C1.70006 7.38 1.63256 7.27875 1.57631 7.15875C1.53131 7.065 1.50881 6.9675 1.50881 6.87C1.50881 6.81 1.52006 6.75 1.55006 6.6825C1.56131 6.66 1.58381 6.61875 1.65506 6.57L2.90006 5.685C2.97506 5.6325 3.04256 5.595 3.10631 5.56875C3.18881 5.535 3.22256 5.50125 3.35006 5.58C3.42506 5.6175 3.49256 5.67375 3.56756 5.74875L3.85256 6.03C3.99881 6.1725 4.22381 6.20625 4.39631 6.1425L4.49756 6.0975C4.65131 6.015 4.83131 5.8875 5.03006 5.71875C5.21006 5.565 5.40506 5.385 5.64131 5.1525C5.82506 4.965 6.00881 4.76625 6.20006 4.545C6.37631 4.33875 6.50381 4.1625 6.58256 4.01625L6.62756 3.90375C6.65006 3.8175 6.65756 3.76875 6.65756 3.71625C6.65756 3.58125 6.60881 3.46125 6.51506 3.3675L6.23381 3.075C6.15881 3 6.10256 2.92875 6.06506 2.865C6.03506 2.81625 6.02381 2.775 6.02381 2.7375C6.02381 2.7075 6.03506 2.6625 6.05381 2.6175C6.08006 2.5575 6.12131 2.49 6.17381 2.41875L7.04381 1.18875C7.08131 1.13625 7.12631 1.09875 7.18256 1.0725C7.24256 1.04625 7.30631 1.03125 7.37006 1.03125ZM4.23506 5.62875L4.29506 5.88375L4.19381 5.62125C4.21256 5.6175 4.22756 5.62125 4.23506 5.62875Z" fill="#757575"/>
<path d="M2.52881 3.65625C2.68256 3.65625 2.81006 3.52875 2.81006 3.375C2.81006 3.24 2.94506 2.95875 3.17006 2.71875C3.39131 2.4825 3.63506 2.34375 3.84131 2.34375C3.99506 2.34375 4.12256 2.21625 4.12256 2.0625C4.12256 1.90875 3.99506 1.78125 3.84131 1.78125C3.47756 1.78125 3.09506 1.97625 2.76131 2.3325C2.45006 2.66625 2.24756 3.075 2.24756 3.375C2.24756 3.52875 2.37506 3.65625 2.52881 3.65625Z" fill="#757575"/>
<path d="M1.21631 3.65625C1.37006 3.65625 1.49756 3.52875 1.49756 3.375C1.49756 2.08125 2.54756 1.03125 3.84131 1.03125C3.99506 1.03125 4.12256 0.90375 4.12256 0.75C4.12256 0.59625 3.99506 0.46875 3.84131 0.46875C2.24006 0.46875 0.935059 1.77375 0.935059 3.375C0.935059 3.52875 1.06256 3.65625 1.21631 3.65625Z" fill="#757575"/>
</svg>
