<svg width="19" height="18" viewBox="0 0 19 18" fill="none" xmlns="http://www.w3.org/2000/svg">
<path d="M5.7875 17.0625C6.635 17.0625 7.5275 16.86 8.45 16.47C9.35 16.0875 10.2575 15.5625 11.1425 14.925C12.02 14.28 12.8675 13.56 13.67 12.7725C14.465 11.97 15.185 11.1225 15.8225 10.2525C16.4675 9.3525 16.985 8.4525 17.3525 7.5825C17.7425 6.6525 17.9375 5.7525 17.9375 4.905C17.9375 4.32 17.8325 3.765 17.63 3.2475C17.42 2.715 17.0825 2.22 16.625 1.7925C16.0475 1.2225 15.3875 0.9375 14.6825 0.9375C14.39 0.9375 14.09 1.005 13.835 1.125C13.5425 1.26 13.295 1.4625 13.115 1.7325L11.375 4.185C11.2175 4.4025 11.0975 4.6125 11.015 4.8225C10.9175 5.0475 10.865 5.2725 10.865 5.49C10.865 5.775 10.9475 6.0525 11.105 6.315C11.2175 6.5175 11.39 6.735 11.6075 6.9525L12.1175 7.485C12.11 7.5075 12.1025 7.5225 12.095 7.5375C12.005 7.695 11.825 7.965 11.48 8.37C11.1125 8.79 10.7675 9.1725 10.4225 9.525C9.98 9.96 9.6125 10.305 9.2675 10.59C8.84 10.95 8.5625 11.13 8.3975 11.2125L8.4125 11.25L7.865 10.71C7.6325 10.4775 7.4075 10.305 7.19 10.1925C6.7775 9.9375 6.2525 9.8925 5.7275 10.11C5.5325 10.1925 5.3225 10.305 5.0975 10.4625L2.6075 12.2325C2.33 12.42 2.1275 12.66 2.0075 12.945C1.895 13.23 1.8425 13.4925 1.8425 13.755C1.8425 14.115 1.925 14.475 2.0825 14.8125C2.24 15.15 2.435 15.4425 2.6825 15.7125C3.11 16.185 3.575 16.5225 4.115 16.74C4.6325 16.95 5.195 17.0625 5.7875 17.0625ZM14.6825 2.0625C15.095 2.0625 15.4775 2.2425 15.845 2.6025C16.19 2.925 16.43 3.2775 16.58 3.66C16.7375 4.05 16.8125 4.4625 16.8125 4.905C16.8125 5.6025 16.6475 6.36 16.3175 7.14C15.98 7.935 15.5075 8.76 14.9075 9.585C14.3075 10.41 13.625 11.2125 12.875 11.97C12.125 12.7125 11.315 13.4025 10.4825 14.01C9.6725 14.6025 8.84 15.0825 8.015 15.4275C6.7325 15.975 5.5325 16.1025 4.5425 15.69C4.16 15.5325 3.8225 15.2925 3.515 14.9475C3.3425 14.76 3.2075 14.5575 3.095 14.3175C3.005 14.13 2.96 13.935 2.96 13.74C2.96 13.62 2.9825 13.5 3.0425 13.365C3.065 13.32 3.11 13.2375 3.2525 13.14L5.7425 11.37C5.8925 11.265 6.0275 11.19 6.155 11.1375C6.32 11.07 6.3875 11.0025 6.6425 11.16C6.7925 11.235 6.9275 11.3475 7.0775 11.4975L7.6475 12.06C7.94 12.345 8.39 12.4125 8.735 12.285L8.9375 12.195C9.245 12.03 9.605 11.775 10.0025 11.4375C10.3625 11.13 10.7525 10.77 11.225 10.305C11.5925 9.93 11.96 9.5325 12.3425 9.09C12.695 8.6775 12.95 8.325 13.1075 8.0325L13.1975 7.8075C13.2425 7.635 13.2575 7.5375 13.2575 7.4325C13.2575 7.1625 13.16 6.9225 12.9725 6.735L12.41 6.15C12.26 6 12.1475 5.8575 12.0725 5.73C12.0125 5.6325 11.99 5.55 11.99 5.475C11.99 5.415 12.0125 5.325 12.05 5.235C12.1025 5.115 12.185 4.98 12.29 4.8375L14.03 2.3775C14.105 2.2725 14.195 2.1975 14.3075 2.145C14.4275 2.0925 14.555 2.0625 14.6825 2.0625ZM8.4125 11.2575L8.5325 11.7675L8.33 11.2425C8.3675 11.235 8.3975 11.2425 8.4125 11.2575Z" fill="white"/>
<path d="M5 7.3125C5.3075 7.3125 5.5625 7.0575 5.5625 6.75C5.5625 6.48 5.8325 5.9175 6.2825 5.4375C6.725 4.965 7.2125 4.6875 7.625 4.6875C7.9325 4.6875 8.1875 4.4325 8.1875 4.125C8.1875 3.8175 7.9325 3.5625 7.625 3.5625C6.8975 3.5625 6.1325 3.9525 5.465 4.665C4.8425 5.3325 4.4375 6.15 4.4375 6.75C4.4375 7.0575 4.6925 7.3125 5 7.3125Z" fill="white"/>
<path d="M2.375 7.3125C2.6825 7.3125 2.9375 7.0575 2.9375 6.75C2.9375 4.1625 5.0375 2.0625 7.625 2.0625C7.9325 2.0625 8.1875 1.8075 8.1875 1.5C8.1875 1.1925 7.9325 0.9375 7.625 0.9375C4.4225 0.9375 1.8125 3.5475 1.8125 6.75C1.8125 7.0575 2.0675 7.3125 2.375 7.3125Z" fill="white"/>
</svg>
