<svg width="1440" height="388" viewBox="0 0 1440 388" fill="none" xmlns="http://www.w3.org/2000/svg">
<path d="M1776.65 304.376C1666.69 342.642 1564.65 363.188 1516 357.923C1381.09 343.353 1305.29 155.763 1259.82 148.203C1204.55 139.005 1180.02 340.187 1116.76 370.66C1055.33 400.244 941.076 310.354 854.512 348.619C753.665 393.182 587.69 527.759 504.642 560.634C402.67 600.98 350.397 168.056 279.528 167.718C197.072 167.326 94.5077 644.084 66.2459 737.159" stroke="#D2D6D6" stroke-width="0.265171" stroke-miterlimit="10"/>
<path opacity="0.98" d="M1774.61 297.386C1665.34 335.687 1564.15 356.358 1515.35 351.555C1380 338.249 1304.41 153.95 1259.11 145.126C1203.96 134.292 1179.9 328.34 1116.08 358.689C1054.49 388.041 941.608 301.211 856.496 340.348C790.797 370.554 698.818 439.097 619.836 490.651C577.862 518.012 539.178 540.853 510.079 551.705C458.664 570.9 418.958 475.014 384.3 374.966C349.458 274.189 319.01 169.765 283.943 171.348C255.334 172.646 224.252 231.494 194.519 310.639C139.262 456.62 84.2916 669.436 65.2869 729.92" stroke="#D2D6D6" stroke-width="0.268707" stroke-miterlimit="10"/>
<path opacity="0.95" d="M1912.91 221.055C1786.99 265.577 1670.61 289.697 1613.86 284.658C1456.39 270.699 1369.02 60.5583 1316.65 48.8494C1252.83 34.3734 1225.49 251.37 1150.84 286.455C1079.23 320.26 949.912 223.037 852.896 269.46C777.018 305.763 672.467 386.383 582.347 445.093C534.218 476.337 489.336 502.047 455.189 514.045C394.856 535.253 347.391 425.722 307.106 312.784C266.702 199 231.891 83.1913 191.749 87.053C159.07 90.2125 123.785 158.38 89.2824 248.437C25.3477 415.356 -45.1746 652.425 -68.0897 722.822" stroke="#D2D6D6" stroke-width="0.268707" stroke-miterlimit="10"/>
<path opacity="0.93" d="M1910.51 212.685C1785.32 257.281 1669.85 281.562 1612.87 277.057C1454.81 264.576 1367.6 58.2131 1315.43 44.9047C1251.67 28.6619 1224.9 237.38 1149.57 272.346C1077.73 305.927 949.949 212.231 854.511 259.637C778.872 297.227 676.392 378.916 587.688 436.551C540.076 467.322 495.144 492.223 460.549 503.631C399.469 523.8 350.576 415.927 310.148 306.154C269.697 195.513 235.387 85.0158 195.765 90.926C163.589 95.7203 128.9 163.75 94.471 252.135C30.4032 416.547 -46.7294 643.865 -70.4881 714.519" stroke="#D3D7D7" stroke-width="0.272243" stroke-miterlimit="10"/>
<path opacity="0.91" d="M1908.12 205.892C1783.8 250.439 1669.35 274.805 1612.24 270.826C1453.77 259.86 1366.85 57.8218 1314.91 43.0828C1251.31 25.0043 1225.15 224.94 1149.2 259.674C1077.21 292.904 951.09 203.068 857.392 251.284C782.083 290.059 681.797 372.536 594.616 428.915C547.577 459.115 502.671 483.151 467.671 493.911C405.94 512.959 355.631 407.126 315.157 300.841C274.706 193.689 240.938 88.8252 201.862 96.7616C170.226 103.193 136.174 170.869 101.86 257.262C37.7363 418.65 -45.9141 635.53 -70.4879 706.215" stroke="#D3D7D7" stroke-width="0.272243" stroke-miterlimit="10"/>
<path opacity="0.88" d="M1905.72 197.608C1782.13 242.226 1668.58 266.752 1611.25 263.308C1452.19 253.819 1365.45 55.484 1313.67 39.2294C1250.14 19.2825 1224.44 210.893 1147.9 245.65C1075.58 278.49 951.07 192.39 858.999 241.545C783.904 281.625 685.834 365.311 599.951 420.428C553.524 450.235 508.472 473.38 473.047 483.549C410.567 501.557 358.805 397.387 318.211 294.27C277.735 190.244 244.468 90.6748 205.89 100.679C174.78 108.745 141.3 176.3 107.06 260.977C42.8022 419.871 -47.4438 626.973 -72.8862 697.912" stroke="#D3D7D7" stroke-width="0.275778" stroke-miterlimit="10"/>
<path opacity="0.86" d="M1903.32 189.349C1780.62 234.052 1668.08 258.715 1610.62 255.805C1451.16 247.776 1364.7 53.1749 1313.18 35.4257C1249.81 13.59 1224.7 196.985 1147.54 231.658C1075.07 264.225 952.255 181.795 861.876 231.843C787.113 273.265 691.26 357.966 606.876 411.977C561.023 441.325 515.976 463.636 480.17 473.212C417.018 490.177 363.63 387.789 323.203 287.753C282.469 186.975 250.052 92.6359 211.995 104.689C181.426 114.368 148.583 181.795 114.46 264.762C50.1469 421.12 -46.6065 618.425 -72.8861 689.608" stroke="#D3D7D7" stroke-width="0.275778" stroke-miterlimit="10"/>
<path opacity="0.84" d="M1900.92 181.121C1778.93 225.885 1667.3 250.703 1609.63 248.328C1449.56 241.783 1363.3 50.9183 1311.94 31.6749C1248.66 7.951 1224.07 183.103 1146.25 217.667C1073.53 249.959 952.273 171.231 863.5 222.147C788.977 264.908 695.224 350.636 612.236 403.514C566.924 432.379 521.826 453.894 485.572 462.855C421.672 478.753 366.781 378.097 326.283 281.24C285.476 183.64 253.609 94.5876 216.027 108.752C185.986 120.067 153.691 187.356 119.666 268.583C55.1965 422.407 -48.1593 609.885 -75.2845 681.305" stroke="#D3D7D7" stroke-width="0.279314" stroke-miterlimit="10"/>
<path opacity="0.81" d="M1898.52 172.94C1777.41 217.783 1666.82 242.734 1609 240.896C1448.53 235.835 1362.56 48.7203 1311.42 27.9825C1248.27 2.37019 1224.29 169.284 1145.88 203.737C1072.99 235.773 953.467 160.754 866.383 212.516C792.166 256.635 700.651 343.345 619.159 395.107C574.444 423.508 529.327 444.183 492.669 452.549C428.12 467.4 371.794 368.482 331.249 274.791C290.42 180.376 259.165 96.6196 222.104 112.875C192.626 125.785 160.944 192.976 127.034 272.457C62.5094 423.714 -47.323 601.348 -75.2847 673.001" stroke="#D4D7D7" stroke-width="0.28285" stroke-miterlimit="10"/>
<path opacity="0.79" d="M1896.12 164.792C1775.75 209.69 1666.04 234.794 1608.02 233.492C1446.95 229.917 1361.17 46.5673 1310.19 24.3562C1247.12 -3.14423 1223.69 155.495 1144.6 189.834C1071.47 221.591 953.512 150.35 868.012 202.913C794.035 248.409 704.623 336.097 624.529 386.718C580.356 414.631 535.187 434.487 498.08 442.256C432.781 456.037 374.951 358.866 334.335 268.368C293.411 177.169 262.753 98.6963 226.144 117.044C197.193 131.569 166.062 198.615 132.25 276.364C67.568 425.065 -48.8746 592.837 -77.6829 664.697" stroke="#D4D8D8" stroke-width="0.28285" stroke-miterlimit="10"/>
<path opacity="0.77" d="M1893.73 156.711C1774.22 201.674 1665.55 226.925 1607.4 226.14C1445.93 224.053 1360.44 44.5081 1309.7 20.8071C1246.79 -8.59694 1223.94 141.75 1144.25 175.99C1070.96 207.46 954.728 140.035 870.889 193.368C797.241 240.232 710.037 328.858 631.436 378.347C587.834 405.788 542.669 424.798 505.181 431.968C439.21 444.697 379.968 349.294 339.329 261.991C298.381 174.006 268.31 100.837 232.244 121.293C203.856 137.39 173.311 204.34 139.614 280.34C74.8517 426.43 -48.0622 584.299 -77.6829 656.394" stroke="#D4D8D8" stroke-width="0.286385" stroke-miterlimit="10"/>
<path opacity="0.74" d="M1891.33 148.707C1772.54 193.717 1664.77 219.115 1606.42 218.867C1444.33 218.247 1359.02 42.5273 1308.47 17.336C1245.64 -13.9517 1223.35 128.103 1142.97 162.202C1069.44 193.407 954.8 129.798 872.523 183.88C799.115 232.154 714.017 321.698 636.814 370.035C593.756 397.004 548.515 415.189 510.602 421.74C443.88 433.416 383.133 339.76 342.421 255.651C301.402 170.902 271.905 102.995 236.316 125.582C208.455 143.272 178.461 210.104 144.863 284.335C79.9192 427.837 -49.5654 575.802 -80.0812 648.09" stroke="#D4D8D8" stroke-width="0.286385" stroke-miterlimit="10"/>
<path opacity="0.72" d="M1888.93 140.334C1771.02 185.25 1664.29 210.684 1605.78 210.973C1443.3 211.838 1358.28 40.5121 1307.95 13.9453C1245.27 -19.1295 1223.54 114.158 1142.59 148.036C1068.9 178.866 956.011 119.307 875.396 173.923C802.317 223.432 719.404 313.554 643.719 360.591C601.255 386.973 556.019 404.272 517.703 410.204C450.334 420.769 388.155 329.226 347.398 248.599C306.333 167.374 277.447 104.952 242.376 129.604C215.078 148.798 185.672 215.277 152.212 287.502C87.1901 427.915 -48.755 565.465 -80.0813 637.711" stroke="#D5D8D8" stroke-width="0.289921" stroke-miterlimit="10"/>
<path opacity="0.7" d="M1886.53 132.476C1769.35 177.422 1663.51 202.993 1604.8 203.817C1441.72 206.164 1356.89 38.674 1306.72 10.6732C1244.12 -24.2865 1222.95 100.708 1141.31 134.432C1067.38 164.966 956.11 109.294 877.012 164.595C804.197 215.532 723.368 306.472 649.083 352.344C607.139 378.245 561.852 394.695 523.109 400.028C454.989 409.54 391.303 319.793 350.473 242.379C309.336 164.389 281.002 107.255 246.432 134.021C219.639 154.774 190.783 221.132 157.447 291.566C92.2428 429.346 -50.3045 556.976 -82.4796 629.407" stroke="#D5D8D8" stroke-width="0.293456" stroke-miterlimit="10"/>
<path opacity="0.67" d="M1884.13 124.734C1767.83 169.718 1663 195.4 1604.17 196.758C1440.69 200.585 1356.14 36.9875 1306.22 7.51927C1243.78 -29.316 1223.19 87.3633 1140.96 120.947C1066.89 151.197 957.365 99.4428 879.904 155.375C807.442 207.726 728.795 299.485 656.001 344.181C614.652 369.575 569.346 385.214 530.2 389.927C461.411 398.364 396.319 310.453 355.443 236.268C314.284 161.548 286.512 109.67 252.485 138.562C226.23 160.849 197.985 227.09 164.787 295.719C99.4572 430.816 -49.4711 548.503 -82.4794 621.104" stroke="#D5D9D9" stroke-width="0.293456" stroke-miterlimit="10"/>
<path opacity="0.65" d="M1881.74 115.435C1766.15 160.578 1662.25 186.472 1603.18 188.37C1439.08 193.693 1354.74 33.4619 1304.97 2.4513C1242.61 -36.3789 1222.58 72.3334 1139.66 105.861C1065.35 135.923 957.468 87.9315 881.523 144.691C809.324 198.645 732.738 291.47 661.369 335.149C620.563 360.135 575.204 374.97 535.607 379.096C466.064 386.504 399.484 300.136 358.536 228.954C317.303 157.277 290.083 110.524 256.556 141.617C230.806 165.509 203.112 231.822 170.036 298.878C104.523 431.73 -51.0189 539.823 -84.8778 612.8" stroke="#D5D9D9" stroke-width="0.296992" stroke-miterlimit="10"/>
<path opacity="0.63" d="M1879.34 107.925C1764.62 153.062 1661.74 179.093 1602.54 181.505C1438.04 188.285 1353.99 32.0365 1304.45 -0.404635C1242.24 -41.1106 1222.81 59.2425 1139.28 92.6111C1064.81 122.373 958.721 78.3691 884.386 135.687C812.563 191.047 738.134 284.599 668.254 327.098C628.018 351.563 582.664 365.558 542.689 369.082C472.501 375.409 404.493 290.926 363.499 223.014C322.221 154.649 295.586 113.18 262.625 146.405C237.412 171.838 210.304 237.978 177.39 303.19C111.752 433.305 -50.1867 531.37 -84.8778 604.496" stroke="#D5D9D9" stroke-width="0.296992" stroke-miterlimit="10"/>
<path opacity="0.6" d="M1876.94 100.554C1762.96 145.696 1660.98 171.818 1601.57 174.762C1436.47 183.016 1352.61 30.7509 1303.24 -3.09035C1241.14 -45.639 1222.25 46.3336 1138.03 79.5162C1063.32 108.952 958.897 68.9562 886.035 126.82C814.5 183.613 742.113 277.829 673.661 319.143C633.97 343.104 588.541 356.257 548.138 359.16C477.197 364.429 407.702 281.823 366.611 217.187C325.261 152.139 299.132 115.931 266.696 151.275C241.966 178.22 215.434 244.173 182.643 307.554C116.799 434.912 -51.7106 522.973 -87.2762 596.193" stroke="#D6D9D9" stroke-width="0.300528" stroke-miterlimit="10"/>
<path opacity="0.58" d="M1874.54 91.7068C1761.44 136.968 1660.47 163.279 1600.94 166.744C1435.45 176.497 1351.89 27.7431 1302.72 -7.59981C1240.78 -52.1393 1222.47 31.7435 1137.66 64.8594C1062.8 94.0782 960.195 57.9929 888.893 116.534C817.757 174.93 747.497 270.092 680.531 310.342C641.432 333.849 596.007 346.201 555.202 348.51C483.591 352.737 412.692 271.762 371.555 210.211C330.205 148.289 304.613 117.255 272.742 154.804C248.524 183.343 222.577 249.327 189.971 311.064C123.976 436.043 -50.9023 514.337 -87.2761 587.889" stroke="#D6D9D9" stroke-width="0.300528" stroke-miterlimit="10"/>
<path opacity="0.56" d="M1872.14 83.0372C1759.78 128.422 1659.69 154.893 1599.97 158.899C1433.85 170.152 1350.51 24.995 1301.5 -11.8621C1239.66 -58.3826 1221.88 17.3551 1136.38 50.3717C1061.29 79.3824 960.398 47.2125 890.546 106.411C819.723 166.415 751.483 262.47 685.947 301.64C647.37 324.683 601.893 336.226 560.66 337.94C488.296 341.099 415.907 261.81 374.674 203.375C333.252 144.631 308.166 118.779 276.821 158.527C253.086 188.653 227.692 254.624 195.232 314.69C129.009 437.237 -52.4487 505.706 -89.6744 579.586" stroke="#D6DADA" stroke-width="0.304063" stroke-miterlimit="10"/>
<path opacity="0.53" d="M1869.74 76.2976C1758.23 121.609 1659.21 148.157 1599.34 152.688C1432.83 165.396 1349.78 24.3955 1300.99 -13.8307C1239.31 -62.1284 1222.11 5.15876 1136 37.9683C1060.77 66.6379 961.724 38.545 893.387 98.15C823.013 159.547 756.856 256.101 692.808 294.039C654.825 316.55 609.354 327.219 567.698 328.331C494.694 330.432 420.884 253.135 379.607 198C338.164 142.637 313.616 122.062 282.86 163.892C259.639 195.487 234.83 261.209 202.557 319.351C136.163 438.994 -51.5965 497.404 -89.6745 571.282" stroke="#D6DADA" stroke-width="0.307599" stroke-miterlimit="10"/>
<path opacity="0.51" d="M1867.35 68.1205C1756.57 113.51 1658.43 140.192 1598.35 145.261C1431.24 159.436 1348.4 22.1743 1299.77 -17.4877C1238.19 -67.7194 1221.52 -8.64872 1134.72 24.0286C1059.25 52.4411 961.944 28.3554 895.034 88.518C824.994 151.503 760.834 248.814 698.215 285.633C660.752 307.658 615.229 317.528 573.143 318.022C499.38 319.052 424.076 243.519 382.726 191.557C341.233 139.409 317.143 124.059 286.96 168.048C264.222 201.179 239.966 266.843 207.839 323.255C141.189 440.346 -53.1405 488.867 -92.0728 562.979" stroke="#D6DADA" stroke-width="0.307599" stroke-miterlimit="10"/>
<path opacity="0.49" d="M1864.95 58.562C1755.05 104.137 1657.94 131.068 1597.71 136.669C1430.2 152.378 1347.65 18.4852 1299.24 -22.7697C1237.84 -75.0824 1221.75 -24.0719 1134.34 8.56414C1058.73 36.7977 963.306 16.6663 897.882 77.5566C828.312 142.312 766.182 240.633 705.071 276.432C668.2 298.031 622.658 307.104 580.195 307.001C505.767 306.98 429.088 233.007 387.668 184.063C346.154 135.016 322.577 124.826 292.981 171.124C270.731 205.91 247.059 271.678 215.141 326.512C148.295 441.348 -52.3353 480.123 -92.0728 554.675" stroke="#D7DADA" stroke-width="0.311135" stroke-miterlimit="10"/>
<path opacity="0.47" d="M1862.55 51.101C1753.39 96.6906 1657.17 123.718 1596.73 129.85C1428.63 147.029 1346.28 17.0533 1298.01 -25.6044C1236.72 -79.7833 1221.16 -37.0843 1133.06 -4.62647C1057.21 23.3095 963.551 7.24586 899.533 68.5894C830.347 134.868 770.17 233.79 710.492 268.415C674.144 289.517 628.573 297.735 585.657 297.033C510.472 295.939 432.323 223.858 390.783 178.145C349.219 132.411 326.125 127.455 297.08 175.853C275.29 212.172 252.173 277.769 220.425 330.771C153.301 442.886 -53.8554 471.69 -94.471 546.371" stroke="#D7DADA" stroke-width="0.311135" stroke-miterlimit="10"/>
<path opacity="0.44" d="M1860.15 42.3424C1751.84 88.0419 1656.68 115.255 1596.09 121.934C1427.57 140.627 1345.56 14.261 1297.48 -29.9289C1236.37 -86.1124 1221.37 -51.6 1132.68 -19.2382C1056.69 8.49168 964.944 -3.5638 902.365 58.389C833.696 126.359 775.5 226.133 717.328 259.673C681.548 280.311 635.982 287.734 592.691 286.411C516.866 284.26 437.321 213.87 395.713 171.273C354.151 128.737 331.546 129.006 303.088 179.648C281.786 217.572 259.228 283.164 227.713 334.488C160.395 444.146 -53.0518 463.088 -94.4711 538.068" stroke="#D7DADA" stroke-width="0.31467" stroke-miterlimit="10"/>
<path opacity="0.42" d="M1857.75 35.7854C1750.18 81.4123 1655.91 108.669 1595.12 115.864C1426 135.987 1344.2 13.7656 1296.28 -31.7171C1235.28 -89.6528 1220.84 -63.4888 1131.43 -31.3665C1055.21 -3.98618 965.274 -11.924 904.056 50.3208C835.82 119.72 779.533 219.839 722.796 252.168C687.564 272.25 641.923 278.827 598.178 276.909C521.596 273.713 440.581 205.325 398.852 166.027C357.265 126.854 335.073 132.359 307.214 184.996C286.373 224.355 264.371 289.651 233.026 339.071C165.383 445.809 -54.5713 454.778 -96.8692 529.764" stroke="#D7DBDB" stroke-width="0.318206" stroke-miterlimit="10"/>
<path opacity="0.4" d="M1855.35 26.3377C1748.65 72.1384 1655.39 99.6187 1594.47 107.373C1424.95 129.022 1343.44 10.2712 1295.74 -36.8115C1234.92 -96.8383 1221.03 -78.8489 1131.04 -46.7781C1054.67 -19.5665 966.666 -23.4745 906.883 39.4472C839.185 110.681 784.852 211.732 729.619 243.038C694.953 262.682 649.34 268.451 605.195 265.928C527.949 261.648 445.585 194.88 403.763 158.653C362.201 122.633 340.473 133.364 313.223 188.325C292.869 229.35 271.425 294.732 240.313 342.559C172.426 446.98 -53.7441 446.071 -96.8693 521.461" stroke="#D7DBDB" stroke-width="0.318206" stroke-miterlimit="10"/>
<path opacity="0.37" d="M1852.96 19.188C1747 64.9744 1654.65 92.5331 1593.52 100.811C1423.4 123.911 1342.1 9.13486 1294.54 -39.3145C1233.82 -101.161 1220.49 -91.4384 1129.78 -59.5861C1053.17 -32.6881 967.036 -32.5024 908.544 30.7894C841.326 103.536 788.857 205.079 735.059 235.198C700.917 254.313 655.251 259.268 610.677 256.13C532.671 250.804 448.857 185.943 406.914 152.955C365.327 120.257 344.012 136.193 317.338 193.209C297.446 235.714 276.51 300.863 245.616 346.877C177.379 448.482 -55.2859 437.686 -99.2677 513.157" stroke="#D8DBDB" stroke-width="0.321741" stroke-miterlimit="10"/>
<path opacity="0.35" d="M1850.56 10.8769C1745.47 56.7302 1654.12 84.4488 1592.87 93.2684C1422.33 117.868 1341.36 6.82857 1294.02 -43.1144C1233.5 -106.917 1220.7 -105.429 1129.4 -73.7039C1052.65 -47.0388 968.484 -42.7839 911.378 21.0183C844.745 95.4577 794.179 197.678 741.882 226.697C708.329 245.328 662.644 249.459 617.693 245.72C539.047 239.317 453.885 176.217 411.825 146.413C370.286 116.959 349.41 138.13 323.345 197.347C303.938 241.424 283.536 306.507 252.898 350.791C184.37 449.83 -54.4828 429.134 -99.2677 504.854" stroke="#D8DBDB" stroke-width="0.321741" stroke-miterlimit="10"/>
<path opacity="0.33" d="M1848.16 3.11553C1743.79 49.0131 1653.38 76.8654 1591.9 86.1977C1420.77 112.274 1340.01 5.05631 1292.8 -46.3126C1232.39 -112.01 1220.16 -118.762 1128.14 -87.2136C1051.15 -60.8065 968.856 -52.4653 913.067 11.7665C846.964 87.8494 798.193 190.629 747.359 218.522C714.331 236.65 668.619 239.953 623.214 235.618C543.81 228.164 457.222 166.885 414.995 140.251C373.455 114.05 352.97 140.457 327.482 201.798C308.538 247.427 288.645 312.341 258.225 354.873C189.325 451.231 -55.9772 420.653 -101.666 496.55" stroke="#D8DBDB" stroke-width="0.325277" stroke-miterlimit="10"/>
<path opacity="0.3" d="M1845.76 -5.89504C1742.26 40.1385 1652.86 68.193 1591.25 78.0825C1419.72 105.703 1339.28 2.04954 1292.27 -50.8528C1232.06 -118.631 1220.35 -133.63 1127.75 -102.183C1050.63 -75.9695 970.346 -63.5146 915.871 1.30477C850.402 79.2204 803.486 182.811 754.152 209.625C721.69 227.293 675.982 229.797 630.203 224.831C550.138 216.307 462.229 156.702 419.886 133.199C378.42 110.192 358.326 141.909 333.47 205.528C314.988 252.803 295.629 317.726 265.489 358.608C196.252 452.495 -55.1763 411.986 -101.666 488.246" stroke="#D8DCDC" stroke-width="0.325277" stroke-miterlimit="10"/>
<path opacity="0.28" d="M1843.36 -12.817C1740.61 33.1786 1652.1 61.2962 1590.29 71.701C1418.16 100.727 1337.95 1.11804 1291.06 -53.1353C1230.95 -122.686 1219.81 -145.89 1126.49 -114.655C1049.13 -88.7674 970.769 -72.2313 917.565 -7.09843C852.673 72.3204 807.507 176.265 759.638 201.926C727.702 219.04 681.967 220.733 635.71 215.179C554.909 205.6 465.597 147.92 423.039 127.668C381.595 107.952 361.869 144.865 337.591 210.472C319.572 259.214 300.699 323.851 270.802 362.91C201.144 453.931 -56.717 403.641 -104.064 479.943" stroke="#D8DCDC" stroke-width="0.328813" stroke-miterlimit="10"/>
<path opacity="0.26" d="M1840.96 -21.1059C1739.07 24.9585 1651.59 53.2377 1589.63 64.1857C1417.08 94.7164 1337.2 -1.17224 1290.52 -56.9041C1230.62 -128.418 1220.01 -159.878 1126.1 -128.789C1048.62 -103.134 972.271 -82.4977 920.378 -16.8713C856.187 64.2889 812.801 168.874 766.43 193.435C735.057 210.063 689.325 210.931 642.693 204.775C561.229 194.137 470.618 138.178 427.943 121.136C386.594 104.631 367.235 146.833 343.587 214.649C326.029 264.969 307.665 329.521 278.07 366.869C208.05 455.279 -55.8916 395.086 -104.064 471.639" stroke="#D9DCDC" stroke-width="0.332348" stroke-miterlimit="10"/>
<path opacity="0.23" d="M1838.57 -29.5753C1737.39 16.3993 1650.83 44.7089 1588.66 56.1562C1415.51 88.0687 1335.84 -3.71587 1289.3 -60.726C1229.53 -133.919 1219.45 -173.49 1124.82 -142.649C1047.1 -117.324 972.723 -92.6592 922.055 -26.8165C858.488 55.7855 816.806 160.562 771.899 183.95C741.052 200.01 695.268 200.071 648.204 193.339C565.977 181.665 473.983 127.64 431.091 113.887C389.788 100.648 370.773 147.961 347.727 217.695C330.632 269.414 312.731 333.589 283.401 369.105C212.888 454.527 -57.4302 384.752 -106.463 461.26" stroke="#D9DCDC" stroke-width="0.332348" stroke-miterlimit="10"/>
<path opacity="0.21" d="M1836.17 -37.4575C1735.87 8.54585 1650.33 36.9917 1588.02 48.9711C1414.48 82.357 1335.13 -5.63602 1288.78 -64.051C1229.21 -139.138 1219.66 -186.912 1124.44 -156.243C1046.58 -131.173 974.261 -102.438 924.858 -36.1607C862.044 48.1272 822.072 153.431 778.688 175.701C748.406 191.262 702.652 190.521 655.193 183.173C572.31 170.453 479.072 118.172 435.996 107.654C394.815 97.5885 376.144 150.199 353.705 222.034C337.072 275.283 319.68 339.296 290.655 373.114C219.714 455.797 -56.6098 376.264 -106.463 452.956" stroke="#D9DCDC" stroke-width="0.335884" stroke-miterlimit="10"/>
<path opacity="0.19" d="M1833.77 -46.8204C1734.21 -0.626725 1649.57 28.0431 1587.07 40.5719C1412.93 75.5371 1333.81 -8.92418 1287.58 -68.947C1228.11 -146.163 1219.13 -202.285 1123.17 -171.696C1045.08 -146.803 974.754 -113.882 926.552 -46.9854C864.41 39.251 826.096 145.385 784.178 166.624C754.399 181.712 708.616 180.164 660.723 172.197C577.1 158.368 482.452 107.674 439.158 100.388C398.022 93.4737 379.695 151.536 357.859 225.718C341.665 280.684 324.713 344.69 296.001 376.91C224.517 457.099 -58.1227 367.56 -108.861 444.653" stroke="#D9DDDD" stroke-width="0.335884" stroke-miterlimit="10"/>
<path opacity="0.16" d="M1831.37 -54.4142C1732.68 -8.21893 1649.06 20.5707 1586.41 33.625C1411.88 70.0244 1333.07 -10.5492 1287.05 -71.9849C1227.79 -151.074 1219.36 -215.355 1122.8 -184.957C1044.56 -160.313 976.341 -123.357 929.378 -56.0641C868.032 31.8102 831.376 138.369 790.976 158.517C761.76 173.077 715.981 170.726 667.715 162.168C583.432 147.298 487.516 98.319 444.059 94.3388C403.02 90.5648 385.059 153.918 363.828 230.203C348.118 286.689 331.627 350.455 303.24 380.956C231.255 458.313 -57.3246 359.096 -108.861 436.349" stroke="#DADDDD" stroke-width="0.33942" stroke-miterlimit="10"/>
<path opacity="0.14" d="M1828.97 -61.9291C1731.01 -15.7172 1648.31 13.1679 1585.46 26.7451C1410.29 64.5923 1331.86 -12.2147 1285.84 -74.9501C1226.9 -155.981 1218.8 -228.296 1121.54 -198.093C1043.09 -173.72 976.892 -132.72 931.062 -65.0402C870.462 24.4582 835.396 131.448 796.466 150.485C767.778 164.516 721.972 161.384 673.226 152.216C588.182 136.311 490.809 90.4283 447.208 88.368C406.262 86.4107 388.599 156.378 367.972 234.709C352.703 292.685 336.652 356.204 308.581 385.006C236.007 459.485 -58.8622 350.682 -111.259 428.046" stroke="#DADDDD" stroke-width="0.342955" stroke-miterlimit="10"/>
<path opacity="0.12" d="M1826.57 -71.0107C1729.47 -24.651 1647.77 4.44522 1584.79 18.5906C1409.24 58.0119 1331.12 -15.1518 1285.29 -79.498C1226.53 -162.615 1219.06 -243.192 1121.13 -213.25C1042.58 -188.944 978.465 -143.865 933.848 -75.5952C874.113 15.8441 840.633 123.576 803.219 141.563C775.069 155.109 729.291 151.165 680.171 141.377C594.467 124.361 495.849 78.6415 452.085 81.2847C411.164 83.7627 393.938 157.959 373.94 238.598C359.13 298.277 343.539 361.735 315.816 388.932C242.67 460.733 -58.0643 341.994 -111.259 419.742" stroke="#DADDDD" stroke-width="0.342955" stroke-miterlimit="10"/>
<path opacity="0.09" d="M1824.18 -78.5317C1727.82 -32.2105 1647.04 -3.05375 1583.83 11.5968C1407.67 52.4163 1329.77 -16.7977 1284.1 -82.4675C1225.44 -167.3 1218.52 -255.966 1119.89 -226.212C1041.1 -202.227 979.034 -153.144 935.574 -84.5693C876.633 8.40283 844.673 116.396 808.753 133.272C781.108 146.254 735.326 141.535 685.749 131.171C599.305 113.141 499.228 69.1479 455.295 75.1235C414.373 80.687 397.515 160.101 378.121 242.708C363.777 303.824 348.579 366.918 321.195 392.407C247.364 461.168 -59.5529 333.084 -113.658 410.87" stroke="#DADDDD" stroke-width="0.346491" stroke-miterlimit="10"/>
<path opacity="0.07" d="M1821.78 -85.6701C1726.29 -39.3163 1646.51 -10.0207 1583.17 5.14208C1406.62 47.4373 1329 -17.973 1283.55 -85.0932C1225.07 -171.806 1218.7 -268.695 1119.49 -239.111C1040.56 -215.399 980.661 -162.226 938.366 -93.2102C880.337 1.475 849.913 109.943 815.509 125.744C788.426 138.188 742.647 132.708 692.699 121.727C605.597 102.629 504.183 60.2927 460.158 69.6046C419.261 78.2573 402.699 163.033 384.075 247.788C370.071 310.438 355.428 373.294 328.416 397.151C253.967 462.973 -58.7567 325.333 -113.657 403.31" stroke="#DADDDD" stroke-width="0.346491" stroke-miterlimit="10"/>
<path opacity="0.05" d="M1819.38 -94.4375C1724.64 -47.9109 1645.78 -18.4007 1582.22 -2.6853C1405.04 41.1773 1327.65 -20.5691 1282.35 -89.3161C1223.95 -178.156 1218.14 -283.538 1118.23 -254.007C1039.07 -230.486 981.267 -173.097 940.061 -103.462C882.898 -6.81547 853.926 102.407 821.018 117.173C794.44 129.109 748.634 122.831 698.253 111.225C610.387 91.0288 507.49 50.2225 463.344 62.9021C422.399 74.6732 406.324 165.062 388.234 252.148C374.72 316.517 360.423 379.254 333.775 401.557C258.546 464.543 -60.2923 317.053 -116.056 395.403" stroke="#DBDEDE" stroke-width="0.350026" stroke-miterlimit="10"/>
<path opacity="0.02" d="M1816.98 -101.669C1723.08 -55.1545 1645.25 -25.534 1581.56 -9.30037C1403.99 35.9969 1326.92 -21.8829 1281.8 -91.9947C1223.59 -182.631 1218.33 -296.163 1117.84 -266.81C1038.51 -243.584 982.901 -182.156 942.858 -112.148C886.655 -13.8796 859.17 95.6921 827.775 109.389C801.735 120.754 755.982 113.72 705.182 101.53C616.661 80.2836 512.359 41.1744 468.193 57.1811C427.226 72.0327 411.659 167.722 394.173 256.832C381.165 322.694 367.233 385.071 340.98 405.781C265.064 465.62 -59.4743 308.853 -116.056 387.34" stroke="#DBDEDE" stroke-width="0.350026" stroke-miterlimit="10"/>
</svg>
