<svg width="14" height="14" viewBox="0 0 14 14" fill="none" xmlns="http://www.w3.org/2000/svg">
<path d="M3.24918 13.2416C1.88418 13.2416 0.72918 12.0866 0.72918 10.7216V7.1283C0.700013 5.42497 1.33001 3.8208 2.50835 2.61913C3.68668 1.4233 5.26751 0.758301 6.97085 0.758301C10.4475 0.758301 13.2708 3.58747 13.2708 7.0583V10.6516C13.2708 12.04 12.1392 13.1716 10.7508 13.1716C9.38585 13.1716 8.23085 12.0166 8.23085 10.6516V9.01247C8.23085 8.16663 8.89585 7.50163 9.74168 7.50163C10.5875 7.50163 11.2525 8.16663 11.2525 9.01247V10.78C11.2525 11.0191 11.0542 11.2175 10.815 11.2175C10.5758 11.2175 10.3775 11.0191 10.3775 10.78V9.01247C10.3775 8.6158 10.0567 8.37663 9.74168 8.37663C9.34501 8.37663 9.10585 8.69747 9.10585 9.01247V10.6516C9.10585 11.5441 9.85835 12.2966 10.7508 12.2966C11.6433 12.2966 12.3958 11.5441 12.3958 10.6516V7.0583C12.3958 4.0658 9.96335 1.6333 6.97085 1.6333C5.50668 1.6333 4.14751 2.19913 3.13251 3.23163C2.11751 4.26413 1.57501 5.64663 1.60418 7.11663V10.7216C1.60418 11.6141 2.35668 12.3666 3.24918 12.3666C4.14168 12.3666 4.89418 11.6141 4.89418 10.7216V9.08247C4.89418 8.6858 4.57335 8.44663 4.25835 8.44663C3.86168 8.44663 3.62251 8.76747 3.62251 9.08247V10.7858C3.62251 11.025 3.42418 11.2233 3.18501 11.2233C2.94585 11.2233 2.74751 11.025 2.74751 10.7858V9.08247C2.74751 8.23663 3.41251 7.57163 4.25835 7.57163C5.10418 7.57163 5.76918 8.23663 5.76918 9.08247V10.7216C5.76918 12.0866 4.61418 13.2416 3.24918 13.2416Z" fill="white"/>
</svg>
