<svg width="12" height="11" viewBox="0 0 12 11" fill="none" xmlns="http://www.w3.org/2000/svg">
<path d="M8.64162 10.1905H3.58887C2.39331 10.1905 1.42465 9.2175 1.42465 8.02194V4.78871C1.42465 4.19529 1.79117 3.44916 2.26241 3.08264L4.61425 1.25004C5.32112 0.700259 6.45122 0.674079 7.18426 1.18895L9.88081 3.07828C10.4 3.44044 10.8058 4.21711 10.8058 4.8498V8.02631C10.8058 9.2175 9.83717 10.1905 8.64162 10.1905ZM5.01568 1.76491L2.66384 3.59752C2.35404 3.84186 2.07915 4.39601 2.07915 4.78871V8.02194C2.07915 8.85534 2.75547 9.53602 3.58887 9.53602H8.64162C9.47502 9.53602 10.1513 8.85971 10.1513 8.02631V4.8498C10.1513 4.43092 9.85026 3.85059 9.50556 3.61497L6.80902 1.72564C6.31159 1.37658 5.49129 1.39403 5.01568 1.76491Z" fill="#3F4ACF"/>
<path d="M6.11524 8.44519C5.93635 8.44519 5.78799 8.29684 5.78799 8.11794V6.80894C5.78799 6.63004 5.93635 6.48169 6.11524 6.48169C6.29414 6.48169 6.4425 6.63004 6.4425 6.80894V8.11794C6.4425 8.29684 6.29414 8.44519 6.11524 8.44519Z" fill="#3F4ACF"/>
</svg>
