<svg width="19" height="19" viewBox="0 0 19 19" fill="none" xmlns="http://www.w3.org/2000/svg">
<g clip-path="url(#clip0_1170_6028)">
<path d="M13.0625 0.792419C13.1638 0.792419 13.2652 0.831199 13.3424 0.908386C13.4967 1.06276 13.4967 1.31374 13.3424 1.46812L12.3049 2.50564C13.4828 3.37002 14.25 4.76085 14.25 6.33409H4.75C4.75 4.76085 5.51721 3.37002 6.69515 2.50564L5.65763 1.46812C5.50326 1.31295 5.50326 1.06355 5.65763 0.908386C5.81201 0.754011 6.06299 0.754011 6.21737 0.908386L7.39095 2.08197C8.02701 1.76582 8.74143 1.58409 9.5 1.58409C10.2586 1.58409 10.973 1.76582 11.609 2.08197L12.7826 0.908386C12.8598 0.831199 12.9612 0.792419 13.0625 0.792419ZM11.875 3.95909H11.0833V4.75075H11.875V3.95909ZM7.91667 3.95909H7.125V4.75075H7.91667V3.95909ZM15.8333 7.12575C16.2703 7.12575 16.625 7.48042 16.625 7.91742V12.6674C16.625 13.1044 16.2703 13.4591 15.8333 13.4591C15.3963 13.4591 15.0417 13.1044 15.0417 12.6674V7.91742C15.0417 7.48042 15.3963 7.12575 15.8333 7.12575ZM14.25 7.12575V13.4591C14.25 13.8961 13.8953 14.2508 13.4583 14.2508H12.6667V17.0216C12.6667 17.6771 12.1347 18.2091 11.4792 18.2091C10.8237 18.2091 10.2917 17.6771 10.2917 17.0216V14.2508H8.70833V17.0216C8.70833 17.6771 8.17633 18.2091 7.52083 18.2091C6.86533 18.2091 6.33333 17.6771 6.33333 17.0216V14.2508H5.54167C5.10467 14.2508 4.75 13.8961 4.75 13.4591V7.12575H14.25ZM3.16667 7.12575C3.60367 7.12575 3.95833 7.48042 3.95833 7.91742V12.6674C3.95833 13.1044 3.60367 13.4591 3.16667 13.4591C2.72967 13.4591 2.375 13.1044 2.375 12.6674V7.91742C2.375 7.48042 2.72967 7.12575 3.16667 7.12575Z" fill="white"/>
</g>
<defs>
<clipPath id="clip0_1170_6028">
<rect width="19" height="19" fill="white" transform="matrix(-1 0 0 1 19 0.000732422)"/>
</clipPath>
</defs>
</svg>
