<svg width="198" height="28" viewBox="0 0 198 28" fill="none" xmlns="http://www.w3.org/2000/svg">
<path d="M120.68 19C118.61 19 116.93 17.32 116.93 15.25V12.25L119.93 11.515V15.25C119.93 15.67 120.26 16 120.68 16H128.165C128.57 16 128.9 15.67 128.9 15.25V12.25L131.915 11.515V15.25C131.915 17.32 130.22 19 128.165 19H120.68ZM122.195 22.735V20.5H126.665V23.485L124.43 24.235V22.735H122.195ZM133.234 19V8.515L136.234 7.765V19H133.234ZM139.166 19V8.515L142.166 7.765V19H139.166ZM145.467 23.26L143.817 20.77L146.487 19H146.457C145.182 19 143.142 17.56 143.142 15.28C143.142 13.225 144.822 11.53 146.892 11.53H150.642V19.825L145.467 23.26ZM146.142 15.25C146.142 15.67 146.472 16 146.892 16H147.642V14.5H146.892C146.472 14.5 146.142 14.845 146.142 15.25ZM155.734 19C153.664 19 151.984 17.32 151.984 15.25V8.515L154.969 7.765V15.25C154.969 15.67 155.314 16 155.734 16L156.259 17.5L155.734 19ZM155.727 19H155.682L155.187 17.5L155.697 16H155.727C156.132 16 156.462 15.67 156.462 15.25V12.25H159.477V15.25C159.477 15.67 159.807 16 160.212 16C160.632 16 160.962 15.67 160.962 15.25V12.25H163.962V15.25C163.962 15.67 164.292 16 164.712 16C165.117 16 165.462 15.67 165.462 15.25V12.25L168.447 11.515V15.25C168.447 17.32 166.767 19 164.712 19C163.857 19 163.092 18.715 162.477 18.265C161.847 18.715 161.052 19 160.212 19C159.387 19 158.592 18.715 157.962 18.265C157.332 18.715 156.567 19 155.727 19Z" fill="#3F4ACF"/>
<rect y="5" width="112" height="18" rx="9" fill="#E6ECF1"/>
<path d="M8.72 19.58C7.59 19.58 6.68 18.68 6.68 17.55V15.32L7.76 15.05V17.55C7.76 18.07 8.19 18.51 8.72 18.51H9.71C10.25 18.51 10.67 18.07 10.67 17.55V13.32L11.76 13.05V15.92H12.41L12.6 16.46L12.41 17H11.76V17.55C11.76 18.68 10.84 19.58 9.71 19.58H8.72ZM8.35 13.87V12.96H9.35V13.87H8.35ZM12.4062 17L12.2162 16.46L12.4062 15.92H13.1763C13.6963 15.92 14.1363 15.49 14.1363 14.96V13.32L15.2063 13.05V14.96C15.2063 16.09 14.2963 17 13.1763 17H12.4062ZM12.4062 18.89V18H14.6663V18.89H12.4062ZM16.2015 17V15.92H16.7015V10.8L17.7815 10.49V15.92H18.7415C19.2615 15.92 19.7015 15.49 19.7015 14.96V10.74L20.7715 10.46V14.96C20.7715 15.49 21.2015 15.92 21.7215 15.92L21.9115 16.46L21.7215 17C21.1315 17 20.6015 16.72 20.2515 16.32C19.8815 16.74 19.3415 17 18.7415 17H16.2015ZM21.7227 17H21.6927L21.5327 16.46L21.7127 15.92H21.7227C22.2427 15.92 22.6727 15.49 22.6727 14.96V13.32L23.7627 13.05V14.96C23.7627 16.09 22.8427 17 21.7227 17ZM22.7227 12.03V11.11H23.7227V12.03H22.7227ZM24.7562 17V10.77L25.8362 10.5V17H24.7562ZM23.5562 9.9V9.02H25.8462V8.57L27.0362 9.02V9.9H23.5562ZM29.9114 19.58C28.7814 19.58 27.8714 18.68 27.8714 17.55V15.32L28.9514 15.05V17.55C28.9514 18.08 29.3814 18.5 29.9114 18.5H30.9014C31.4414 18.5 31.8614 18.08 31.8614 17.55V10.77L32.9514 10.5V14.96C32.9514 15.49 33.3814 15.92 33.9014 15.92L34.0914 16.46L33.9014 17C33.5514 17 33.2314 16.91 32.9514 16.75V17.55C32.9514 18.68 32.0314 19.58 30.9014 19.58H29.9114ZM33.9004 17L33.7104 16.46L33.9004 15.92H34.6304C35.1604 15.92 35.5804 15.49 35.5804 14.96V13.32L36.6604 13.05V14.96C36.6604 15.49 37.0904 15.92 37.6204 15.92L37.8104 16.46L37.6204 17C37.0104 17 36.4804 16.72 36.1204 16.29C35.7704 16.72 35.2304 17 34.6304 17H33.9004ZM34.2604 18.89V18H36.5204V18.89H34.2604ZM37.6211 17L37.4311 16.46L37.6211 15.92H43.8411C44.3611 15.92 44.7911 15.49 44.7911 14.96C44.7911 14.43 44.3611 14.01 43.8411 14.01H38.1211V12.92L42.0111 10.57L42.5811 11.42L40.0911 12.93H43.8411C44.9711 12.93 45.8811 13.84 45.8811 14.96C45.8811 16.09 44.9711 17 43.8411 17H37.6211ZM47.8451 19.28L47.2451 18.38L49.3251 17H48.5451C47.6351 17 46.6251 16.1 46.6251 14.97C46.6251 13.85 47.5351 12.92 48.6651 12.92H50.7051V17.38L47.8451 19.28ZM47.7051 14.96C47.7051 15.49 48.1351 15.92 48.6651 15.92H49.6251V14H48.6651C48.1351 14 47.7051 14.43 47.7051 14.96ZM54.7063 17C53.5763 17 52.6663 16.09 52.6663 14.96V13.32L53.7463 13.05V14.96C53.7463 15.49 54.1763 15.92 54.7063 15.92H59.2763C59.8063 15.92 60.2363 15.49 60.2363 14.96V13.32L61.3263 13.05V14.96C61.3263 16.09 60.4063 17 59.2763 17H54.7063ZM56.4763 18.91V17.99H57.4763V18.91H56.4763ZM64.3448 17C63.2248 17 62.3148 16.08 62.3148 14.96V10.77L63.3848 10.5V14.96C63.3848 15.49 63.8248 15.92 64.3448 15.92L64.5348 16.46L64.3448 17ZM64.3496 17L64.1596 16.46L64.3496 15.92H67.9896V14.96C67.9896 14.43 67.5596 14.01 67.0396 14.01H65.1296L65.3896 12.93H67.0396C68.1596 12.93 69.0796 13.84 69.0796 14.96V15.92H69.6696L69.8496 16.46L69.6696 17H64.3496ZM65.7796 11.91V11H66.7896V11.91H65.7796ZM69.6621 17H69.6521L69.4721 16.46L69.6521 15.92H69.6621C70.1821 15.92 70.6221 15.49 70.6221 14.96V13.32L71.6921 13.05V14.96C71.6921 15.49 72.1221 15.92 72.6521 15.92L72.8521 16.46L72.6521 17C72.0421 17 71.5021 16.72 71.1521 16.29C70.8021 16.72 70.2721 17 69.6621 17ZM69.5621 12.03V11.14H71.8221V12.03H69.5621ZM72.6504 17L72.4604 16.46L72.6504 15.92H73.4204C73.9404 15.92 74.3804 15.49 74.3804 14.96V13.32L75.4504 13.05V14.96C75.4504 16.09 74.5404 17 73.4204 17H72.6504ZM74.3504 12.03V11.11H75.3504V12.03H74.3504ZM76.4456 17V10.77L77.5256 10.5V17H76.4456ZM81.5909 17C80.4709 17 79.5609 16.09 79.5609 14.96C79.5609 13.84 80.4709 12.93 81.5909 12.93H83.6309V14.96C83.6309 15.49 84.0609 15.92 84.5909 15.92L84.7809 16.46L84.5909 17C83.9909 17 83.4609 16.72 83.1109 16.32C82.7409 16.74 82.2009 17 81.5909 17ZM80.6409 14.96C80.6409 15.49 81.0709 15.92 81.5909 15.92C82.1209 15.92 82.5509 15.49 82.5509 14.96V14.01H81.5909C81.0709 14.01 80.6409 14.43 80.6409 14.96ZM84.5938 17H84.5637L84.4037 16.46L84.5837 15.92H84.5938C85.1138 15.92 85.5438 15.49 85.5438 14.96V13.32L86.6338 13.05V14.96C86.6338 16.09 85.7138 17 84.5938 17ZM85.5938 12.03V11.11H86.5938V12.03H85.5938ZM89.6573 17C88.5373 17 87.6273 16.08 87.6273 14.96V10.77L88.6973 10.5V14.96C88.6973 15.49 89.1373 15.92 89.6573 15.92L89.8473 16.46L89.6573 17ZM89.6621 17H89.6421L89.4721 16.46L89.6521 15.92H89.6621C90.1821 15.92 90.6221 15.49 90.6221 14.96V12.92H92.6521C93.7821 12.92 94.7021 13.83 94.7021 14.96C94.7021 16.09 93.7821 17 92.6521 17C92.0521 17 91.5121 16.71 91.1621 16.29C90.8121 16.71 90.2721 17 89.6621 17ZM91.7021 14.96C91.7021 15.49 92.1321 15.92 92.6521 15.92C93.1921 15.92 93.6121 15.49 93.6121 14.96C93.6121 14.43 93.1921 14.01 92.6521 14.01H91.7021V14.96ZM97.7237 17C96.6037 17 95.6937 16.08 95.6937 14.96V10.77L96.7637 10.5V14.96C96.7637 15.49 97.2037 15.92 97.7237 15.92L97.9137 16.46L97.7237 17ZM97.7285 17H97.7085L97.5385 16.46L97.7185 15.92H97.7285C98.2485 15.92 98.6885 15.49 98.6885 14.96V13.42H99.7685V15.15C99.7685 15.57 100.109 15.92 100.529 15.92C100.959 15.92 101.299 15.57 101.299 15.15V13.42H102.379V15.15C102.379 15.57 102.729 15.92 103.149 15.92C103.569 15.92 103.919 15.57 103.919 15.15V13.35L104.989 13.08V15.15C104.989 16.17 104.169 17 103.149 17C102.649 17 102.149 16.72 101.839 16.42C101.519 16.77 101.049 17 100.529 17C100.019 17 99.4685 16.67 99.1785 16.36C98.8185 16.75 98.2985 17 97.7285 17Z" fill="#8697A6"/>
<path d="M179.803 14.4711C179.795 16.5617 181.505 18.2634 183.621 18.2716C185.738 18.2799 187.461 16.5916 187.469 14.5011C187.477 12.4106 185.768 10.7076 183.651 10.6993C181.534 10.691 179.811 12.3793 179.803 14.4711Z" fill="#040506"/>
<path d="M194.03 14.4656C194.052 8.78671 189.393 4.14903 183.643 4.12656C177.892 4.10409 173.198 8.70522 173.176 14.3842C173.154 20.0631 177.813 24.6995 183.562 24.7219C185.301 24.7287 186.941 24.3111 188.386 23.571C187.574 21.7431 185.731 20.4611 183.579 20.4527C180.216 20.4396 177.5 17.7366 177.513 14.4167C177.526 11.0967 180.263 8.4151 183.626 8.42824C186.989 8.44138 189.862 11.3109 189.681 14.7586L189.711 14.7691L189.68 22.785C192.3 20.9212 194.015 17.8906 194.029 14.4656L194.03 14.4656Z" fill="#3F4ACF"/>
</svg>
