<svg width="12" height="11" viewBox="0 0 12 11" fill="none" xmlns="http://www.w3.org/2000/svg">
<path d="M6.17127 4.85416C5.99241 4.85416 5.84409 4.70583 5.84409 4.52697V3.07426C5.84409 2.8954 5.99241 2.74707 6.17127 2.74707C6.35014 2.74707 6.49846 2.8954 6.49846 3.07426V4.52697C6.49846 4.7102 6.35014 4.85416 6.17127 4.85416Z" fill="#757575"/>
<path d="M6.18002 9.14265C5.05449 9.14265 3.93333 8.96378 2.86452 8.60606C2.46753 8.47518 2.16652 8.19162 2.03564 7.8339C1.90477 7.47617 1.94839 7.0661 2.16215 6.70837L2.71619 5.78352C2.83834 5.57848 2.9474 5.19458 2.9474 4.95465V4.03852C2.9474 2.25426 4.39575 0.805908 6.18002 0.805908C7.96428 0.805908 9.41263 2.25426 9.41263 4.03852V4.95465C9.41263 5.19022 9.52169 5.57848 9.64384 5.78352L10.1979 6.70837C10.4029 7.04865 10.4378 7.45436 10.3026 7.82517C10.1673 8.19598 9.87069 8.47955 9.49552 8.60606C8.4267 8.96815 7.30554 9.14265 6.18002 9.14265ZM6.18002 1.46465C4.75784 1.46465 3.60178 2.62071 3.60178 4.04288V4.95901C3.60178 5.31237 3.46218 5.82278 3.27895 6.1238L2.72492 7.05301C2.61149 7.2406 2.58532 7.44127 2.65075 7.61577C2.71619 7.79027 2.86452 7.92115 3.07392 7.99095C5.08067 8.65841 7.28809 8.65841 9.29484 7.99095C9.48243 7.92987 9.62639 7.79027 9.69183 7.60705C9.76163 7.42382 9.73982 7.22315 9.63948 7.05301L9.08544 6.12816C8.90222 5.82715 8.76262 5.31673 8.76262 4.96337V4.04725C8.75825 2.62071 7.60219 1.46465 6.18002 1.46465Z" fill="#757575"/>
<path d="M6.17129 10.255C5.7045 10.255 5.24644 10.063 4.91489 9.7315C4.58334 9.39995 4.39139 8.94189 4.39139 8.4751H5.04576C5.04576 8.77175 5.16791 9.05967 5.37731 9.26907C5.58671 9.47847 5.87464 9.60062 6.17129 9.60062C6.79076 9.60062 7.29681 9.09457 7.29681 8.4751H7.95119C7.95119 9.45666 7.15285 10.255 6.17129 10.255Z" fill="#757575"/>
</svg>
