<svg width="100" height="225" viewBox="0 0 100 225" fill="none" xmlns="http://www.w3.org/2000/svg">
<g clip-path="url(#clip0_1170_4499)">
<path d="M3.92862 210.141L-2.33594 210.141L-2.33594 204.053L3.92862 204.053L3.92862 210.141Z" stroke="white" stroke-opacity="0.5" stroke-width="0.449336" stroke-miterlimit="10"/>
<path d="M51.7392 210.141L45.4746 210.141L45.4746 204.053L51.7392 204.053L51.7392 210.141Z" stroke="white" stroke-opacity="0.5" stroke-width="0.449336" stroke-miterlimit="10"/>
<path d="M99.5439 210.141L93.2793 210.141L93.2793 204.053L99.5439 204.053L99.5439 210.141Z" stroke="white" stroke-opacity="0.5" stroke-width="0.449336" stroke-miterlimit="10"/>
<path d="M3.92862 176.256L-2.33594 176.256L-2.33594 170.168L3.92862 170.168L3.92862 176.256Z" stroke="white" stroke-opacity="0.5" stroke-width="0.449336" stroke-miterlimit="10"/>
<path d="M51.7392 176.256L45.4746 176.256L45.4746 170.168L51.7392 170.168L51.7392 176.256Z" stroke="white" stroke-opacity="0.5" stroke-width="0.449336" stroke-miterlimit="10"/>
<path d="M99.5439 176.256L93.2793 176.256L93.2793 170.168L99.5439 170.168L99.5439 176.256Z" stroke="white" stroke-opacity="0.5" stroke-width="0.449336" stroke-miterlimit="10"/>
<path d="M3.92862 142.39L-2.33594 142.39L-2.33594 136.302L3.92862 136.302L3.92862 142.39Z" stroke="white" stroke-opacity="0.5" stroke-width="0.449336" stroke-miterlimit="10"/>
<path d="M51.7392 142.39L45.4746 142.39L45.4746 136.302L51.7392 136.302L51.7392 142.39Z" stroke="white" stroke-opacity="0.5" stroke-width="0.449336" stroke-miterlimit="10"/>
<path d="M99.5439 142.39L93.2793 142.39L93.2793 136.302L99.5439 136.302L99.5439 142.39Z" stroke="white" stroke-opacity="0.5" stroke-width="0.449336" stroke-miterlimit="10"/>
<path d="M3.92862 108.524L-2.33594 108.524L-2.33594 102.436L3.92862 102.436L3.92862 108.524Z" stroke="white" stroke-opacity="0.5" stroke-width="0.449336" stroke-miterlimit="10"/>
<path d="M51.7392 108.524L45.4746 108.524L45.4746 102.436L51.7392 102.436L51.7392 108.524Z" stroke="white" stroke-opacity="0.5" stroke-width="0.449336" stroke-miterlimit="10"/>
<path d="M99.5439 108.524L93.2793 108.524L93.2793 102.436L99.5439 102.436L99.5439 108.524Z" stroke="white" stroke-opacity="0.5" stroke-width="0.449336" stroke-miterlimit="10"/>
<path d="M3.92862 74.6389L-2.33594 74.6389L-2.33594 68.5506L3.92862 68.5506L3.92862 74.6389Z" stroke="white" stroke-opacity="0.5" stroke-width="0.449336" stroke-miterlimit="10"/>
<path d="M51.7392 74.6389L45.4746 74.6389L45.4746 68.5506L51.7392 68.5506L51.7392 74.6389Z" stroke="white" stroke-opacity="0.5" stroke-width="0.449336" stroke-miterlimit="10"/>
<path d="M99.5439 74.6389L93.2793 74.6389L93.2793 68.5506L99.5439 68.5506L99.5439 74.6389Z" stroke="white" stroke-opacity="0.5" stroke-width="0.449336" stroke-miterlimit="10"/>
<path d="M3.92862 40.7727L-2.33594 40.7727L-2.33594 34.6844L3.92862 34.6844L3.92862 40.7727Z" stroke="white" stroke-opacity="0.5" stroke-width="0.449336" stroke-miterlimit="10"/>
<path d="M51.7392 40.7727L45.4746 40.7727L45.4746 34.6844L51.7392 34.6844L51.7392 40.7727Z" stroke="white" stroke-opacity="0.5" stroke-width="0.449336" stroke-miterlimit="10"/>
<path d="M99.5439 40.7727L93.2793 40.7727L93.2793 34.6844L99.5439 34.6844L99.5439 40.7727Z" stroke="white" stroke-opacity="0.5" stroke-width="0.449336" stroke-miterlimit="10"/>
<path d="M3.92862 6.90649L-2.33594 6.90649L-2.33594 0.818204L3.92862 0.818204L3.92862 6.90649Z" stroke="white" stroke-opacity="0.5" stroke-width="0.449336" stroke-miterlimit="10"/>
<path d="M51.7392 6.90649L45.4746 6.90649L45.4746 0.818204L51.7392 0.818204L51.7392 6.90649Z" stroke="white" stroke-opacity="0.5" stroke-width="0.449336" stroke-miterlimit="10"/>
<path d="M99.5439 6.90649L93.2793 6.90649L93.2793 0.818204L99.5439 0.818204L99.5439 6.90649Z" stroke="white" stroke-opacity="0.5" stroke-width="0.449336" stroke-miterlimit="10"/>
</g>
<defs>
<clipPath id="clip0_1170_4499">
<rect width="151" height="225" fill="white" transform="matrix(1 7.76322e-09 8.21417e-09 -1 -51 225)"/>
</clipPath>
</defs>
</svg>
