<svg width="105" height="39" viewBox="0 0 105 39" fill="none" xmlns="http://www.w3.org/2000/svg">
<g clip-path="url(#clip0_1170_5751)">
<path d="M45.9437 11.9218C45.9199 11.8686 45.9139 11.8391 46.075 11.8509C46.0273 11.8745 45.9915 11.8982 45.9437 11.9218C45.9676 11.9691 46.0094 12.0341 45.9676 12.0991C46.3733 11.7682 46.8565 11.4018 47.3577 11.1064C47.3756 10.9823 47.3935 10.8582 47.4054 10.74C46.1526 11.455 44.8758 12.1168 44.0645 13.1036C44.8043 12.7195 45.2338 12.3118 45.9378 11.9218H45.9437Z" fill="#D9D9D9"/>
<path d="M47.2443 10.1787C47.2861 10.155 47.3278 10.1314 47.3756 10.1078C47.2204 10.0959 47.2204 10.1255 47.2443 10.1787Z" fill="#D9D9D9"/>
<path d="M25.4567 23.8878C24.705 24.3664 24.1681 25.0164 23.6133 25.6605C24.9735 24.65 26.4352 23.74 27.4016 22.8359C26.7633 23.1964 26.113 23.545 25.4567 23.8878Z" fill="#D9D9D9"/>
<path d="M20.7197 28.5682C21.7817 28.2195 22.4737 27.5932 23.0942 26.9077C22.3544 27.3864 21.6146 27.865 20.8748 28.3259C20.8271 28.4027 20.7675 28.4854 20.7197 28.5623V28.5682Z" fill="#D9D9D9"/>
<path d="M21.5254 27.4866C22.4203 27.0256 23.0288 26.3461 23.6135 25.6606C22.8439 26.2279 22.116 26.8306 21.5254 27.4866Z" fill="#D9D9D9"/>
<path d="M35.1574 10.6277C35.6168 10.0841 35.9151 9.78864 36.106 9.65864C36.1358 9.49319 36.1776 9.29228 36.2432 9.02637C36.2074 9.04409 36.1716 9.06182 36.1358 9.07955C35.6108 9.54637 35.0679 10.0014 34.5131 10.4505C34.3162 10.6868 34.1312 10.9291 34 11.1714C34.3878 11 34.7815 10.8168 35.1574 10.6277Z" fill="#D9D9D9"/>
<path d="M36.106 9.65864C35.8673 11.0532 36.8398 9.14455 36.106 9.65864V9.65864Z" fill="#D9D9D9"/>
<path d="M35.0798 16.8737C35.0798 16.8737 35.0202 16.9032 34.9903 16.9209C34.9128 16.9859 34.8352 17.0509 34.7577 17.1159C34.865 17.0332 34.9724 16.9564 35.0798 16.8737Z" fill="#D9D9D9"/>
<path d="M26.5546 18.286C27.0557 17.9847 27.539 17.6597 28.0043 17.311C27.002 17.9433 25.9938 18.5756 25.248 19.2788C25.3793 19.2138 25.5523 19.2256 25.6836 19.1606C25.8566 18.8592 26.1608 18.4869 26.5546 18.286Z" fill="#D9D9D9"/>
<path d="M38.7492 13.9844C37.4427 14.9358 36.1898 15.9226 34.9966 16.9212C32.2702 18.3749 29.7347 19.9467 27.7182 21.8612C25.9821 23.6162 22.2356 25.3476 20.8515 27.7644C21.0961 27.6817 21.3168 27.5871 21.5256 27.4808C21.281 27.7526 21.0603 28.0362 20.8694 28.3258C17.5702 30.4058 14.277 32.344 10.7512 34.1699C10.2262 34.4417 9.96964 34.8967 9.44464 35.1685C8.91964 35.458 8.41254 35.7417 7.89947 36.0312C7.90544 36.049 7.92334 36.0667 7.9472 36.0785C5.85316 37.3017 3.81879 38.5662 1.73669 39.9962C0.734415 40.6226 -0.357347 41.0835 -1.40138 41.6212C-1.79513 41.8221 -1.96814 41.4912 -2.27837 41.5444C-3.54314 41.6685 -4.50365 41.7394 -5.76843 42.1826C-5.76843 42.1826 -5.85792 42.0171 -5.89968 41.9344C-6.06672 42.0585 -6.2278 42.1353 -6.37695 42.1767C-6.31132 40.9476 -5.05848 39.8721 -6.91388 40.008C-6.84229 39.9371 -6.78263 39.8721 -6.72297 39.8071C-6.71104 39.8071 -6.70507 39.8012 -6.69911 39.7953C-6.69911 39.7953 -6.69911 39.7894 -6.70507 39.7894C-6.42468 39.4644 -6.29343 39.1926 -6.22184 38.8085C-6.44854 38.9267 -6.68121 39.0449 -6.90792 39.163C-6.92581 39.0212 -6.96161 38.8912 -7.04513 38.7849C-7.03917 38.7553 -7.0332 38.7199 -7.02127 38.6844C-6.91985 38.6312 -6.83632 38.5899 -6.83632 38.5899C-6.83632 38.5071 -6.84826 38.4303 -6.86615 38.3594C-6.45451 37.6917 -5.61331 37.0121 -5.97723 36.758C-6.2099 36.6517 -6.56786 37.0358 -7.00934 37.3962C-7.05706 37.3785 -7.10479 37.3667 -7.15252 37.3667C-6.54399 36.9471 -7.46274 36.7817 -7.11672 36.498C-6.59172 36.2262 -6.11445 35.8717 -5.59542 35.5999C-3.46559 34.4949 -1.71757 33.4844 0.239244 32.149C0.322767 32.0899 0.412256 32.0367 0.501744 31.9776C1.46226 31.3453 2.40487 30.8312 3.43101 30.3821C3.39521 30.4708 3.35941 30.5594 3.31765 30.648C4.14095 30.2876 4.95231 29.8917 5.68612 29.348C7.46993 27.9949 9.25373 26.6476 11.3 25.4776C13.4537 24.2721 15.4702 23.0076 17.5463 21.5717C16.735 22.2276 15.9177 22.8717 15.0168 23.4094C14.5932 23.6162 14.1756 23.829 13.7819 24.0594C14.2174 23.8703 14.6231 23.6517 15.0168 23.4094C16.6455 22.6058 18.3517 21.8494 19.175 20.4253C19.3481 20.4253 19.3898 20.508 19.5211 20.443C20.4338 19.9703 21.3944 19.5803 22.0029 18.8358C21.9611 18.753 22.3489 18.5462 22.1341 18.4517C22.8739 17.9612 23.7867 17.4885 24.4847 16.9153C24.7949 16.6849 25.0515 16.348 25.2841 15.9758C27.8495 14.073 30.385 12.1821 33.183 10.1908C33.8929 9.72396 34.758 9.26896 35.5157 8.87305C34.5432 9.72987 33.5171 10.563 32.4552 11.3785C31.2858 11.9044 30.2 12.4717 29.5319 13.364C29.3648 13.553 29.1978 13.7362 29.0248 13.9135C30.1881 13.0744 31.3395 12.2353 32.4492 11.3785C33.1412 11.0653 33.8571 10.7699 34.5313 10.4212C34.5194 10.433 34.5134 10.4449 34.5015 10.4626C34.0302 10.8467 33.5529 11.219 33.0637 11.5971C32.0256 12.064 31.0532 12.5662 30.379 13.299C30.2955 13.3876 30.212 13.488 30.1404 13.5826C29.9733 13.7717 29.8063 13.9549 29.6333 14.1321C30.3492 13.618 31.0651 13.098 31.7631 12.578C32.1986 12.253 32.6341 11.928 33.0577 11.603C33.362 11.4671 33.6722 11.3312 33.9824 11.1894C33.9645 11.2249 33.9407 11.2662 33.9228 11.3017C33.702 11.5203 33.4932 12.8853 34.0182 12.9326C36.0168 11.869 38.6299 10.0076 38.6776 10.0903C38.9819 10.3562 35.7722 12.584 35.9452 12.6017C36.16 12.5367 36.3688 12.4717 36.5776 12.3949C36.4285 12.5603 36.2853 12.7199 36.166 12.8853C35.8199 13.169 35.2532 13.358 35.0802 13.6653C34.4299 14.6403 33.2963 15.0185 32.4313 15.893C31.9123 16.484 31.3037 17.2226 30.6952 17.9671C30.7847 18.1326 30.3492 18.2567 30.564 18.3512C29.8242 18.7353 28.9711 19.1785 28.9174 19.8285C28.8995 19.8403 28.8875 19.858 28.8696 19.8699C28.8159 19.8994 28.7563 19.9644 28.7026 20.0412C27.4319 20.5908 26.8174 21.5008 25.8748 22.399C25.5168 22.6412 25.1409 22.8717 24.7412 23.0785C25.0037 22.9426 25.4392 22.8244 25.654 22.6058C25.7316 22.5408 25.8032 22.4699 25.8748 22.399C26.8054 21.7726 27.6347 21.0635 28.4819 20.3899C28.5356 20.3012 28.6131 20.1594 28.7026 20.0412C28.7742 20.0117 28.8458 19.9821 28.9174 19.9526C28.9174 19.9112 28.9174 19.8699 28.9174 19.8285C29.6929 19.1194 30.6654 18.5049 31.3037 17.8608C32.6043 16.8208 34.2211 16.1649 35.7245 15.444C35.0623 15.964 34.4179 16.4958 33.7915 17.0217C34.6088 16.413 35.3725 15.834 36.1063 15.2549C36.2316 15.1899 36.3569 15.1308 36.4821 15.0658L37.2696 14.658C37.0071 14.7467 36.7506 14.8471 36.4941 14.9476C36.9296 14.599 37.3591 14.2503 37.7767 13.8899C40.187 12.1408 42.7881 10.5335 45.5086 9.28668C45.5086 9.41668 45.5086 9.54668 45.4907 9.68259C44.2378 10.3976 42.9611 11.0594 42.1498 12.0462C42.8895 11.6621 43.3191 11.2544 44.0231 10.8644C44.0469 10.9117 44.0887 10.9767 44.0469 11.0417C44.4526 10.7108 44.9358 10.3444 45.437 10.049C45.3833 10.3503 45.3117 10.6635 45.2401 10.9708C45.0671 11.2721 44.6733 11.479 44.3273 11.7626C42.7106 12.7849 41.0878 13.5708 39.5248 14.6403C38.0214 15.379 36.5179 16.1176 35.0682 16.8917C36.3927 15.9049 37.5978 14.9712 38.7313 14.0021L38.7492 13.9844ZM-3.93689 38.909C-3.82354 38.8026 -3.70422 38.6903 -3.59087 38.578C-3.6207 38.5721 -3.65053 38.5603 -3.68632 38.5544C-3.81161 38.6194 -3.89513 38.7612 -3.94286 38.9149L-3.93689 38.909ZM-0.840585 37.4021C-1.81303 37.7212 -2.89286 38.5249 -3.96672 39.2517C-3.96672 39.2753 -3.95479 39.3049 -3.94286 39.3226C-2.94655 38.903 -1.87269 38.0876 -0.840585 37.4021ZM3.66368 37.278C3.66368 37.278 3.63981 37.2662 3.62788 37.2603C3.63385 37.2721 3.64578 37.284 3.65174 37.2958C3.65174 37.2899 3.65771 37.284 3.66368 37.2721V37.278ZM18.1728 26.358C17.3495 27.3153 16.0429 27.9949 14.8259 28.8399C14.4321 29.0408 14.2174 29.5785 13.6983 29.8503C13.0898 30.2699 12.7856 30.6421 12.3083 30.9967L12.7915 30.9612C11.831 31.3512 11.5745 32.1253 10.5722 32.4326C10.614 32.5153 10.5722 32.7517 10.4409 32.8167C9.83243 33.2362 9.08669 33.4135 8.65714 33.8508C8.04862 34.2703 7.39834 34.613 6.96282 35.0503C6.83157 35.1212 6.70629 35.5053 6.48555 35.724C6.18726 35.9249 5.87703 36.108 5.57277 36.2971C5.59663 36.3149 5.62646 36.3267 5.64436 36.3444C5.90686 36.2144 6.16339 36.0667 6.39606 35.8776C7.09407 35.3044 7.91737 34.6603 8.65714 34.1699C10.5304 32.988 12.183 31.6999 13.8356 30.4176C14.1816 30.134 14.4858 29.7617 14.8319 29.4721C15.8341 28.5267 17.3137 27.8649 17.785 26.8721C17.8745 26.7185 18.131 26.5826 18.1787 26.3521L18.1728 26.358ZM17.7194 21.9735C16.5321 23.043 15.0884 23.9944 13.752 24.603C12.708 25.1467 9.96964 27.203 11.0196 27.9358C11.3478 25.4421 19.6404 23.4153 17.7194 21.9735ZM27.8077 14.7821C27.3304 15.1958 26.8651 15.5917 26.2387 15.9108C26.7577 15.5326 27.2827 15.1544 27.8077 14.7821ZM24.0432 21.0753C25.4333 19.6099 27.2171 18.5758 28.7384 17.3644C29.9137 16.4367 31.5722 16.1058 32.4373 14.9121C32.3955 14.8294 32.3478 14.7467 32.306 14.664L32.2225 14.8176C31.7392 15.0067 31.2978 15.0658 30.8742 15.1958C30.8921 15.178 30.91 15.1603 30.9279 15.1367C30.8921 15.1603 30.8563 15.184 30.8205 15.2076C30.5401 15.2962 30.2716 15.4262 29.9972 15.6508C29.8779 15.763 29.7526 15.8753 29.6333 15.9876C28.0762 16.9803 26.4594 17.9849 25.2603 19.279C24.4787 20.0058 23.9179 20.8271 23.1364 21.554C23.3989 21.418 23.8344 21.2999 24.0492 21.0812L24.0432 21.0753Z" fill="#D9D9D9"/>
<path d="M36.2315 15.0362C36.7445 14.6402 37.2576 14.2502 37.7886 13.8662C38.1764 13.5352 38.5582 13.1925 38.934 12.8439C40.7954 11.3075 43.3249 10.1907 45.4727 8.81979C45.407 8.54206 45.2817 8.28206 45.067 8.06934C42.4778 9.06797 40.2644 10.7816 37.7468 11.9102C37.7349 11.928 37.717 11.9457 37.705 11.9693C36.9235 13.0152 35.1397 13.7302 34.0539 14.8234C33.0099 16.0052 31.7928 16.8502 30.707 17.9434C32.5923 16.9625 34.2925 15.8516 36.2374 15.0362H36.2315Z" fill="#D9D9D9"/>
<path d="M23.088 26.9075C23.5712 26.5943 24.0604 26.2752 24.5496 25.9502C25.886 25.0047 27.0374 24.0888 28.1829 23.1079C27.2462 23.6515 26.2917 24.1775 25.3192 24.6856C24.3886 25.2825 23.786 26.1275 23.082 26.9075H23.088Z" fill="#D9D9D9"/>
<path d="M29.1136 22.3103C28.8034 22.588 28.4931 22.8539 28.1829 23.1139C29.573 22.3103 30.9332 21.4771 32.2874 20.638C34.4292 19.0958 36.5889 17.5949 38.6769 15.9521C38.9156 15.7689 39.1602 15.5976 39.4048 15.4321C35.0377 17.5771 30.6826 19.7162 27.5803 22.6708C27.5267 22.7299 27.461 22.783 27.4014 22.8421C29.1136 21.8789 30.7721 20.8626 32.4247 19.8403C31.309 20.6439 30.2053 21.4594 29.1195 22.3162L29.1136 22.3103Z" fill="#D9D9D9"/>
<path d="M35.7361 15.42C35.8673 15.3609 35.9926 15.2959 36.1179 15.2368C36.2492 15.1364 36.3804 15.03 36.5057 14.9296C36.4162 14.965 36.3207 15.0064 36.2313 15.0418C36.0642 15.1718 35.8972 15.2959 35.7361 15.4259V15.42Z" fill="#D9D9D9"/>
<path d="M30.8679 15.1958C30.8679 15.1958 30.8321 15.2076 30.8142 15.2135C30.4264 15.4735 30.0267 15.7335 29.627 15.9935C29.1199 16.4485 28.583 16.8917 28.0103 17.3172C29.0901 16.6376 30.158 15.9581 30.8739 15.2017L30.8679 15.1958Z" fill="#D9D9D9"/>
<path d="M26.185 15.0655C26.0537 15.1305 25.7912 15.2664 25.66 15.3373C25.6063 15.4318 25.5526 15.5205 25.5049 15.6091C25.6302 15.55 25.7555 15.4909 25.8807 15.4318L26.185 15.0596V15.0655Z" fill="#D9D9D9"/>
<path d="M19.1864 20.4194C21.3282 18.8948 23.3208 17.4235 25.2895 15.9639C25.3611 15.8516 25.4327 15.7335 25.5043 15.6094C24.0307 16.3066 22.6526 17.1576 21.5728 18.3098C21.358 18.5285 21.0955 18.9835 20.833 19.1194C19.6398 19.8403 18.6018 20.7148 17.5518 21.5657C18.0768 21.2053 18.6018 20.833 19.1387 20.4489C19.1566 20.4371 19.1685 20.4253 19.1864 20.4194Z" fill="#D9D9D9"/>
<path d="M67.6474 8.45869C67.7846 8.38778 67.9099 8.32278 67.9099 8.32278C67.898 8.29323 67.8801 8.2696 67.8622 8.24005C67.7787 8.31687 67.713 8.38778 67.6474 8.45869Z" fill="#D9D9D9"/>
<path d="M67.9218 9.59911C67.9218 9.59911 67.9755 9.56957 68.0054 9.55775C67.9815 9.54002 67.9696 9.51638 67.9517 9.49866C67.9397 9.53411 67.9338 9.56957 67.9218 9.59911Z" fill="#D9D9D9"/>
<path d="M67.8622 8.24004C67.6772 7.94458 67.4088 7.6964 67.379 7.31822C67.5281 7.2414 67.8204 7.08777 67.9636 7.01095C68.0233 6.76868 67.7846 6.68004 67.6951 6.50868C67.8443 6.43186 67.9875 6.35504 67.9457 6.27231C67.9278 6.00049 67.6892 5.9414 67.379 6.03595C67.2477 7.30049 65.8159 8.4764 67.8622 8.23413V8.24004Z" fill="#D9D9D9"/>
<path d="M67.0508 9.52231C67.3073 9.3864 67.5639 9.2564 67.8204 9.12049C67.7965 8.88413 67.8025 8.63595 67.6235 8.48822C67.3014 8.83686 67.1403 9.1264 67.0448 9.52231H67.0508Z" fill="#D9D9D9"/>
<path d="M30.5214 27.7044C31.3686 27.1726 31.989 26.4753 32.6274 25.7839C31.0882 26.8889 29.4416 27.9053 28.3379 28.8862C29.0598 28.4844 29.7816 28.0885 30.5214 27.7044Z" fill="#D9D9D9"/>
<path d="M35.9505 22.6464C34.7693 23.0601 33.9758 23.7455 33.2659 24.4782C34.1011 23.9464 34.9363 23.4205 35.7716 22.9005C35.8312 22.8178 35.8968 22.7351 35.9505 22.6464Z" fill="#D9D9D9"/>
<path d="M35.0139 23.8046C34.0056 24.3246 33.3136 25.0514 32.6335 25.79C33.5045 25.1637 34.3338 24.5077 35.0139 23.8046Z" fill="#D9D9D9"/>
<path d="M19.6221 35.4161C19.6579 35.3983 19.6877 35.3806 19.7235 35.3629C19.813 35.292 19.9025 35.2211 19.986 35.1501C19.8607 35.2388 19.7474 35.3274 19.6221 35.4161Z" fill="#D9D9D9"/>
<path d="M29.0419 33.5192C28.4811 33.856 27.9322 34.2165 27.4072 34.5947C28.5348 33.8915 29.6743 33.1883 30.5274 32.426C30.3842 32.5028 30.1873 32.4969 30.0442 32.5738C29.8413 32.8928 29.4893 33.2888 29.0479 33.5192H29.0419Z" fill="#D9D9D9"/>
<path d="M15.4637 38.5775C16.9432 37.5316 18.3691 36.4502 19.7233 35.357C22.7838 33.7202 25.6475 31.9711 27.9503 29.897C29.9429 28.0061 34.137 26.0266 35.7716 23.4679C35.5032 23.5625 35.2526 23.6747 35.0139 23.7929C35.3003 23.4975 35.5509 23.202 35.7716 22.8888C39.4884 20.5784 43.1992 18.4156 47.1546 16.3475C47.7392 16.0402 48.0495 15.5616 48.6341 15.2543C49.2188 14.9293 49.7975 14.6102 50.3702 14.2911C50.3642 14.2734 50.3463 14.2556 50.3225 14.2497C52.679 12.8847 54.9699 11.4784 57.3265 9.90065C58.454 9.20337 59.677 8.67746 60.8463 8.06292C61.2878 7.83246 61.4668 8.16928 61.8009 8.09837C63.1969 7.90337 64.2529 7.77928 65.6608 7.25928C65.6608 7.25928 65.7503 7.42474 65.7921 7.50746C65.977 7.37155 66.162 7.28292 66.323 7.22974C66.1918 8.49428 64.76 9.67019 66.8063 9.42792C66.7287 9.50474 66.6571 9.57565 66.5915 9.64655C66.5796 9.64655 66.5736 9.65837 66.5617 9.66428C66.5617 9.66428 66.5617 9.67019 66.5676 9.67019C66.2455 10.0188 66.0844 10.3084 65.9889 10.7043C66.2455 10.5684 66.502 10.4384 66.7585 10.3025C66.7705 10.4443 66.8003 10.5802 66.8898 10.6806C66.8779 10.7161 66.8719 10.7456 66.86 10.7811C66.7466 10.8402 66.6512 10.8934 66.6512 10.8934C66.6512 10.9761 66.6512 11.0588 66.6691 11.1297C66.1858 11.8388 65.2253 12.5775 65.6131 12.8197C65.8637 12.9143 66.2753 12.5066 66.7764 12.1047C66.8242 12.1166 66.8838 12.1284 66.9316 12.1284C66.2455 12.5952 67.2418 12.7134 66.848 13.0266C66.2634 13.3338 65.7205 13.7238 65.1358 14.0311C62.7495 15.2779 60.7807 16.4125 58.5674 17.8838C58.4719 17.9488 58.3705 18.0138 58.275 18.0729C57.1952 18.7702 56.1273 19.3493 54.9818 19.8634C55.0236 19.7688 55.0654 19.6743 55.1191 19.5856C54.1943 19.9993 53.2875 20.4484 52.4583 21.0452C50.4358 22.5284 48.4134 24.0116 46.1165 25.3175C43.6943 26.6647 41.4213 28.077 39.0708 29.6606C39.9895 28.9397 40.9202 28.2425 41.9344 27.6397C42.4117 27.4034 42.877 27.1611 43.3245 26.907C42.8412 27.1256 42.3818 27.3738 41.9344 27.6397C40.1088 28.5497 38.1997 29.4184 37.2213 30.9252C37.0364 30.937 36.9887 30.8484 36.8455 30.9252C35.8193 31.4629 34.7455 31.912 34.0475 32.7038C34.0892 32.7866 33.6537 33.017 33.8864 33.1056C33.0512 33.6493 32.025 34.187 31.2316 34.8075C30.8796 35.0616 30.5872 35.4161 30.3068 35.812C27.3955 37.9038 24.5259 39.9779 21.358 42.1702C20.5585 42.6902 19.5861 43.1984 18.733 43.6475C19.8426 42.7138 21.012 41.8097 22.2111 40.9175C23.5176 40.3147 24.7347 39.6766 25.5162 38.7252C25.7071 38.5243 25.898 38.3293 26.0949 38.1343C24.7764 39.0561 23.4759 39.9779 22.2111 40.9175C21.4415 41.272 20.6361 41.6206 19.8844 42.0106C19.8963 41.9988 19.9083 41.9811 19.9202 41.9693C20.4571 41.5497 21 41.142 21.5489 40.7284C22.7122 40.1906 23.804 39.6293 24.5736 38.8375C24.6691 38.737 24.7645 38.6366 24.848 38.5302C25.0389 38.3293 25.2299 38.1343 25.4267 37.9393C24.6154 38.5066 23.81 39.0797 23.0105 39.6529C22.5154 40.0075 22.0262 40.3679 21.5429 40.7225C21.2029 40.882 20.8568 41.0356 20.5108 41.1952C20.5347 41.1538 20.5645 41.1184 20.5824 41.077C20.833 40.8406 21.1313 39.4284 20.5585 39.4106C18.3154 40.6102 15.3563 42.6606 15.3085 42.5779C14.9864 42.3179 18.6196 39.8656 18.4287 39.8538C18.1901 39.9306 17.9574 40.0134 17.7247 40.0961C17.8918 39.9188 18.0588 39.7475 18.202 39.5702C18.5958 39.257 19.2282 39.0325 19.431 38.7134C20.1887 37.6793 21.4534 37.2302 22.4497 36.2847C23.0523 35.6525 23.7503 34.8606 24.4543 34.0629C24.3648 33.8975 24.854 33.7497 24.6154 33.6611C25.4446 33.2297 26.3992 32.7275 26.4946 32.0597C26.5125 32.042 26.5304 32.0302 26.5483 32.0125C26.608 31.9829 26.6736 31.912 26.7452 31.8293C28.1651 31.197 28.881 30.2338 29.9608 29.2588C30.3665 28.9929 30.7901 28.7388 31.2375 28.5025C30.9452 28.6561 30.462 28.8038 30.2114 29.0402C30.1279 29.1111 30.0443 29.1879 29.9608 29.2588C28.9049 29.9502 27.9682 30.7243 27.0017 31.457C26.9421 31.5516 26.8466 31.7052 26.7452 31.8293C26.6676 31.8647 26.5901 31.9002 26.5066 31.9297C26.5066 31.9711 26.5066 32.0184 26.5006 32.0597C25.6176 32.8279 24.5139 33.5134 23.7861 34.2047C22.3125 35.3393 20.4989 36.1016 18.8165 36.9229C19.5682 36.3497 20.302 35.7766 21.0179 35.1975C20.0932 35.8652 19.2222 36.4975 18.3929 37.1356C18.2497 37.2066 18.1125 37.2775 17.9693 37.3484L17.0864 37.8093C17.3787 37.7029 17.6651 37.5906 17.9514 37.4725C17.4563 37.8566 16.9671 38.2347 16.4958 38.6247C13.7634 40.5511 10.8341 42.3356 7.7915 43.7597C7.7915 43.6297 7.8094 43.4938 7.8273 43.352C9.23525 42.5543 10.6671 41.8038 11.6037 40.7461C10.7745 41.1775 10.2793 41.6266 9.49179 42.0579C9.46792 42.0106 9.4202 41.9456 9.47389 41.8806C9.01452 42.2411 8.46565 42.6429 7.89889 42.9738C7.97048 42.6606 8.06594 42.3356 8.15542 42.0166C8.35827 41.6975 8.79974 41.467 9.19349 41.1538C11.0191 40.0134 12.8387 39.1211 14.6046 37.9393C16.2929 37.1002 17.9753 36.2611 19.604 35.3925C18.1066 36.4738 16.7344 37.4961 15.4458 38.5597L15.4637 38.5775ZM63.5012 10.7161C63.3699 10.8284 63.2327 10.9525 63.1014 11.0766C63.1372 11.0825 63.1671 11.0884 63.2029 11.1002C63.3461 11.0234 63.4415 10.8756 63.5012 10.7161ZM60.029 12.4238C61.1148 12.0397 62.3378 11.1593 63.5489 10.3616C63.5489 10.332 63.537 10.3084 63.525 10.2906C62.4094 10.7752 61.1983 11.6675 60.029 12.4238ZM55.0833 12.7902C55.0833 12.7902 55.1071 12.802 55.1191 12.802C55.1131 12.7902 55.1012 12.7784 55.0952 12.7666C55.0952 12.7725 55.0833 12.7843 55.0773 12.7902H55.0833ZM38.6293 24.7738C39.5779 23.7456 41.0455 22.9775 42.4236 22.0438C42.8651 21.8134 43.1276 21.252 43.7122 20.9447C44.4043 20.4779 44.7503 20.082 45.2932 19.692L44.7622 19.757C45.8361 19.302 46.1523 18.4984 47.2679 18.1261C47.2262 18.0434 47.2799 17.8011 47.429 17.7243C48.1151 17.2575 48.9384 17.0447 49.4395 16.572C50.1256 16.1052 50.8594 15.7211 51.3605 15.2484C51.5097 15.1716 51.6648 14.7697 51.9154 14.5334C52.2554 14.3147 52.6015 14.102 52.9475 13.8952C52.9176 13.8834 52.8938 13.8656 52.8699 13.8538C52.5776 14.0016 52.2853 14.167 52.0228 14.3738C51.2293 15.0002 50.2926 15.7034 49.4574 16.247C47.3455 17.5647 45.4722 18.9652 43.5989 20.3716C43.2051 20.6847 42.8532 21.0806 42.4594 21.3938C41.3199 22.4161 39.6614 23.1784 39.0887 24.2184C38.9872 24.3779 38.6949 24.5316 38.6353 24.7738H38.6293ZM38.9157 29.247C40.2699 28.0829 41.8986 27.0311 43.396 26.3397C44.5713 25.7252 47.6736 23.4679 46.558 22.7706C46.0747 25.347 36.8813 27.8702 38.9157 29.247ZM27.5029 37.1652C28.0458 36.7161 28.5767 36.2847 29.2747 35.9184C28.6841 36.3379 28.0935 36.7516 27.5029 37.1652ZM31.9415 30.5056C30.3486 32.0834 28.3381 33.2416 26.608 34.5711C25.2716 35.5875 23.4401 36.0129 22.4318 37.2834C22.4736 37.3661 22.5213 37.4488 22.5631 37.5316L22.6645 37.372C23.2074 37.1534 23.6907 37.0706 24.162 36.917C24.1441 36.9347 24.1202 36.9584 24.0963 36.9761C24.1381 36.9466 24.1799 36.9229 24.2216 36.8934C24.5318 36.787 24.8361 36.6393 25.1463 36.397C25.2836 36.2729 25.4208 36.1488 25.5639 36.0306C27.3179 34.9256 29.1435 33.8088 30.5216 32.4202C31.4165 31.6343 32.0728 30.7597 32.9676 29.9738C32.6753 30.1275 32.1921 30.2752 31.9415 30.5116V30.5056Z" fill="#D9D9D9"/>
<path d="M18.2733 37.3657C17.6947 37.7971 17.11 38.2285 16.5074 38.648C16.066 39.0085 15.6305 39.3807 15.2009 39.7589C13.083 41.4371 10.2552 42.7194 7.83301 44.238C7.8867 44.5216 8.01198 44.7757 8.24465 44.9885C11.1381 43.8244 13.6438 41.9453 16.4597 40.6512C16.4776 40.6335 16.4955 40.6098 16.5074 40.5921C17.4143 39.4812 19.4069 38.648 20.6537 37.4662C21.8529 36.2016 23.231 35.268 24.4719 34.0862C22.354 35.1912 20.433 36.4262 18.2674 37.3598L18.2733 37.3657Z" fill="#D9D9D9"/>
<path d="M33.2658 24.4783C32.717 24.8269 32.1681 25.1815 31.6133 25.536C30.0979 26.576 28.7974 27.5805 27.4849 28.6501C28.5408 28.0415 29.6087 27.4505 30.7005 26.8774C31.7505 26.2155 32.4485 25.3115 33.2599 24.4783H33.2658Z" fill="#D9D9D9"/>
<path d="M26.4288 29.5247C26.7868 29.2233 27.1328 28.9338 27.4848 28.6501C25.9217 29.5483 24.3885 30.4761 22.8612 31.4097C20.4391 33.1056 17.993 34.7661 15.6246 36.5624C15.3501 36.7633 15.0817 36.9524 14.8013 37.1356C19.6933 34.7011 24.5734 32.2724 28.1291 29.0756C28.1947 29.0165 28.2663 28.9515 28.3379 28.8924C26.4109 29.9679 24.5436 31.1024 22.6822 32.2429C23.941 31.3565 25.1998 30.4642 26.4288 29.5247Z" fill="#D9D9D9"/>
<path d="M18.8344 36.9465C18.6912 37.0174 18.548 37.0884 18.4049 37.1593C18.2557 37.2715 18.1125 37.3838 17.9634 37.4961C18.0648 37.4547 18.1722 37.4074 18.2736 37.3661C18.4585 37.2243 18.6495 37.0884 18.8344 36.9465Z" fill="#D9D9D9"/>
<path d="M24.1622 36.9226C24.1622 36.9226 24.204 36.9108 24.2219 36.9049C24.6574 36.6153 25.1108 36.3258 25.5642 36.0422C26.1369 35.5458 26.7574 35.0613 27.4017 34.6003C26.1847 35.3567 24.9795 36.1131 24.1562 36.9285L24.1622 36.9226Z" fill="#D9D9D9"/>
<path d="M29.2926 36.7987C29.4417 36.7219 29.7341 36.5683 29.8772 36.4914C29.9369 36.3969 30.0025 36.2964 30.0622 36.2019C29.925 36.2669 29.7818 36.3378 29.6386 36.4028L29.2866 36.7987H29.2926Z" fill="#D9D9D9"/>
<path d="M37.2276 30.9308C34.7994 32.6149 32.5443 34.2281 30.3131 35.8294C30.2295 35.9535 30.146 36.0776 30.0625 36.2017C31.7091 35.404 33.2662 34.4585 34.5071 33.2235C34.7577 32.9872 35.0619 32.5085 35.3543 32.3549C36.7026 31.5513 37.8838 30.594 39.071 29.6663C38.4804 30.0681 37.8838 30.4758 37.2753 30.8954C37.2574 30.9072 37.2395 30.919 37.2216 30.9308H37.2276Z" fill="#D9D9D9"/>
<path d="M88.6225 2.45923C88.7265 2.40551 88.8214 2.35626 88.8214 2.35626C88.8124 2.33387 88.7988 2.31597 88.7852 2.29358C88.722 2.35178 88.6722 2.40551 88.6225 2.45923Z" fill="#D9D9D9"/>
<path d="M88.8304 3.3233C88.8304 3.3233 88.8711 3.30092 88.8937 3.29196C88.8756 3.27853 88.8665 3.26062 88.853 3.24719C88.8439 3.27406 88.8394 3.30092 88.8304 3.3233Z" fill="#D9D9D9"/>
<path d="M88.7851 2.29353C88.645 2.06967 88.4416 1.88162 88.419 1.59508C88.532 1.53688 88.7535 1.42047 88.862 1.36227C88.9072 1.17871 88.7264 1.11155 88.6586 0.981711C88.7716 0.923508 88.8801 0.865304 88.8484 0.802624C88.8349 0.596673 88.6541 0.551902 88.419 0.623537C88.3196 1.58165 87.2347 2.47261 88.7851 2.28905V2.29353Z" fill="#D9D9D9"/>
<path d="M88.1705 3.26507C88.3649 3.1621 88.5593 3.0636 88.7536 2.96063C88.7356 2.78154 88.7401 2.5935 88.6045 2.48157C88.3604 2.74572 88.2383 2.9651 88.166 3.26507H88.1705Z" fill="#D9D9D9"/>
<path d="M35.0224 33.1779C35.045 33.2182 35.045 33.2406 34.9139 33.2361C34.9546 33.2137 34.9862 33.1958 35.0224 33.1779C35.0043 33.1421 34.9681 33.0928 35.0088 33.0436C34.6608 33.3167 34.2449 33.6211 33.8155 33.8719C33.7929 33.9704 33.7748 34.0644 33.7612 34.1584C34.828 33.554 35.9129 32.9854 36.6271 32.184C35.9987 32.5108 35.6236 32.8511 35.0269 33.1779H35.0224Z" fill="#D9D9D9"/>
<path d="M33.879 34.5834C33.8428 34.6058 33.8067 34.6237 33.7705 34.6461C33.9016 34.6505 33.9016 34.6237 33.879 34.5834Z" fill="#D9D9D9"/>
<path d="M52.4933 23.0414C53.1351 22.6384 53.6052 22.1101 54.0889 21.5863C52.9227 22.4235 51.6751 23.1936 50.8389 23.9368C51.3858 23.6324 51.9328 23.3324 52.4933 23.0414Z" fill="#D9D9D9"/>
<path d="M56.6064 19.2089C55.7114 19.5223 55.1102 20.0416 54.5723 20.5968C55.2051 20.1938 55.8379 19.7954 56.4708 19.4014C56.516 19.3387 56.5657 19.276 56.6064 19.2089Z" fill="#D9D9D9"/>
<path d="M55.8968 20.0863C55.1329 20.4803 54.6086 21.031 54.0933 21.5906C54.7532 21.1161 55.3815 20.6191 55.8968 20.0863Z" fill="#D9D9D9"/>
<path d="M43.9407 33.7507C43.5384 34.194 43.2762 34.4313 43.118 34.5432C43.0909 34.673 43.0457 34.8342 42.9824 35.0402C43.0095 35.0267 43.0412 35.0088 43.0728 34.9954C43.5294 34.6104 43.995 34.2343 44.4741 33.8627C44.6459 33.6702 44.8086 33.4776 44.9261 33.2806C44.5961 33.4329 44.2662 33.5851 43.9452 33.7507H43.9407Z" fill="#D9D9D9"/>
<path d="M43.1134 34.543C42.4851 34.9728 43.362 33.4461 43.1134 34.543V34.543Z" fill="#D9D9D9"/>
<path d="M44.2344 28.884C44.2615 28.8705 44.2841 28.8571 44.3112 28.8437C44.379 28.7899 44.4468 28.7362 44.5101 28.6825C44.4152 28.7497 44.3293 28.8168 44.2344 28.884Z" fill="#D9D9D9"/>
<path d="M51.3723 27.4468C50.9474 27.702 50.5316 27.9751 50.1338 28.2617C50.9881 27.7289 51.8515 27.1961 52.4979 26.6185C52.3894 26.6767 52.2402 26.6723 52.1317 26.7305C51.978 26.9722 51.7113 27.2722 51.3769 27.4468H51.3723Z" fill="#D9D9D9"/>
<path d="M41.084 31.2792C42.205 30.4867 43.2854 29.6674 44.3115 28.8391C46.6303 27.5989 48.8 26.2737 50.5449 24.7022C52.0546 23.2695 55.2323 21.7696 56.4709 19.831C56.2675 19.9026 56.0776 19.9877 55.8968 20.0773C56.1138 19.8534 56.3036 19.6295 56.4709 19.3922C59.287 17.6417 62.0986 16.003 65.0955 14.436C65.5385 14.2032 65.7735 13.8405 66.2165 13.6077C66.6595 13.3615 67.0979 13.1197 67.5319 12.8779C67.5274 12.8645 67.5138 12.8511 67.4957 12.8466C69.2812 11.8124 71.017 10.7468 72.8025 9.5514C73.6568 9.02309 74.5834 8.62462 75.4694 8.15899C75.8039 7.98438 75.9395 8.23958 76.1926 8.18586C77.2504 8.03811 78.0505 7.94409 79.1172 7.5501C79.1172 7.5501 79.185 7.67546 79.2167 7.73814C79.3568 7.63516 79.4969 7.568 79.619 7.52771C79.5195 8.48583 78.4347 9.37679 79.9851 9.19322C79.9264 9.25143 79.8721 9.30515 79.8224 9.35888C79.8134 9.35888 79.8088 9.36783 79.7998 9.37231C79.7998 9.37231 79.7998 9.37679 79.8043 9.37679C79.5602 9.64094 79.4382 9.86032 79.3658 10.1603C79.5602 10.0573 79.7546 9.95882 79.949 9.85584C79.958 9.9633 79.9806 10.0663 80.0484 10.1424C80.0394 10.1692 80.0348 10.1916 80.0258 10.2185C79.9399 10.2633 79.8676 10.3036 79.8676 10.3036C79.8676 10.3662 79.8676 10.4289 79.8812 10.4827C79.515 11.0199 78.7873 11.5796 79.0811 11.7631C79.2709 11.8348 79.5828 11.5258 79.9625 11.2214C79.9987 11.2303 80.0439 11.2393 80.08 11.2393C79.5602 11.593 80.3151 11.6825 80.0168 11.9198C79.5738 12.1526 79.1624 12.4481 78.7195 12.6809C76.9114 13.6256 75.4197 14.4853 73.7427 15.6001C73.6704 15.6493 73.5935 15.6986 73.5212 15.7433C72.703 16.2716 71.8939 16.7104 71.026 17.0999C71.0577 17.0283 71.0893 16.9567 71.13 16.8895C70.4294 17.2029 69.7423 17.5432 69.114 17.9954C67.5816 19.1191 66.0492 20.2429 64.309 21.2324C62.4737 22.2532 60.7515 23.3232 58.9706 24.5231C59.6667 23.9769 60.3718 23.4486 61.1403 22.9919C61.5019 22.8128 61.8545 22.6292 62.1935 22.4367C61.8274 22.6024 61.4793 22.7904 61.1403 22.9919C59.7571 23.6814 58.3106 24.3395 57.5693 25.4812C57.4292 25.4902 57.393 25.423 57.2845 25.4812C56.507 25.8886 55.6934 26.2289 55.1645 26.8288C55.1962 26.8915 54.8662 27.0661 55.0425 27.1333C54.4097 27.5452 53.6322 27.9526 53.031 28.4227C52.7643 28.6152 52.5428 28.8839 52.3303 29.1838C50.1245 30.7688 47.9502 32.3403 45.55 34.0013C44.9443 34.3953 44.2075 34.7803 43.5611 35.1206C44.4019 34.4132 45.2878 33.7282 46.1964 33.0521C47.1863 32.5955 48.1085 32.1119 48.7006 31.3911C48.8453 31.2389 48.9899 31.0911 49.1391 30.9434C48.1401 31.6418 47.1547 32.3403 46.1964 33.0521C45.6133 33.3208 45.0031 33.5849 44.4335 33.8804C44.4425 33.8714 44.4516 33.858 44.4606 33.8491C44.8674 33.5312 45.2788 33.2223 45.6946 32.9089C46.5761 32.5014 47.4033 32.0761 47.9864 31.4762C48.0587 31.4 48.1311 31.3239 48.1943 31.2433C48.339 31.0911 48.4836 30.9434 48.6328 30.7956C48.018 31.2254 47.4078 31.6597 46.8021 32.094C46.4269 32.3626 46.0563 32.6357 45.6901 32.9044C45.4325 33.0253 45.1703 33.1417 44.9081 33.2626C44.9262 33.2312 44.9488 33.2043 44.9624 33.173C45.1522 32.9939 45.3782 31.9239 44.9443 31.9104C43.2447 32.8193 41.0026 34.3729 40.9665 34.3102C40.7224 34.1132 43.4752 32.2552 43.3306 32.2462C43.1498 32.3044 42.9735 32.3671 42.7972 32.4298C42.9237 32.2955 43.0503 32.1656 43.1588 32.0313C43.4571 31.794 43.9363 31.6239 44.09 31.3821C44.664 30.5986 45.6223 30.2584 46.3772 29.542C46.8337 29.063 47.3626 28.463 47.896 27.8586C47.8282 27.7332 48.1989 27.6213 48.018 27.5541C48.6464 27.2273 49.3696 26.8467 49.4419 26.3408C49.4555 26.3274 49.469 26.3184 49.4826 26.305C49.5278 26.2826 49.5775 26.2289 49.6318 26.1662C50.7076 25.6872 51.25 24.9574 52.0682 24.2186C52.3756 24.0172 52.6965 23.8247 53.0355 23.6456C52.814 23.762 52.4479 23.8739 52.258 24.053C52.1947 24.1067 52.1315 24.1649 52.0682 24.2186C51.2681 24.7425 50.5584 25.329 49.8261 25.8842C49.7809 25.9558 49.7086 26.0722 49.6318 26.1662C49.573 26.1931 49.5142 26.2199 49.451 26.2423C49.451 26.2737 49.451 26.3095 49.4464 26.3408C48.7774 26.9229 47.9412 27.4422 47.3897 27.966C46.2732 28.8257 44.8991 29.4032 43.6244 30.0255C44.1939 29.5913 44.7499 29.157 45.2923 28.7182C44.5917 29.2241 43.9318 29.7032 43.3034 30.1867C43.195 30.2405 43.091 30.2942 42.9825 30.3479L42.3135 30.6971C42.535 30.6165 42.752 30.5315 42.969 30.4419C42.5938 30.7329 42.2231 31.0195 41.866 31.315C39.7957 32.7745 37.5763 34.1266 35.271 35.2056C35.271 35.1072 35.2846 35.0042 35.2981 34.8967C36.3649 34.2923 37.4497 33.7237 38.1594 32.9223C37.5311 33.2491 37.1559 33.5894 36.5593 33.9162C36.5412 33.8804 36.505 33.8312 36.5457 33.7819C36.1976 34.055 35.7818 34.3595 35.3524 34.6102C35.4066 34.3729 35.4789 34.1266 35.5467 33.8849C35.7004 33.6431 36.0349 33.4685 36.3333 33.2312C37.7164 32.3671 39.0951 31.6911 40.4331 30.7956C41.7123 30.1599 42.987 29.5241 44.2211 28.866C43.0865 29.6853 42.0468 30.4598 41.0705 31.2657L41.084 31.2792ZM77.4809 10.1692C77.3815 10.2543 77.2775 10.3483 77.1781 10.4424C77.2052 10.4468 77.2278 10.4513 77.2549 10.4603C77.3634 10.4021 77.4357 10.2901 77.4809 10.1692ZM74.8501 11.4632C75.6728 11.1721 76.5995 10.505 77.5171 9.90062C77.5171 9.87823 77.508 9.86032 77.499 9.84689C76.6537 10.214 75.7361 10.8901 74.8501 11.4632ZM71.1029 11.7407C71.1029 11.7407 71.1209 11.7497 71.13 11.7497C71.1255 11.7407 71.1164 11.7318 71.1119 11.7228C71.1119 11.7273 71.1029 11.7363 71.0984 11.7407H71.1029ZM58.6361 20.8205C59.3548 20.0414 60.4668 19.4594 61.5109 18.752C61.8454 18.5774 62.0443 18.1521 62.4873 17.9192C63.0117 17.5656 63.2738 17.2656 63.6852 16.9701L63.2829 17.0193C64.0965 16.6746 64.3361 16.0657 65.1814 15.7836C65.1497 15.721 65.1904 15.5374 65.3034 15.4792C65.8232 15.1255 66.447 14.9643 66.8267 14.6061C67.3466 14.2524 67.9025 13.9614 68.2822 13.6032C68.3952 13.545 68.5128 13.2406 68.7026 13.0615C68.9603 12.8959 69.2225 12.7347 69.4846 12.578C69.462 12.569 69.4439 12.5556 69.4259 12.5466C69.2044 12.6586 68.9829 12.7839 68.784 12.9406C68.1828 13.4152 67.4731 13.948 66.8403 14.3599C65.2401 15.3583 63.8208 16.4194 62.4014 17.485C62.1031 17.7223 61.8364 18.0222 61.5381 18.2595C60.6747 19.0341 59.4181 19.6116 58.9841 20.3996C58.9073 20.5205 58.6858 20.6369 58.6406 20.8205H58.6361ZM58.853 24.2097C59.8791 23.3277 61.1132 22.5307 62.2477 22.0069C63.1382 21.5413 65.4887 19.831 64.6435 19.3027C64.2773 21.2548 57.3116 23.1665 58.853 24.2097ZM50.2058 30.2091C50.6172 29.8689 51.0195 29.542 51.5483 29.2644C51.1008 29.5823 50.6533 29.8957 50.2058 30.2091ZM53.5689 25.1633C52.362 26.3587 50.8387 27.2363 49.5278 28.2436C48.5153 29.0137 47.1276 29.3361 46.3636 30.2987C46.3953 30.3613 46.4314 30.424 46.4631 30.4867L46.5399 30.3658C46.9513 30.2002 47.3174 30.1375 47.6745 30.0211C47.6609 30.0345 47.6429 30.0524 47.6248 30.0658C47.6564 30.0435 47.6881 30.0255 47.7197 30.0032C47.9548 29.9226 48.1853 29.8106 48.4203 29.6271C48.5243 29.5331 48.6283 29.439 48.7368 29.3495C50.0657 28.5123 51.4489 27.6661 52.4931 26.6139C53.1711 26.0185 53.6683 25.3558 54.3464 24.7604C54.1249 24.8768 53.7587 24.9887 53.5689 25.1678V25.1633Z" fill="#D9D9D9"/>
<path d="M43.2131 30.3617C42.7747 30.6885 42.3317 31.0153 41.8752 31.3332C41.5407 31.6063 41.2107 31.8884 40.8852 32.1749C39.2805 33.4464 37.1379 34.418 35.3027 35.5686C35.3434 35.7835 35.4383 35.9761 35.6146 36.1372C37.8069 35.2552 39.7054 33.8315 41.839 32.851C41.8525 32.8375 41.8661 32.8196 41.8752 32.8062C42.5622 31.9645 44.072 31.3332 45.0167 30.4378C45.9253 29.4797 46.9695 28.7723 47.9097 27.8768C46.305 28.7141 44.8495 29.6498 43.2086 30.3572L43.2131 30.3617Z" fill="#D9D9D9"/>
<path d="M54.5725 20.597C54.1566 20.8612 53.7408 21.1298 53.3204 21.3985C52.1722 22.1864 51.1868 22.9476 50.1924 23.7579C50.9925 23.2968 51.8016 22.8491 52.6288 22.4148C53.4243 21.9133 53.9532 21.2283 54.568 20.597H54.5725Z" fill="#D9D9D9"/>
<path d="M49.392 24.4203C49.6632 24.192 49.9253 23.9726 50.192 23.7577C49.0077 24.4382 47.846 25.1411 46.6889 25.8485C44.8536 27.1335 43.0004 28.3916 41.2058 29.7526C40.9979 29.9049 40.7945 30.0481 40.582 30.1869C44.2886 28.3423 47.9862 26.5022 50.6802 24.08C50.7299 24.0353 50.7842 23.986 50.8384 23.9413C49.3784 24.7561 47.9636 25.6157 46.5533 26.4798C47.507 25.8082 48.4608 25.1322 49.392 24.4203Z" fill="#D9D9D9"/>
<path d="M43.638 30.0438C43.5295 30.0975 43.421 30.1513 43.3125 30.205C43.1995 30.2901 43.091 30.3751 42.978 30.4602C43.0549 30.4289 43.1362 30.393 43.2131 30.3617C43.3532 30.2543 43.4979 30.1513 43.638 30.0438Z" fill="#D9D9D9"/>
<path d="M47.6744 30.0255C47.6744 30.0255 47.7061 30.0166 47.7196 30.0121C48.0496 29.7927 48.3932 29.5733 48.7367 29.3584C49.1706 28.9823 49.6407 28.6152 50.1289 28.266C49.2068 28.8391 48.2937 29.4121 47.6699 30.03L47.6744 30.0255Z" fill="#D9D9D9"/>
<path d="M51.5621 29.9316C51.6751 29.8734 51.8966 29.757 52.0051 29.6988C52.0503 29.6271 52.1 29.551 52.1452 29.4794C52.0413 29.5286 51.9328 29.5823 51.8243 29.6316L51.5576 29.9316H51.5621Z" fill="#D9D9D9"/>
<path d="M57.5738 25.4858C55.7341 26.7618 54.0254 27.9841 52.3349 29.1974C52.2716 29.2914 52.2083 29.3855 52.145 29.4795C53.3926 28.8751 54.5724 28.1587 55.5126 27.223C55.7024 27.0439 55.933 26.6812 56.1545 26.5648C57.176 25.9559 58.071 25.2306 58.9706 24.5277C58.5231 24.8322 58.071 25.1411 57.61 25.459C57.5964 25.4679 57.5829 25.4769 57.5693 25.4858H57.5738Z" fill="#D9D9D9"/>
<path d="M40.79 16.3536C40.84 16.3278 40.8856 16.3041 40.8856 16.3041C40.8813 16.2933 40.8748 16.2847 40.8682 16.2739C40.8378 16.3019 40.8139 16.3278 40.79 16.3536Z" fill="#D9D9D9"/>
<path d="M40.89 16.7684C40.89 16.7684 40.9096 16.7579 40.9205 16.7537C40.9118 16.7473 40.9074 16.7389 40.9009 16.7326C40.8965 16.7452 40.8944 16.7579 40.89 16.7684Z" fill="#D9D9D9"/>
<path d="M40.8682 16.2739C40.8008 16.1662 40.703 16.0758 40.6921 15.938C40.7465 15.91 40.853 15.854 40.9052 15.826C40.9269 15.7377 40.84 15.7054 40.8073 15.6429C40.8617 15.6149 40.9139 15.5869 40.8987 15.5568C40.8921 15.4577 40.8052 15.4362 40.6921 15.4706C40.6443 15.9315 40.1225 16.36 40.8682 16.2717V16.2739Z" fill="#D9D9D9"/>
<path d="M40.5726 16.7412C40.6661 16.6917 40.7596 16.6443 40.8531 16.5947C40.8444 16.5086 40.8466 16.4182 40.7813 16.3643C40.6639 16.4914 40.6052 16.5969 40.5704 16.7412H40.5726Z" fill="#D9D9D9"/>
<path d="M18.8566 28.243C18.8675 28.2624 18.8675 28.2731 18.8044 28.271C18.824 28.2602 18.8392 28.2516 18.8566 28.243C18.8479 28.2257 18.8305 28.2021 18.8501 28.1784C18.6827 28.3097 18.4826 28.4562 18.2761 28.5768C18.2652 28.6241 18.2565 28.6694 18.25 28.7146C18.7631 28.4239 19.2849 28.1504 19.6284 27.7649C19.3262 27.9221 19.1458 28.0858 18.8588 28.243H18.8566Z" fill="#D9D9D9"/>
<path d="M18.307 28.9192C18.2895 28.93 18.2719 28.9386 18.2544 28.9493C18.318 28.9515 18.318 28.9386 18.307 28.9192Z" fill="#D9D9D9"/>
<path d="M27.2596 23.3676C27.5684 23.1738 27.7945 22.9197 28.0271 22.6677C27.4662 23.0704 26.8661 23.4408 26.4639 23.7983C26.7269 23.6519 26.99 23.5076 27.2596 23.3676Z" fill="#D9D9D9"/>
<path d="M29.2382 21.5242C28.8077 21.6749 28.5185 21.9247 28.2598 22.1918C28.5642 21.9979 28.8685 21.8063 29.1729 21.6168C29.1947 21.5866 29.2186 21.5565 29.2382 21.5242Z" fill="#D9D9D9"/>
<path d="M28.8968 21.946C28.5294 22.1356 28.2772 22.4004 28.0293 22.6696C28.3467 22.4414 28.6489 22.2023 28.8968 21.946Z" fill="#D9D9D9"/>
<path d="M23.1465 28.5188C22.953 28.732 22.8269 28.8462 22.7508 28.9C22.7377 28.9625 22.716 29.04 22.6855 29.1391C22.6986 29.1326 22.7138 29.124 22.729 29.1175C22.9486 28.9323 23.1726 28.7514 23.403 28.5727C23.4857 28.4801 23.5639 28.3875 23.6205 28.2927C23.4617 28.3659 23.303 28.4392 23.1487 28.5188H23.1465Z" fill="#D9D9D9"/>
<path d="M22.7481 28.9001C22.4459 29.1068 22.8677 28.3725 22.7481 28.9001V28.9001Z" fill="#D9D9D9"/>
<path d="M23.2876 26.1777C23.3006 26.1713 23.3115 26.1648 23.3246 26.1583C23.3572 26.1325 23.3898 26.1067 23.4202 26.0808C23.3746 26.1131 23.3333 26.1454 23.2876 26.1777Z" fill="#D9D9D9"/>
<path d="M26.7207 25.4865C26.5164 25.6093 26.3163 25.7406 26.125 25.8785C26.5359 25.6222 26.9512 25.3659 27.2621 25.0881C27.2099 25.1161 27.1382 25.114 27.086 25.142C27.0121 25.2583 26.8838 25.4025 26.7229 25.4865H26.7207Z" fill="#D9D9D9"/>
<path d="M21.7721 27.3298C22.3113 26.9487 22.8309 26.5546 23.3245 26.1562C24.4399 25.5597 25.4835 24.9222 26.3227 24.1663C27.0489 23.4772 28.5774 22.7558 29.1731 21.8233C29.0753 21.8578 28.9839 21.8987 28.897 21.9418C29.0013 21.8341 29.0927 21.7264 29.1731 21.6123C30.5276 20.7703 31.88 19.9821 33.3215 19.2284C33.5346 19.1164 33.6476 18.942 33.8607 18.83C34.0738 18.7115 34.2847 18.5952 34.4934 18.479C34.4912 18.4725 34.4847 18.466 34.476 18.4639C35.3348 17.9664 36.1697 17.4539 37.0285 16.8789C37.4394 16.6248 37.8852 16.4331 38.3113 16.2092C38.4722 16.1252 38.5374 16.2479 38.6592 16.2221C39.1679 16.151 39.5528 16.1058 40.0659 15.9163C40.0659 15.9163 40.0985 15.9766 40.1137 16.0067C40.1811 15.9572 40.2485 15.9249 40.3072 15.9055C40.2594 16.3664 39.7376 16.7949 40.4833 16.7066C40.4551 16.7346 40.429 16.7605 40.4051 16.7863C40.4007 16.7863 40.3985 16.7906 40.3942 16.7928C40.3942 16.7928 40.3942 16.7949 40.3964 16.7949C40.279 16.922 40.2202 17.0275 40.1855 17.1718C40.279 17.1222 40.3724 17.0749 40.4659 17.0253C40.4703 17.077 40.4812 17.1266 40.5138 17.1632C40.5094 17.1761 40.5072 17.1869 40.5029 17.1998C40.4616 17.2213 40.4268 17.2407 40.4268 17.2407C40.4268 17.2708 40.4268 17.301 40.4333 17.3268C40.2572 17.5852 39.9072 17.8544 40.0485 17.9427C40.1398 17.9772 40.2898 17.8286 40.4725 17.6822C40.4898 17.6865 40.5116 17.6908 40.529 17.6908C40.279 17.8609 40.642 17.904 40.4985 18.0181C40.2855 18.1301 40.0876 18.2722 39.8745 18.3842C39.0049 18.8386 38.2874 19.2521 37.4807 19.7883C37.446 19.812 37.409 19.8357 37.3742 19.8572C36.9807 20.1113 36.5915 20.3223 36.174 20.5097C36.1893 20.4752 36.2045 20.4408 36.2241 20.4085C35.8871 20.5592 35.5566 20.7229 35.2544 20.9404C34.5173 21.4809 33.7802 22.0215 32.9432 22.4974C32.0605 22.9884 31.2321 23.5031 30.3754 24.0802C30.7103 23.8175 31.0494 23.5634 31.4191 23.3437C31.593 23.2576 31.7626 23.1693 31.9256 23.0767C31.7495 23.1564 31.5821 23.2468 31.4191 23.3437C30.7538 23.6753 30.058 23.9919 29.7014 24.5411C29.634 24.5454 29.6166 24.5131 29.5645 24.5411C29.1905 24.737 28.7991 24.9007 28.5448 25.1893C28.56 25.2194 28.4013 25.3034 28.4861 25.3357C28.1817 25.5338 27.8077 25.7298 27.5185 25.9559C27.3903 26.0485 27.2837 26.1777 27.1815 26.322C26.1205 27.0843 25.0747 27.8402 23.9202 28.6392C23.6289 28.8287 23.2745 29.0139 22.9636 29.1775C23.368 28.8373 23.7941 28.5078 24.2311 28.1826C24.7073 27.963 25.1508 27.7304 25.4356 27.3837C25.5052 27.3105 25.5748 27.2394 25.6465 27.1683C25.166 27.5043 24.6921 27.8402 24.2311 28.1826C23.9507 28.3118 23.6571 28.4389 23.3832 28.581C23.3875 28.5767 23.3919 28.5703 23.3962 28.5659C23.5919 28.413 23.7898 28.2645 23.9898 28.1137C24.4138 27.9177 24.8116 27.7132 25.0921 27.4246C25.1269 27.388 25.1617 27.3514 25.1921 27.3126C25.2617 27.2394 25.3313 27.1683 25.403 27.0973C25.1073 27.304 24.8138 27.5129 24.5225 27.7218C24.342 27.851 24.1637 27.9823 23.9876 28.1116C23.8637 28.1697 23.7376 28.2257 23.6115 28.2838C23.6202 28.2688 23.6311 28.2558 23.6376 28.2408C23.7289 28.1546 23.8376 27.6399 23.6289 27.6335C22.8114 28.0706 21.733 28.8179 21.7156 28.7878C21.5982 28.693 22.9223 27.7993 22.8527 27.795C22.7657 27.823 22.6809 27.8531 22.5961 27.8833C22.657 27.8187 22.7179 27.7562 22.7701 27.6916C22.9136 27.5775 23.144 27.4957 23.218 27.3794C23.4941 27.0025 23.955 26.8388 24.3181 26.4943C24.5377 26.2639 24.7921 25.9753 25.0486 25.6846C25.016 25.6243 25.1943 25.5704 25.1073 25.5381C25.4096 25.3809 25.7574 25.1979 25.7922 24.9545C25.7987 24.9481 25.8053 24.9438 25.8118 24.9373C25.8335 24.9265 25.8574 24.9007 25.8835 24.8705C26.401 24.6401 26.6619 24.2891 27.0554 23.9338C27.2033 23.8369 27.3576 23.7443 27.5207 23.6581C27.4142 23.7141 27.2381 23.7679 27.1467 23.8541C27.1163 23.8799 27.0859 23.9079 27.0554 23.9338C26.6706 24.1857 26.3292 24.4678 25.977 24.7349C25.9553 24.7693 25.9205 24.8253 25.8835 24.8705C25.8553 24.8835 25.827 24.8964 25.7966 24.9071C25.7966 24.9222 25.7966 24.9395 25.7944 24.9545C25.4726 25.2345 25.0704 25.4843 24.8051 25.7362C24.2681 26.1497 23.6071 26.4275 22.994 26.7269C23.268 26.518 23.5354 26.3091 23.7963 26.098C23.4593 26.3414 23.1419 26.5718 22.8396 26.8044C22.7875 26.8302 22.7375 26.8561 22.6853 26.8819L22.3635 27.0499C22.47 27.0111 22.5744 26.9702 22.6787 26.9271C22.4983 27.0671 22.32 27.2049 22.1482 27.3471C21.1525 28.0491 20.0849 28.6995 18.9761 29.2185C18.9761 29.1711 18.9826 29.1215 18.9891 29.0699C19.5022 28.7791 20.024 28.5056 20.3654 28.1202C20.0632 28.2774 19.8827 28.441 19.5957 28.5982C19.587 28.581 19.5696 28.5573 19.5892 28.5336C19.4218 28.665 19.2218 28.8114 19.0152 28.932C19.0413 28.8179 19.0761 28.6995 19.1087 28.5832C19.1826 28.4669 19.3435 28.3829 19.487 28.2688C20.1523 27.8531 20.8155 27.528 21.459 27.0973C22.0743 26.7915 22.6874 26.4857 23.281 26.1691C22.7353 26.5632 22.2352 26.9357 21.7656 27.3234L21.7721 27.3298ZM39.2788 17.1761C39.231 17.217 39.181 17.2622 39.1331 17.3074C39.1462 17.3096 39.1571 17.3118 39.1701 17.3161C39.2223 17.2881 39.2571 17.2342 39.2788 17.1761ZM38.0134 17.7984C38.4091 17.6585 38.8548 17.3376 39.2962 17.0469C39.2962 17.0361 39.2919 17.0275 39.2875 17.021C38.8809 17.1976 38.4396 17.5228 38.0134 17.7984ZM36.211 17.932C36.211 17.932 36.2197 17.9363 36.2241 17.9363C36.2219 17.932 36.2175 17.9277 36.2154 17.9233C36.2154 17.9255 36.211 17.9298 36.2088 17.932H36.211ZM30.2146 22.2993C30.5602 21.9246 31.0951 21.6446 31.5973 21.3043C31.7582 21.2204 31.8539 21.0158 32.067 20.9038C32.3192 20.7337 32.4453 20.5894 32.6431 20.4472L32.4496 20.4709C32.841 20.3051 32.9562 20.0122 33.3628 19.8766C33.3476 19.8464 33.3671 19.7581 33.4215 19.7301C33.6715 19.56 33.9716 19.4825 34.1542 19.3102C34.4042 19.1401 34.6717 19.0001 34.8543 18.8278C34.9087 18.7998 34.9652 18.6534 35.0565 18.5672C35.1804 18.4876 35.3065 18.41 35.4326 18.3347C35.4218 18.3304 35.4131 18.3239 35.4044 18.3196C35.2978 18.3734 35.1913 18.4337 35.0956 18.5091C34.8065 18.7374 34.4651 18.9936 34.1607 19.1918C33.3911 19.672 32.7084 20.1824 32.0257 20.6949C31.8822 20.809 31.7539 20.9533 31.6104 21.0675C31.1951 21.44 30.5907 21.7178 30.382 22.0968C30.345 22.155 30.2385 22.211 30.2167 22.2993H30.2146ZM30.3189 23.9295C30.8125 23.5052 31.406 23.1219 31.9517 22.8699C32.3801 22.646 33.5106 21.8233 33.1041 21.5692C32.928 22.5081 29.5775 23.4277 30.3189 23.9295ZM26.1597 26.8152C26.3575 26.6515 26.551 26.4943 26.8054 26.3608C26.5901 26.5137 26.3749 26.6644 26.1597 26.8152ZM27.7773 24.3882C27.1967 24.9631 26.464 25.3852 25.8335 25.8698C25.3465 26.2402 24.679 26.3952 24.3116 26.8582C24.3268 26.8884 24.3442 26.9185 24.3594 26.9487L24.3964 26.8905C24.5942 26.8108 24.7703 26.7807 24.9421 26.7247C24.9356 26.7312 24.9269 26.7398 24.9182 26.7462C24.9334 26.7355 24.9486 26.7269 24.9638 26.7161C25.0769 26.6773 25.1878 26.6235 25.3008 26.5352C25.3508 26.49 25.4009 26.4447 25.453 26.4017C26.0923 25.999 26.7576 25.592 27.2598 25.0859C27.5859 24.7995 27.8251 24.4808 28.1512 24.1943C28.0447 24.2503 27.8686 24.3042 27.7773 24.3903V24.3882Z" fill="#D9D9D9"/>
<path d="M22.7961 26.8883C22.5852 27.0455 22.3721 27.2027 22.1525 27.3556C21.9916 27.487 21.8329 27.6227 21.6764 27.7605C20.9045 28.3721 19.8739 28.8394 18.9912 29.3928C19.0108 29.4962 19.0564 29.5888 19.1412 29.6663C20.1957 29.2421 21.1089 28.5573 22.1351 28.0857C22.1416 28.0792 22.1482 28.0706 22.1525 28.0641C22.483 27.6593 23.2092 27.3556 23.6636 26.9249C24.1006 26.4641 24.6028 26.1238 25.0551 25.6931C24.2832 26.0958 23.5831 26.5459 22.7939 26.8862L22.7961 26.8883Z" fill="#D9D9D9"/>
<path d="M28.2601 22.1917C28.0601 22.3187 27.8601 22.4479 27.6579 22.5771C27.1056 22.9561 26.6316 23.3222 26.1533 23.712C26.5382 23.4902 26.9273 23.2749 27.3252 23.066C27.7079 22.8248 27.9623 22.4953 28.258 22.1917H28.2601Z" fill="#D9D9D9"/>
<path d="M25.7683 24.0309C25.8987 23.921 26.0248 23.8155 26.1531 23.7122C25.5835 24.0395 25.0247 24.3776 24.4681 24.7178C23.5854 25.3359 22.694 25.941 21.8308 26.5957C21.7308 26.6689 21.6329 26.7378 21.5308 26.8046C23.3136 25.9173 25.0921 25.0323 26.3879 23.8672C26.4119 23.8457 26.4379 23.822 26.464 23.8005C25.7618 24.1924 25.0812 24.6059 24.4029 25.0215C24.8616 24.6985 25.3204 24.3733 25.7683 24.0309Z" fill="#D9D9D9"/>
<path d="M23.0005 26.7356C22.9484 26.7614 22.8962 26.7873 22.844 26.8131C22.7896 26.854 22.7375 26.895 22.6831 26.9359C22.7201 26.9208 22.7592 26.9036 22.7962 26.8885C22.8636 26.8368 22.9331 26.7873 23.0005 26.7356Z" fill="#D9D9D9"/>
<path d="M24.9421 26.7269C24.9421 26.7269 24.9573 26.7226 24.9639 26.7205C25.1226 26.615 25.2878 26.5094 25.4531 26.4061C25.6618 26.2252 25.8879 26.0486 26.1227 25.8806C25.6792 26.1563 25.24 26.4319 24.9399 26.7291L24.9421 26.7269Z" fill="#D9D9D9"/>
<path d="M26.8117 26.6816C26.8661 26.6536 26.9726 26.5976 27.0248 26.5696C27.0466 26.5352 27.0705 26.4986 27.0922 26.4641C27.0422 26.4878 26.99 26.5136 26.9378 26.5373L26.8096 26.6816H26.8117Z" fill="#D9D9D9"/>
<path d="M29.704 24.5431C28.8191 25.1569 27.9972 25.7448 27.1841 26.3284C27.1537 26.3736 27.1232 26.4188 27.0928 26.464C27.6929 26.1733 28.2603 25.8288 28.7126 25.3787C28.8039 25.2925 28.9148 25.1181 29.0213 25.0621C29.5127 24.7692 29.9432 24.4204 30.3758 24.0823C30.1606 24.2287 29.9432 24.3773 29.7214 24.5302C29.7149 24.5345 29.7083 24.5388 29.7018 24.5431H29.704Z" fill="#D9D9D9"/>
</g>
<defs>
<clipPath id="clip0_1170_5751">
<rect width="105" height="39" fill="white" transform="translate(0 0.000732422)"/>
</clipPath>
</defs>
</svg>
