<svg width="14" height="14" viewBox="0 0 14 14" fill="none" xmlns="http://www.w3.org/2000/svg">
<path d="M5.34312 6.77829C5.32562 6.77829 5.31396 6.77829 5.29646 6.77829C5.26729 6.77246 5.22646 6.77246 5.19146 6.77829C3.49979 6.72579 2.22229 5.39579 2.22229 3.75663C2.22229 2.08829 3.58146 0.729126 5.24979 0.729126C6.91812 0.729126 8.27729 2.08829 8.27729 3.75663C8.27146 5.39579 6.98812 6.72579 5.36062 6.77829C5.35479 6.77829 5.34896 6.77829 5.34312 6.77829ZM5.24979 1.60413C4.06562 1.60413 3.09729 2.57246 3.09729 3.75663C3.09729 4.92329 4.00729 5.86246 5.16812 5.90329C5.20312 5.89746 5.27896 5.89746 5.35479 5.90329C6.49812 5.85079 7.39646 4.91163 7.40229 3.75663C7.40229 2.57246 6.43396 1.60413 5.24979 1.60413Z" fill="#3F4ACF"/>
<path d="M9.64813 6.85421C9.63063 6.85421 9.61313 6.85421 9.59563 6.84837C9.35647 6.87171 9.11147 6.70254 9.08813 6.46337C9.0648 6.22421 9.21063 6.00837 9.4498 5.97921C9.5198 5.97337 9.59563 5.97337 9.6598 5.97337C10.5115 5.92671 11.1765 5.22671 11.1765 4.36921C11.1765 3.48254 10.459 2.76504 9.5723 2.76504C9.33313 2.77087 9.1348 2.57254 9.1348 2.33337C9.1348 2.09421 9.33313 1.89587 9.5723 1.89587C10.9373 1.89587 12.0515 3.01004 12.0515 4.37504C12.0515 5.71671 11.0015 6.80171 9.66563 6.85421C9.6598 6.85421 9.65397 6.85421 9.64813 6.85421Z" fill="#3F4ACF"/>
<path d="M5.34894 13.1542C4.20561 13.1542 3.05644 12.8625 2.18727 12.2792C1.37644 11.7425 0.933105 11.0075 0.933105 10.2084C0.933105 9.40921 1.37644 8.66837 2.18727 8.12587C3.93727 6.96504 6.77227 6.96504 8.5106 8.12587C9.31561 8.66254 9.76477 9.39754 9.76477 10.1967C9.76477 10.9959 9.32144 11.7367 8.5106 12.2792C7.63561 12.8625 6.49227 13.1542 5.34894 13.1542ZM2.67144 8.86087C2.11144 9.23421 1.80811 9.71254 1.80811 10.2142C1.80811 10.71 2.11727 11.1884 2.67144 11.5559C4.12394 12.53 6.57394 12.53 8.02644 11.5559C8.58644 11.1825 8.88977 10.7042 8.88977 10.2025C8.88977 9.70671 8.58061 9.22837 8.02644 8.86087C6.57394 7.89254 4.12394 7.89254 2.67144 8.86087Z" fill="#3F4ACF"/>
<path d="M10.6981 12.1042C10.494 12.1042 10.3131 11.9642 10.2723 11.7542C10.2256 11.515 10.3773 11.2875 10.6106 11.235C10.9781 11.1592 11.3165 11.0133 11.579 10.8092C11.9115 10.5583 12.0923 10.2433 12.0923 9.91084C12.0923 9.57834 11.9115 9.26334 11.5848 9.01834C11.3281 8.82001 11.0073 8.68001 10.6281 8.59251C10.3948 8.54001 10.2431 8.30668 10.2956 8.06751C10.3481 7.83418 10.5815 7.68251 10.8206 7.73501C11.3223 7.84584 11.7598 8.04418 12.1156 8.31834C12.6581 8.72668 12.9673 9.30418 12.9673 9.91084C12.9673 10.5175 12.6523 11.095 12.1098 11.5092C11.7481 11.7892 11.2931 11.9933 10.7915 12.0925C10.7565 12.1042 10.7273 12.1042 10.6981 12.1042Z" fill="#3F4ACF"/>
</svg>
