<svg width="30" height="30" viewBox="0 0 30 30" fill="none" xmlns="http://www.w3.org/2000/svg">
<path d="M27.95 10.3382L27.5875 6.87573C27.0625 3.10073 25.35 1.56323 21.6875 1.56323H18.7375H16.8875H13.0875H11.2375H8.2375C4.5625 1.56323 2.8625 3.10073 2.325 6.91323L1.9875 10.3507C1.8625 11.6882 2.225 12.9882 3.0125 14.0007C3.9625 15.2382 5.425 15.9382 7.05 15.9382C8.625 15.9382 10.1375 15.1507 11.0875 13.8882C11.9375 15.1507 13.3875 15.9382 15 15.9382C16.6125 15.9382 18.025 15.1882 18.8875 13.9382C19.85 15.1757 21.3375 15.9382 22.8875 15.9382C24.55 15.9382 26.05 15.2007 26.9875 13.9007C27.7375 12.9007 28.075 11.6382 27.95 10.3382Z" fill="white"/>
<path d="M14.1875 20.8257C12.6 20.9882 11.4 22.3382 11.4 23.9382V27.3632C11.4 27.7007 11.675 27.9757 12.0125 27.9757H17.975C18.3125 27.9757 18.5875 27.7007 18.5875 27.3632V24.3757C18.6 21.7632 17.0625 20.5257 14.1875 20.8257Z" fill="white"/>
<path d="M26.7125 18.0007V21.7257C26.7125 25.1757 23.9125 27.9757 20.4625 27.9757C20.125 27.9757 19.85 27.7007 19.85 27.3632V24.3757C19.85 22.7757 19.3625 21.5257 18.4125 20.6757C17.575 19.9132 16.4375 19.5382 15.025 19.5382C14.7125 19.5382 14.4 19.5507 14.0625 19.5882C11.8375 19.8132 10.15 21.6882 10.15 23.9382V27.3632C10.15 27.7007 9.875 27.9757 9.5375 27.9757C6.0875 27.9757 3.2875 25.1757 3.2875 21.7257V18.0257C3.2875 17.1507 4.15 16.5632 4.9625 16.8507C5.3 16.9632 5.6375 17.0507 5.9875 17.1007C6.1375 17.1257 6.3 17.1507 6.45 17.1507C6.65 17.1757 6.85 17.1882 7.05 17.1882C8.5 17.1882 9.925 16.6507 11.05 15.7257C12.125 16.6507 13.525 17.1882 15 17.1882C16.4875 17.1882 17.8625 16.6757 18.9375 15.7507C20.0625 16.6632 21.4625 17.1882 22.8875 17.1882C23.1125 17.1882 23.3375 17.1757 23.55 17.1507C23.7 17.1382 23.8375 17.1257 23.975 17.1007C24.3625 17.0507 24.7125 16.9382 25.0625 16.8257C25.875 16.5507 26.7125 17.1507 26.7125 18.0007Z" fill="white"/>
</svg>
