<svg width="11" height="11" viewBox="0 0 11 11" fill="none" xmlns="http://www.w3.org/2000/svg">
<path d="M9.57013 2.55446H5.64277C5.46386 2.55446 5.31549 2.4061 5.31549 2.22718C5.31549 2.04827 5.46386 1.8999 5.64277 1.8999H9.57013C9.74905 1.8999 9.89741 2.04827 9.89741 2.22718C9.89741 2.4061 9.74905 2.55446 9.57013 2.55446Z" fill="#757575"/>
<path d="M9.57013 4.73635H5.64277C5.46386 4.73635 5.31549 4.58798 5.31549 4.40907C5.31549 4.23015 5.46386 4.08179 5.64277 4.08179H9.57013C9.74905 4.08179 9.89741 4.23015 9.89741 4.40907C9.89741 4.58798 9.74905 4.73635 9.57013 4.73635Z" fill="#757575"/>
<path d="M9.57013 6.91823H1.7154C1.53649 6.91823 1.38812 6.76987 1.38812 6.59095C1.38812 6.41204 1.53649 6.26367 1.7154 6.26367H9.57013C9.74904 6.26367 9.89741 6.41204 9.89741 6.59095C9.89741 6.76987 9.74904 6.91823 9.57013 6.91823Z" fill="#757575"/>
<path d="M9.57013 9.09987H1.7154C1.53649 9.09987 1.38812 8.95151 1.38812 8.77259C1.38812 8.59368 1.53649 8.44531 1.7154 8.44531H9.57013C9.74904 8.44531 9.89741 8.59368 9.89741 8.77259C9.89741 8.95151 9.74904 9.09987 9.57013 9.09987Z" fill="#757575"/>
</svg>
