<svg width="16" height="16" viewBox="0 0 16 16" fill="none" xmlns="http://www.w3.org/2000/svg">
<path d="M10 15.1674H6C2.38 15.1674 0.833334 13.6208 0.833334 10.0008V6.00077C0.833334 2.38077 2.38 0.834106 6 0.834106H10C13.62 0.834106 15.1667 2.38077 15.1667 6.00077V10.0008C15.1667 13.6208 13.62 15.1674 10 15.1674ZM6 1.83411C2.92667 1.83411 1.83333 2.92744 1.83333 6.00077V10.0008C1.83333 13.0741 2.92667 14.1674 6 14.1674H10C13.0733 14.1674 14.1667 13.0741 14.1667 10.0008V6.00077C14.1667 2.92744 13.0733 1.83411 10 1.83411H6Z" fill="#5E5E5E"/>
<path d="M7.05334 10.3873C6.92 10.3873 6.79334 10.334 6.7 10.2407L4.81333 8.35401C4.62 8.16068 4.62 7.84068 4.81333 7.64734C5.00667 7.45401 5.32667 7.45401 5.52 7.64734L7.05334 9.18068L10.48 5.75401C10.6733 5.56068 10.9933 5.56068 11.1867 5.75401C11.38 5.94734 11.38 6.26734 11.1867 6.46068L7.40667 10.2407C7.31334 10.334 7.18667 10.3873 7.05334 10.3873Z" fill="#5E5E5E"/>
</svg>
