<svg width="14" height="14" viewBox="0 0 14 14" fill="none" xmlns="http://www.w3.org/2000/svg">
<path d="M6.99998 7.43758C5.15081 7.43758 3.64581 5.93258 3.64581 4.08342C3.64581 2.23425 5.15081 0.729248 6.99998 0.729248C8.84915 0.729248 10.3541 2.23425 10.3541 4.08342C10.3541 5.93258 8.84915 7.43758 6.99998 7.43758ZM6.99998 1.60425C5.63498 1.60425 4.52081 2.71841 4.52081 4.08342C4.52081 5.44841 5.63498 6.56258 6.99998 6.56258C8.36498 6.56258 9.47915 5.44841 9.47915 4.08342C9.47915 2.71841 8.36498 1.60425 6.99998 1.60425Z" fill="#464646"/>
<path d="M1.98926 13.2708C1.75009 13.2708 1.55176 13.0725 1.55176 12.8333C1.55176 10.3425 3.99592 8.3125 7.00009 8.3125C7.58926 8.3125 8.16675 8.38835 8.72675 8.54585C8.96008 8.61001 9.09426 8.84917 9.0301 9.0825C8.96593 9.31584 8.72675 9.45002 8.49342 9.38585C8.01509 9.25168 7.51342 9.1875 7.00009 9.1875C4.48009 9.1875 2.42676 10.8208 2.42676 12.8333C2.42676 13.0725 2.22842 13.2708 1.98926 13.2708Z" fill="#464646"/>
<path d="M10.5 13.2709C9.53169 13.2709 8.62169 12.7576 8.13169 11.9234C7.86919 11.5034 7.72919 11.0076 7.72919 10.5001C7.72919 9.64841 8.10835 8.8609 8.76752 8.3359C9.25752 7.94507 9.87585 7.72925 10.5 7.72925C12.0284 7.72925 13.2709 8.97175 13.2709 10.5001C13.2709 11.0076 13.1309 11.5034 12.8684 11.9293C12.7225 12.1743 12.5358 12.3959 12.3142 12.5826C11.83 13.0259 11.1825 13.2709 10.5 13.2709ZM10.5 8.60425C10.0684 8.60425 9.66002 8.75006 9.31585 9.02423C8.86669 9.38006 8.60419 9.92258 8.60419 10.5001C8.60419 10.8442 8.69752 11.1826 8.87835 11.4742C9.21669 12.0459 9.84085 12.3959 10.5 12.3959C10.9609 12.3959 11.4042 12.2267 11.7425 11.9234C11.8942 11.7951 12.0225 11.6434 12.1158 11.4801C12.3025 11.1826 12.3959 10.8442 12.3959 10.5001C12.3959 9.45591 11.5442 8.60425 10.5 8.60425Z" fill="#464646"/>
<path d="M10.1674 11.515C10.0566 11.515 9.94574 11.4742 9.85824 11.3867L9.28074 10.8092C9.11158 10.64 9.11158 10.36 9.28074 10.1908C9.44991 10.0216 9.72991 10.0216 9.89908 10.1908L10.1791 10.4708L11.1124 9.60748C11.2874 9.44415 11.5674 9.45584 11.7307 9.63084C11.8941 9.80584 11.8824 10.0858 11.7074 10.2492L10.4649 11.3983C10.3774 11.4742 10.2724 11.515 10.1674 11.515Z" fill="#464646"/>
</svg>
