<svg width="18" height="18" viewBox="0 0 18 18" fill="none" xmlns="http://www.w3.org/2000/svg">
<path d="M9 17.0626C8.475 17.0626 7.9425 16.8601 7.545 16.4626L6.26248 15.1951C5.94748 14.8801 5.51251 14.7076 5.07001 14.7076H4.5C2.9475 14.7076 1.6875 13.4551 1.6875 11.9176V3.73505C1.6875 2.19755 2.9475 0.945068 4.5 0.945068H13.5C15.0525 0.945068 16.3125 2.19755 16.3125 3.73505V11.9176C16.3125 13.4551 15.0525 14.7076 13.5 14.7076H12.93C12.4875 14.7076 12.0525 14.8876 11.7375 15.1951L10.455 16.4626C10.0575 16.8601 9.525 17.0626 9 17.0626ZM4.5 2.06256C3.57 2.06256 2.8125 2.81254 2.8125 3.72754V11.9101C2.8125 12.8326 3.57 13.575 4.5 13.575H5.07001C5.81251 13.575 6.53248 13.8751 7.05748 14.3926L8.34 15.6601C8.7075 16.0201 9.30001 16.0201 9.66751 15.6601L10.95 14.3926C11.475 13.8751 12.195 13.575 12.9375 13.575H13.5C14.43 13.575 15.1875 12.8251 15.1875 11.9101V3.72754C15.1875 2.80504 14.43 2.06256 13.5 2.06256H4.5Z" fill="white"/>
<path d="M8.99995 8.06261C7.72495 8.06261 6.68994 7.02759 6.68994 5.75259C6.68994 4.47759 7.72495 3.44263 8.99995 3.44263C10.275 3.44263 11.31 4.47759 11.31 5.75259C11.31 7.02759 10.275 8.06261 8.99995 8.06261ZM8.99995 4.56763C8.34745 4.56763 7.81494 5.10009 7.81494 5.75259C7.81494 6.40509 8.34745 6.93761 8.99995 6.93761C9.65245 6.93761 10.185 6.40509 10.185 5.75259C10.185 5.10009 9.65245 4.56763 8.99995 4.56763Z" fill="white"/>
<path d="M12 12.3075C11.6925 12.3075 11.4375 12.0525 11.4375 11.745C11.4375 10.71 10.3425 9.86255 9 9.86255C7.6575 9.86255 6.5625 10.71 6.5625 11.745C6.5625 12.0525 6.3075 12.3075 6 12.3075C5.6925 12.3075 5.4375 12.0525 5.4375 11.745C5.4375 10.0875 7.035 8.73755 9 8.73755C10.965 8.73755 12.5625 10.0875 12.5625 11.745C12.5625 12.0525 12.3075 12.3075 12 12.3075Z" fill="white"/>
</svg>
